<?xml version="1.0" encoding="UTF-8"?>
<svg id="_圖層_1" data-name="圖層 1" xmlns="http://www.w3.org/2000/svg" viewBox="0 0 1550 1550">
  <defs>
    <style>
      .cls-1 {
        fill: #997260;
      }

      .cls-2 {
        fill: #fbfbfa;
      }

      .cls-3 {
        fill: #85b7a6;
      }

      .cls-4 {
        fill: #0f0c0b;
      }
    </style>
  </defs>
  <path class="cls-2" d="M1138.07,1266.31c1.06,9.49,3.6,18.77.81,28.53-5.05,17.66-25.96,25.29-40.35,14.08-3.42-2.66-6.14-2.96-10.28-1.77-17.02,4.89-34.11,9.63-51.37,13.56-8.14,1.85-16.73,1.68-25.1,2.55-10.9,1.14-21.75,2.79-32.68,3.54-21.37,1.48-42.75,2.84-64.21.95-8.08-.71-16.26-.13-24.38-.52-12.43-.6-24.87-1.3-37.27-2.41-12.72-1.15-25.39-2.92-38.1-4.28-4.48-.48-4.78,3.84-5.69,6.35-3.29,9.01-8,17-14.35,24.19-4.16,4.71-7.84,9.86-11.62,14.89-8.86,11.8-20.68,19.83-33.37,26.92-17.73,9.9-37.16,14.39-56.87,16.93-9.45,1.22-19.47-.85-29.07-2.44-7.3-1.21-14.55-3.48-21.4-6.3-3.79-1.56-6.64-5.32-10.07-7.89-1.94-1.45-4.06-3.09-6.32-3.58-11.32-2.41-22.38-5.29-30.6-14.2-8.27-8.97-6.33-22.81,4.66-28.33,7.46-3.75,15.66-6.27,23.75-8.49,8.68-2.38,21.32-9.71,25.34-16.51-2.86.93-4.97,1.44-6.94,2.29-11.53,4.96-23.36,8.81-36.05,8.84-14.71.03-29.24-4.07-40.47-12.28-11.39-8.33-23.41-7.21-35.39-9.41-9.78-1.8-19.55-3.65-29.32-5.48-.65-.12-1.29-.37-1.94-.4-29.78-1.43-57.62-10.97-85.59-20.13-7.85-2.57-16.2-3.63-24.04-6.21-8.03-2.65-15.78-6.2-23.53-9.63-2.88-1.28-4.56-1.16-6.77,1.43-8.22,9.64-20.13,11.83-31.59,6.24-12.04-5.88-18.61-15.03-17.14-25.39.68-4.82,3.16-9.38,4.82-14.06,7.77-21.97,16.15-43.68,27.34-64.2,2.13-3.91,4.43-7.8,7.12-11.34,2.68-3.52,2.54-5.56-1.19-8.48-20.11-15.73-37.3-34.08-48.36-57.43-2.88-6.09-4.67-12.69-7.23-18.94-.68-1.65-2.12-3.26-3.63-4.24-9.75-6.31-20.22-11.69-29.3-18.84-10.37-8.16-17.99-19.13-24.22-30.75-7.33-13.69-12.53-28.16-12.88-43.98-.25-11.32-1.97-22.84-.46-33.92,2.13-15.66,6.44-31.05,10.18-46.47,2.38-9.82,5.13-19.57,8.21-29.19,6.67-20.86,14.33-41.43,20.35-62.47,7.06-24.7,13.7-49.58,16.84-75.2.93-7.56,2.72-15.06,3.09-22.64.68-13.57.45-27.19.86-40.77.34-11.26-4.64-21.26-7.03-31.87-1.49-6.62-2.98-13.27-3.79-19.99-1.38-11.34-2.31-22.74-3.22-34.13-.25-3.09.22-6.25.47-9.37.28-3.44-1.67-4.58-4.67-5.1-15.58-2.7-28.11-10.11-36.98-23.53-1.2-1.81-4.12-3.36-6.33-3.48-9.92-.53-17.81-4.73-24.29-11.99-13.95-15.62-18.04-34.82-20.42-54.84-1.71-14.38,1.81-27.77,5.02-41.52,4.22-18.09,11.92-34.66,21.09-50.37,8.23-14.1,18.02-27.5,28.52-40.03,12.02-14.35,24.91-28.15,38.64-40.86,18.97-17.56,38.19-34.98,59.69-49.53,16.91-11.44,33.64-23.2,51.07-33.81,15.58-9.48,32.14-17.34,48.01-26.38,9.5-5.41,18.07-12.58,27.82-17.42,14.4-7.15,29.18-13.81,44.36-19.05,14.05-4.84,28.7-8.33,43.35-10.9,10.5-1.84,21.44-1.57,32.18-1.52,6.25.03,12.53,1.28,18.73,2.38,3.23.57,6.72,1.37,9.36,3.15,4.92,3.33,9.5,2.86,14.64.89,17.49-6.69,35.44-11.82,54.34-10.86,13.89.7,27.69,3.52,41.58,4.1,22.34.93,42.15,10.09,62.67,17.25,24.98,8.72,48.28,20.7,70.39,35.04,14.51,9.41,29.16,18.77,42.66,29.53,15.56,12.4,30.56,25.6,42.65,41.75,7.16,9.57,15.46,18.28,22.62,27.84,11.73,15.68,23.71,31.22,31.56,49.45,9.51,22.07,20.01,43.73,28.92,66.03,7.13,17.83,12.4,36.39,18.71,54.56,6.36,18.3,12.53,36.69,19.65,54.7,5.27,13.34,11.61,26.21,18.55,38.91,11.73,21.43,26.44,40.05,44.02,56.8,12.61,12.01,24.8,24.49,36.68,37.23,17.29,18.53,32.02,38.91,41.14,62.79,3.71,9.73,6.5,19.82,9.58,29.79,2.18,7.05,6.78,12.4,11.57,17.75,9.16,10.24,18.65,20.27,26.93,31.19,7.28,9.61,13.72,20.01,19.35,30.68,4.22,7.99,6.89,16.85,9.66,25.52,3.52,11.01,7,22.09,9.5,33.35,6.1,27.47,3.9,54.58-4.89,81.23-1.92,5.83-3.14,11.97-5.66,17.52-3.82,8.41-8.77,16.31-12.73,24.67-2.98,6.27-5.62,12.8-7.46,19.47-.69,2.5.44,6.6,2.27,8.52,10.99,11.52,23.81,20.61,40.01,22.5,11.8,1.38,23.49-.5,34.17-6.51,5.35-3.01,10.71-6.01,16.21-8.74,7.81-3.88,15.53-1.63,22.5,1.94,2.98,1.52,5.23,5.54,6.59,8.92,3.75,9.32,2.3,18.55-1.9,27.49-3.45,7.34-7.98,13.7-14.73,18.49-10.27,7.28-19.75,15.88-30.61,22.08-13.79,7.88-28.8,13.04-45.31,9.9-1.46-.28-3.01-.02-4.48-.23-3.5-.5-5,1.13-4.89,4.45.56,16.22-3.22,31.69-9.79,46.23-4.41,9.76-10.45,18.85-16.37,27.84-11.34,17.22-28.88,26.85-46.07,36.99-12.94,7.63-25.56,8.15-38.31,1.05M880.37,1145.5c.3-.33.59-.67.89-1,2.1-2.11,4.1-4.33,6.3-6.33,17.97-16.34,34.5-33.84,45.86-55.65,1.05-2.01,3.13-3.49,4.72-5.22,1.35.74,2.71,1.48,4.06,2.21,1.58,1.45,2.96,3.23,4.77,4.3,10.98,6.5,22.49,12.2,32.99,19.39,14.19,9.72,28.12,19.95,41.24,31.04,16.48,13.94,28.42,31.96,39.29,50.31,8.73,14.74,15.67,30.61,22.6,46.33,8.22,18.65,14.16,38.13,18.76,58.01,1.45,6.25,5.49,9.17,10.53,8.17,4.19-.83,6.41-5.25,5.65-11.29-.06-.5-.15-.99-.27-1.47-2.53-10.28-5.06-20.55-7.6-30.83.43-.5.77-1.23,1.32-1.46,14.15-6.04,25.27-15.82,34.24-28.11,17.48-23.93,25.86-51.38,30.53-80.19,3.86-23.84,3.12-47.65-1.03-71.4-.57-3.29-.58-6.68-.85-10.02.59,1,1.29,1.95,1.75,3,9.65,21.92,16.52,44.59,18.49,68.57,1.37,16.75.66,33.49-4.54,49.49-3.45,10.61-8.92,20.57-13.5,30.82-.94,2.11-2.75,4.27-2.62,6.31.14,2.08,1.74,5.09,3.48,5.82,3.54,1.48,6.6-.51,8.94-3.58,7.7-10.08,13.34-21.18,16.87-33.35,2.17,1.42,4.33,2.83,6.5,4.25-1.36,1.45-3.31,2.69-3.93,4.41-.74,2.06-1.24,5.22-.16,6.61,1,1.29,4.42,1.62,6.38,1.05,2.59-.76,5.03-2.55,7.13-4.38,15.83-13.76,22.62-32.18,26.4-52.06,3.15-16.59,1.27-32.86-3.65-48.88,3.51,1.24,7.12,2.27,10.52,3.76,18.77,8.25,37.58,9.8,56.03-.44,5.31-2.95,9.72-7.53,14.54-11.36,2.27-1.33,4.69-2.46,6.77-4.04,5.92-4.47,11.88-8.93,17.47-13.8,2.44-2.12,2.91-5.66.38-8.04-2.48-2.33-5.59-2.13-8.67-.08-5.49,3.66-10.95,7.49-16.85,10.38-17.13,8.37-34.49,11.01-52.34,1.44-10.8-5.79-20.3-13-28.33-22.2-1.08-1.95-1.97-4.04-3.28-5.83-5.5-7.51-10.39-15.26-11.29-24.84,1.28-1.52,2.94-2.85,3.76-4.58,5.64-11.82,11.59-23.52,16.53-35.63,9.5-23.3,14.5-47.72,13.54-72.87-.66-17.27-5.65-33.9-11.2-50.32-13.06-38.61-35.64-70.46-66.95-96.35-1.5-1.24-2.76-3.39-3.13-5.3-3.71-19.18-9.5-37.67-19.08-54.72-11.56-20.56-28.27-37.06-44.17-54.16-11.41-12.27-23.19-24.24-34.07-36.97-26-30.42-43.74-65.58-57.68-102.82-6.33-16.92-12.58-33.86-18.89-50.79-4.29-11.5-8.6-22.98-12.93-34.46-5.32-14.14-10.19-28.47-16.09-42.36-11.06-26.04-24.75-50.6-41.53-73.52-17.17-23.45-36.03-45.26-59.19-62.87-16.36-12.44-33.34-24.14-50.62-35.28-27.05-17.44-56.27-30.31-87.61-37.88-11.9-2.88-24-5.07-36.11-6.94-9.65-1.48-19.44-2.7-29.18-2.76-14.82-.09-29.46,2.29-43.62,6.74-4.22,1.33-9.28,2.34-10.54,7.95-.79.72-1.47,1.75-2.4,2.1-8.52,3.2-17.14,6.13-25.57,9.53-1.84.74-3.04,3.06-5.11,5.26-21.65-6.86-43.41-.27-65.05,5.71-.6-1.53-1.01-2.58-1.42-3.62-2.06-1.11-4.01-2.79-6.2-3.2-3.83-.72-7.81-.65-11.72-.91,1.5-1.62,3.03-2.15,4.6-2.5,10.35-2.34,20.64-5.02,31.08-6.87,16.69-2.96,33.53-4.45,50.46-2.03,3.16.45,6.28,1.11,7.38-2.77,1.11-3.88-1.99-5.17-4.82-6.38-.91-.39-1.81-.87-2.77-1.1-14.67-3.43-29.62-3.8-44.37-1.84-14.25,1.89-28.55,4.63-42.3,8.78-18.26,5.51-35.63,13.4-49.31,27.52-.97,1-2.4,1.6-3.69,2.22-13.58,6.48-27.37,12.55-40.7,19.52-9.07,4.74-17.73,10.37-26.15,16.22-14.26,9.9-28.6,19.77-42.13,30.61-13.16,10.54-25.59,22.04-37.9,33.59-13.75,12.9-27.68,25.71-40.3,39.68-19.66,21.76-35.9,45.93-47.17,73.29-5.43,13.19-8.98,26.77-10.34,40.83-1.14,11.74-.28,23.59,3.73,34.81,2.14,5.98,5.41,11.58,8.47,17.19.69,1.27,2.57,2.57,3.96,2.64,1.95.1,5.16-.4,5.68-1.59,1-2.29,1.33-5.53.49-7.86-7.34-20.34-9.88-40.96-3.91-62.05,6.48-22.9,17.61-43.54,31.19-62.98,12.57-18,26.78-34.54,42.78-49.56,8.57-8.04,16.83-16.45,25.87-23.91,18.01-14.86,35.89-29.98,54.9-43.48,16.15-11.47,33.39-21.63,50.95-30.84,14.91-7.82,30.67-14.28,46.59-19.81,12-4.17,24.85-5.9,37.32-8.72-.74-.17-1.61-.68-2.21-.46-9.67,3.52-19.38,6.93-28.93,10.77-27.96,11.24-53.52,27-77.43,44.94-30.04,22.54-59.09,46.44-87.94,70.5-22.28,18.58-42.68,39.12-59.1,63.34-12.83,18.92-22.99,38.78-26.88,61.63-2.8,16.45-1.83,32.11,6.33,46.91.88,1.59,2.52,2.77,3.81,4.14.86,1.92,1.68,3.86,2.59,5.75,3.6,7.53,6.89,15.24,10.96,22.51,3.84,6.85,9.81,7.25,14.01,1.56.88.31,1.86.46,2.62.96,5.68,3.71,11.14,7.8,17.01,11.15,5.49,3.14,11.84,4.76,17.59,1.35,4.44-2.63,6.07-.77,7.87,2.58-15.68,9.48-17.42,24.69-16.36,40.77.48,7.21,1.93,14.38,3.17,21.52,2.53,14.54,5.83,28.88,12.34,42.26,2.2,4.51,4.7,8.87,7.07,13.29-.49.72-.97,1.44-1.46,2.16-6.01-.33-6.81.28-7.13,6.31-.4,7.41-.67,14.83-.85,22.25-.64,26.71-6.47,52.65-12.89,78.32-6.94,27.76-15.48,55.13-23.9,82.49-8.71,28.31-18.8,56.2-21.82,85.97-1.83,18.03-.92,35.56,5.56,52.74,6.64,17.6,17.12,31.97,32.87,42.39,8.63,5.71,17.84,9.95,28.17,11.47.36,2.29.62,4.59,1.09,6.85,1.22,5.82,1.85,11.88,3.94,17.37,6.02,15.83,15.7,29.5,26.56,42.37,6.54,7.76,14.18,14,23.89,17.42,1.45,1.04,2.8,2.31,4.39,3.06,2.89,1.36,5.13,2.91,4.19,6.6-7.12,13.1-14.54,26.04-21.29,39.32-9.3,18.33-17.69,37.08-22.12,57.31-1.34,6.11,1.53,11.38,6.58,12.73,5.21,1.39,8.57-1.27,10.84-8.22,3.25-9.9,5.91-20.09,10.17-29.55,8.22-18.24,17.11-36.19,26.22-54.01,10.74-21,25.32-39.32,42.98-54.79,12.66-11.09,26.33-21.17,40.29-30.6,13.41-9.06,27.63-16.97,41.77-24.87,10.22-5.71,20.83-10.73,31.4-15.78,9.9-4.73,19.97-9.09,29.99-13.62.03,13.38-1.79,26.62-6.34,39.4-2,5.61-.8,10.1,3.54,11.83,3.22,1.29,7.49-1.31,9.63-6.1,6.65-14.83,9.03-30.66,8.84-46.63-.15-12.85-1.83-25.75-3.77-38.48-2.25-14.7-5.25-29.29-8.45-43.82-2.91-13.21-6.53-26.27-9.71-38.9,9.84-2.95,19.84-5.83,29.77-8.94,23.49-7.35,45.07-18.57,65.28-32.51,4.99-3.44,6.59-7.39,4.19-10.24-3.49-4.13-6.9-.91-10.17.66-13.69,6.58-26.94,14.33-41.11,19.63-29.14,10.91-59.15,17.71-90.75,16.73-21.91-.68-42.73-4.76-62.21-14.62-34.6-17.52-61.85-43.41-82.46-75.96-18.36-28.98-25.81-61.49-27.33-95.49-.16-3.68-.02-7.38-.02-11.19,3.61.52,6.58.8,9.48,1.39,18.65,3.8,37.26,5.79,56.39,2.93,25.44-3.8,42.3-17.16,49.06-41.97,3.33-12.2,5.02-24.86,7.28-37.34.65-3.58.77-6.94,3.97-9.74,12.32-10.82,30.97-10.46,44.76,1.62,2.12,1.85,3.63,5.08,4.19,7.91,2.57,12.95,3.94,26.17,7.14,38.94,5.86,23.4,20.63,39.18,44.15,45.31,13.71,3.57,27.79,6.59,41.87,7.67,20.13,1.55,40.36.84,60.14-4.62,17.34-4.79,30.81-14.25,38.66-30.8,8.02-16.93,12.08-34.87,13.29-53.51.4-6.07.91-12.14,1.38-18.37,8.42-.41,16.82-.81,25.22-1.22-.12.65-.4,1.31-.35,1.94,1.5,21.51,3.58,42.99,4.37,64.53.63,17.15-.1,34.36-.62,51.53-.36,11.92-1.37,23.81-2.1,35.72-5.11,9.21-9.69,18.77-15.5,27.52-5.2,7.84-11.89,14.69-17.58,22.23-1.09,1.44-.61,4.06-.86,6.13,2.26.17,5.05,1.26,6.68.32,3.98-2.27,7.43-5.48,11.09-8.3-.59,2.36-.74,4.94-1.84,7.04-13.19,25.14-26.47,50.24-39.81,75.3-11.03,20.7-19.3,42.39-21.78,65.8-1.34,12.65-3.39,25.81,5.67,37.07.34.42.11,1.29.14,1.95-1.59,2.51-3.09,5.07-4.77,7.51-10.35,14.98-21.01,29.76-31.05,44.94-15.14,22.9-27.35,47.22-34.64,73.87-4.6,16.83-7.45,33.76-7.25,51.32.14,12.97,2.73,25.4,6.52,37.54,3.67,11.76,6.9,23.93,15.27,33.63-.87,2.86-1.71,5.73-2.61,8.57-4.87,15.32-13.53,27.56-29.07,33.37-5.99,2.24-12.66,2.59-18.82,4.45-2.52.76-6.3,3.21-6.35,4.98-.07,2.59,2.7,5.26,4.26,7.9,1.31,5.67,5.96,6.06,10.37,6.05,11.87-.01,23-3.64,32.88-9.73,19.7-12.14,29.95-30.63,33.14-53.28.56,1.2,1.32,2.35,1.65,3.6,3.87,14.63,11.35,27.58,18.49,40.74,1.7,3.12,2.98,7.29,2.45,10.67-3.73,23.92-15.44,42.46-37.71,53.45-1.3.64-2.2,2.09-3.28,3.17-3.21.82-6.38,2.04-9.64,2.36-3.33.33-6.92.35-7.05,4.46-.14,4.56,3.85,5.54,7.39,5.58,4.79.05,9.58-.58,14.38-.93-2.94,9.75-.92,13.24,8.74,15.02,3.4.63,6.81,1.18,10.22,1.76.85,3.81,3.82,4.95,7.1,5.03,4.12.1,8.41.28,12.36-.67,7.01-1.68,13.82-4.18,20.72-6.34,1.55.25,3.12.82,4.64.69,11.23-.94,21.81-4.12,31.68-9.6,16.39-9.1,30.25-20.94,40.15-37.09,9.21-15.03,13.84-31.49,15.53-48.9,1.35,1.19,2.77,2.31,4.05,3.57,8.63,8.46,18.86,11.92,30.84,9.99,3.88,1.4,7.7,2.99,11.64,4.14,6.71,1.96,13.48,2.08,20.05-.61,7-2.86,7.95-4.51,7.56-11.97,2.82-.09,5.64-.11,8.45-.3,4.18-.28,7.51-3.84,7.46-7.84-.04-3.6-3.05-5.68-7.75-5.9-3.09-.15-6.16-.92-9.23-1.41-.38-.24-.75-.47-1.13-.71-.22-.24-.48-.4-.79-.5-2.19-2.18-4.56-4.2-6.55-6.55-12.71-15-15.79-32.58-13.06-51.42,3.38-23.37,14.75-43.16,28.61-61.75,1.82-2.44,3.23-5.19,4.82-7.8,0,0,.07-.07.06-.07ZM577.25,1145.8c-4.04-.5-8.93-.57-13.53-1.76-16.97-4.4-28.45-13.12-31.6-31.55-1.65-9.63-.37-19.02,2.88-27.9,3.16-8.64,7.95-16.66,11.59-25.14.95-2.21,1.38-6.12.13-7.46-2.21-2.37-5.68-1.29-7.93,1.16-2.12,2.31-4.08,4.83-5.78,7.46-7.04,10.85-11.66,22.77-13.78,35.45-3.26,19.51,1.77,36.63,16.99,49.83,11.01,9.55,24.41,13.21,38.7,12.49,7.98-.4,15.93-2.34,23.79-4.06,2.69-.59,5.19-2.49,4.11-6.24-1.07-3.68-3.65-4.21-6.99-3.86-5.92.62-11.87,1.02-18.57,1.58ZM508.68,784.99c7.07-1.02,12.92-.99,18.11-2.82,8.34-2.94,16.35-6.89,24.26-10.89,3.06-1.55,3.75-5.22,1.25-7.63-1.4-1.35-4.54-1.07-6.9-1.18-.82-.04-1.66,1-2.54,1.47-13.49,7.24-27.85,10.45-43.03,8.05-5.91-.93-11.52-3.65-17.4-4.98-2.19-.49-5.52-.14-6.99,1.25-2.38,2.26-1.26,5.43,1.3,7.3,2.64,1.92,5.47,4.08,8.53,4.83,8.14,1.99,16.45,3.27,23.41,4.6Z"/>
  <path class="cls-2" d="M1368.03,1400.71q-.54,8.35-3.56,9c.07-.69.23-1.29.17-1.87-.15-1.51-.4-3.01-.61-4.51-.65,1.29-1.34,2.56-1.95,3.87-.43.92-.76,1.89-1.13,2.84-.41-.07-.82-.14-1.23-.21.3-4.42.61-8.83.95-13.76,3.51-.4,7-.82,10.49-1.17.83-.08,1.7.12,2.55.19-.3,1.07-.58,2.14-.9,3.21-.34,1.15-1.21,2.43-.95,3.42.68,2.64,1.85,5.15,2.21,7.98-2.72-.99-5.66-1.46-4.11-5.45.38-.98-.95-2.64-1.49-3.98-.23-.09-.46-.19-.69-.28.09.24.17.48.26.72Z"/>
  <path class="cls-2" d="M1333.25,1411.07c-3.97-7.56-7.97-5.29-11.99.17-.22-.51-.45-1.01-.67-1.52,1.53-4.59,2.89-9.26,4.77-13.7.27-.65,4.23-.75,4.43-.26,1.83,4.48,3.2,9.14,4.71,13.75-.42.52-.84,1.04-1.26,1.56Z"/>
  <path class="cls-2" d="M1349.74,1394.54c2.71,1.11,4.9,2,6.99,2.86-1.71,1.02-3.56,2.12-5.41,3.22,1.37.93,2.74,1.87,4.07,2.77-1.08.83-2.49,1.9-3.89,2.98,1.83.72,3.66,1.43,5.49,2.15,0,.28-.01.56-.02.84h-13.4c-.06-.28-.12-.56-.18-.84.92-.28,1.88-.49,2.76-.87,1.06-.46,2.06-1.07,3.09-1.61-1.01-.57-2.01-1.15-3.04-1.7-.4-.22-.84-.36-1.32-.56,1.5-1.28,2.9-2.48,4.31-3.68-1.68-.78-3.37-1.56-5.39-2.5.28-.99.66-2.31,1.2-4.22,1.78,2.44,3.39,5.21,4.73,1.15Z"/>
  <path class="cls-2" d="M1304.67,1409.39v-10.44h8.03v6.61c-1.63.29-3.32.6-5.01.9,0,.41-.01.82-.02,1.24h9.99c0,.56,0,1.12,0,1.68h-13Z"/>
  <path class="cls-2" d="M1299.7,1398c.15.9.34,1.52.35,2.15.01,1.14-.08,2.28-.15,3.81h-11.75v-5.96h11.55Z"/>
  <path class="cls-2" d="M1314.79,1405.65c.27-2.8.51-5.21.84-8.63-3.17,0-5.9.12-8.61-.07-.86-.06-1.67-.98-2.5-1.5.97-.39,1.95-1.1,2.92-1.1,3.27.03,6.53.31,9.74.5,1.59,7.47,1,10.29-2.41,10.8Z"/>
  <path class="cls-2" d="M1300.82,1409.61h-15.25c2.33-1.82,3.63-2.84,4.51-3.52,4,.62,7.52,1.16,11.03,1.7-.1.61-.2,1.22-.3,1.83Z"/>
  <path class="cls-2" d="M1300.96,1395.55h-14.14c0-.39.01-.77.02-1.16h14.14c0,.39-.01.77-.02,1.16Z"/>
  <path class="cls-2" d="M1337.54,1409.71v-14.79c.37-.01.75-.02,1.12-.04v14.8c-.37,0-.75.01-1.12.02Z"/>
  <path class="cls-1" d="M942.2,1079.52c-1.35-.74-2.71-1.48-4.06-2.21-.1-1.53-.79-3.36-.2-4.56,9.19-18.77,15.67-38.49,19.84-58.88,2.25-11.01,3.26-22.31,4.21-33.53.17-2.04-2.67-4.33-4.12-6.5-1.54,1.73-3.18,3.39-4.58,5.24-.56.74-.61,1.88-.84,2.85-3.7,15.81-6.44,31.92-11.33,47.35-5,15.76-11.12,31.34-18.5,46.13-11.7,23.42-30.37,41.48-49.34,59.09-8.77,8.14-18.29,15.66-25.98,24.73-19.65,23.18-28.86,49.84-22.97,80.47,3.18,16.55,10.21,31.05,25.06,40.25,6.3,3.9,13.35,6.58,20.06,9.82.39,7.46-.56,9.11-7.56,11.97-6.57,2.69-13.34,2.57-20.05.61-3.95-1.15-7.77-2.75-11.64-4.14,3.67-5.35,2.88-7.86-3.16-9.85-1.1-.36-2.24-.7-3.38-.78-9.39-.65-16.24-5.61-21.28-13.09-2.95-4.37-4.96-9.37-7.77-13.85-.86-1.37-2.97-1.96-4.51-2.91-1.06,1.82-3.34,3.94-2.98,5.39,1.4,5.55,3.59,10.9,5.6,16.28.68,1.82,1.71,3.5,2.59,5.24-1.69,17.41-6.32,33.87-15.53,48.9-9.9,16.15-23.76,27.98-40.15,37.09-9.86,5.48-20.45,8.66-31.68,9.6-1.52.13-3.09-.44-4.64-.69.6-.55,1.12-1.24,1.81-1.62,21.35-11.61,37.15-28.75,49.45-49.42,7.75-13.02,13.19-26.81,14.33-42.07.25-3.32-.02-6.95-3.81-7.64-3.53-.65-4.35,2.58-5.02,5.54-1.25,5.48-2.12,11.19-4.33,16.29-11.69,26.95-28.23,50.11-53.9,65.54-9.84,5.92-20.21,10.68-32.29,9.83-3.45-.24-6.07,1.61-6.41,5.53-3.41-.59-6.82-1.14-10.22-1.76-9.66-1.78-11.69-5.27-8.74-15.02,10.93-4.11,21.09-9.38,30.04-17.12,20.61-17.83,34.3-39.53,38.62-66.69.27-1.71.2-3.92-.69-5.25-1.16-1.74-3.35-3.98-4.98-3.9-1.6.09-3.15,2.75-4.52,4.44-.45.55-.16,1.64-.44,2.41-3.78,10.42-6.66,21.3-11.61,31.14-8.52,16.94-22.64,28.88-38.82,38.33-3.9,2.28-8.44,3.47-12.68,5.16,1.09-1.08,1.98-2.53,3.28-3.17,22.28-10.99,33.98-29.53,37.71-53.45.53-3.38-.75-7.55-2.45-10.67-7.14-13.15-14.62-26.11-18.49-40.74-.33-1.26-1.09-2.41-1.65-3.6.55-16.54-2.76-32.66-5.69-48.78-.36-1.99-3.66-3.45-5.6-5.16-1.23,2.33-3.56,4.69-3.49,6.98.2,6.95,1.27,13.88,2.08,20.81,2.01,17.09.28,33.56-8.33,48.79-5.03,8.89-12.01,16.2-21.21,20.49-7.27,3.39-15.26,5.33-23.06,7.47-4.35,1.2-8.96,1.46-11.1,6.34-1.56-2.64-4.32-5.3-4.26-7.9.05-1.77,3.82-4.21,6.35-4.98,6.16-1.86,12.83-2.21,18.82-4.45,15.54-5.81,24.2-18.04,29.07-33.37.91-2.85,1.74-5.71,2.61-8.57,7.31.18,9.22-2.71,6.77-9.88-1.81-5.29-3.37-10.67-5.04-16.01.53-1.77,1.56-3.56,1.5-5.3-.93-24.63.46-48.99,6.06-73.13,5.21-22.44,12.43-44.14,22.97-64.55,9.6-18.59,20.04-36.76,30.68-54.78,7.17-12.13,15.34-23.66,23.07-35.45,2.44-4.03,4.89-8.07,7.33-12.1.53-.64,1.1-1.24,1.57-1.92,6.25-9.02,12.57-17.99,18.71-27.08,12.7-18.83,26.11-37.26,37.74-56.74,13.73-22.99,23.15-48.03,30.05-73.93,4.54-17.04,7.52-34.36,7.97-52.03.08-3.03.87-4.31,4.04-4.89,11.72-2.14,23.08-6.3,32.44-13.32,26.03-19.5,42.18-45.28,44.83-78.32,1.34-16.77-.9-33.14-8.21-48.5-8.57-18-22.91-28.05-42.75-29.83-6.18-.56-12.46-.09-18.69-.09.28-.5.57-.99.85-1.49-2.26-1.85-4.35-3.98-6.82-5.47-2.1-1.26-4.63-1.81-6.98-2.63-15.93-5.55-31.2-12.52-44.74-22.67-7.03-5.27-13.29-11.58-20.21-17.02-1.6-1.26-4.49-.88-6.79-1.26.29,2.46-.31,5.65,1.02,7.27,9.52,11.63,20.38,21.9,33.72,29.07,8.83,4.75,18.03,8.79,27.1,13.17-.29.26-.52.63-.76.64-17.27.48-34.55.93-51.82,1.39-2.17-11.34-4.86-22.61-6.28-34.05-.74-5.93-4.06-7.52-8.55-7.77-13.09-.74-24.02-6.33-34.09-14.17,2.61-1.25,6.47-1.85,7.56-3.91,1.72-3.25-.98-5.75-3.99-7.97-7.44-5.47-14.86-11.1-21.57-17.42-5.97-5.62-10.97-12.26-16.4-18.46-5.5-6.29-11.84-12.05-16.33-19-10.97-17.01-21.22-34.54-28.46-53.54-3.46-9.07-5.52-18.66-8.86-27.77-6.35-17.3-8.59-35.31-10.12-53.48-.25-3.02-1.42-5.24-4.63-5.45-3.42-.23-5.43,1.66-5.33,5.09.27,9.89-.41,19.98,1.37,29.6,2.74,14.79,7.23,29.25,10.93,43.87.44,1.73.56,3.53.83,5.31-.34,1.01-1.14,2.12-.96,3.02,2.71,13.45,5.11,26.98,8.5,40.26,2.9,11.38,6.97,22.47,10.52,33.69-9.42.75-18.91,1.09-28.24,2.46-3.29.48-4.33-.2-5.64-2.74-6.65-12.9-12.52-26.05-14.91-40.52-.57-3.44-1.8-7.1-6-6.59-4.16.51-4.52,4.34-4.3,7.83.75,11.9,4.02,23.17,8.76,34.05,1.96,4.5,3.92,8.99,5.85,13.41-2.05,1.3-3.7,2.34-5.35,3.39-4.03-1.99-8.05-3.99-12.08-5.98-4.97-10.12-10.74-19.94-14.73-30.43-6.09-16.04-9.37-32.83-10.92-50.02-1.59-17.68-1.93-35.36.53-52.84,2.14-15.18,5.55-30.24,9.5-45.07,2.5-9.41,7.19-18.21,10.45-27.45.71-2.03-.5-4.73-.83-7.12-2.4.5-4.9.76-7.16,1.62-1.05.4-1.89,1.89-2.41,3.07-3.95,8.78-8.63,17.35-11.48,26.49-4.28,13.73-7.26,27.87-10.79,41.84-1.54,5.13-3.09,10.25-4.63,15.38-.19,1.58-.38,3.17-.57,4.75-.06.34-.11.67-.17,1.01-.41,2.28-.83,4.56-1.23,6.85-7.44,41.99-4.55,83.01,11.3,122.86,3.67,9.23-.94,15.77-10.92,16.15-11.47.44-21.37-4.03-31.08-9.31-1.37-.75-2.87-1.26-4.31-1.87l.17.1c-.41-.38-.83-.77-1.24-1.15-1.25-2.11-2.42-4.28-3.78-6.32-12.56-18.88-17.2-40.07-17.97-62.3-.57-16.53.76-32.9,3.7-49.26,3.79-21.1,10.46-41.17,19.79-60.31,5.31-10.88,12.08-21.05,17.86-31.72.97-1.79,1.19-5.41.09-6.54-1.25-1.27-4.46-1.1-6.69-.75-1.4.22-2.75,1.78-3.81,3.01-18.95,21.89-27.78,48.89-37.97,75.2-1.43,1.54-3.39,2.85-4.18,4.67-3.17,7.23-6.08,14.58-8.88,21.97-7.26,19.13-13.1,38.69-16.05,58.97-1.91,13.09-2.94,26.31-4.36,39.47-3.48-.58-6.97-1.68-10.44-1.61-5.84.12-6.82-3.16-6.96-7.89-.6-19.85,1.67-39.44,5.55-58.84,1.69-8.45,4.07-16.76,6.06-25.15.83-3.47-.12-6.91-3.54-7.7-1.56-.36-4.66,2.18-5.72,4.13-1.96,3.6-3.14,7.68-4.28,11.66-6.12,21.46-10.84,43.18-11.24,65.62-.09,5.06-.01,10.12-.01,15.49h-17.04c-.28-8.37-1.33-16.67-.68-24.84,1.84-23.09,7.2-45.47,14.82-67.37,7.48-21.49,17.89-41.49,29.8-60.76,4.54-7.35,9.68-14.33,14.26-21.67.95-1.52,1.47-4.64.6-5.62-1.07-1.2-3.82-1.29-5.8-1.16-1.32.09-2.74,1.19-3.81,2.17-5.49,5.06-11.51,9.72-16.19,15.46-13.33,16.32-26.92,32.54-38.87,49.85-12.06,17.47-22.9,35.86-33.14,54.47-10.38,18.86-17.53,39.12-20.06,60.68-.76,6.51-2.27,14.07.21,19.49,2.44,5.33,1.92,9.92,2.11,14.94.35,9.3.73,18.6.89,27.9.02,1.28-.83,3.28-1.83,3.74-4.2,1.92-8.6,3.38-12.93,5.01-1.8-3.35-3.43-5.21-7.87-2.58-5.75,3.41-12.09,1.79-17.59-1.35-5.87-3.36-11.33-7.44-17.01-11.15-.76-.5-1.74-.65-2.62-.96-.18-2.33.46-5.21-.67-6.9-10.42-15.55-13.45-32.79-11.34-50.92,4.05-34.88,20.32-63.91,44.09-89.12,2.44-2.59,5.07-5.2,2.19-8.5-2.72-3.13-6.66-2.29-9.42.07-5.66,4.83-12,9.4-16.11,15.42-10.48,15.33-22.33,29.89-27.74,48.32-3.95,13.46-8.72,26.6-8.31,40.92.2,6.95-.15,13.92-.25,20.88-1.29-1.37-2.93-2.54-3.81-4.14-8.16-14.8-9.13-30.46-6.33-46.91,3.89-22.86,14.05-42.71,26.88-61.63,16.43-24.22,36.83-44.76,59.1-63.34,28.85-24.06,57.91-47.96,87.94-70.5,23.91-17.94,49.46-33.7,77.43-44.94,9.54-3.84,19.26-7.25,28.93-10.77.6-.22,1.47.29,2.21.46.85-.53,1.65-1.31,2.57-1.53,3.75-.88,6.15-2.73,5.76-6.97.41,1.04.82,2.09,1.42,3.62,21.64-5.98,43.4-12.57,65.05-5.71,2.07-2.21,3.27-4.52,5.11-5.26,8.43-3.4,17.06-6.32,25.57-9.53.93-.35,1.61-1.39,2.4-2.11.72,6.87,3.15,8.03,9.54,6.18,5.73-1.66,11.8-2.13,17.72-3.12,2.45.25,4.9.59,7.36.74,18.85,1.18,37.85,1.19,56.49,3.82,16.61,2.34,32.8,7.6,49.21,11.45,1.56.37,3.31-.06,4.97-.13,9.02,3.89,18.41,7.09,26.98,11.81,14.95,8.24,29.66,16.99,43.99,26.28,23.57,15.29,46.13,31.97,64.23,53.81,9.74,11.75,19.27,23.68,28.61,35.75,12.37,15.98,21.93,33.75,30.14,52.05,8.68,19.36,16.01,39.34,23.53,59.19,6.78,17.89,13.02,35.97,19.49,53.97-.19.8-.69,1.67-.51,2.38,5.56,22.39,11.26,44.73,16.75,67.14,2.09,8.51,3.71,17.13,5.55,25.71-7.65-.03-10.12,3.09-8.31,10.55.23.97.5,1.93.81,2.88,7.28,22.41,18.2,42.9,32.57,61.57,1.02,2.35,2,4.72,3.06,7.06,15.85,35.13,39.53,64.34,67.76,90.19,16.66,15.26,32.41,31.41,46.03,49.51.03,1.79.14,3.58.06,5.37-.25,5.21,1.3,6.93,6.51,6.96,1.14,0,2.29-.12,3.43-.18,1.73,3,3.37,6.06,5.21,9,14.99,23.88,25.85,49.57,30.95,77.25,3.12,16.92,4.05,34.26,5.63,51.44.77,8.38.38,16.87,1.2,25.24.95,9.7,2.65,19.33,4.02,28.98-.32.92-.57,1.86-.97,2.75-3.08,6.9-.82,10.36,6.75,10.28.91,9.58,5.79,17.34,11.29,24.84,1.31,1.78,2.2,3.88,3.28,5.83-.97-.72-2-1.37-2.89-2.17-2.65-2.42-5.6-5.12-9.12-2.43-3.5,2.68-2.66,6.28-.41,9.77,9.88,15.31,23.67,25.67,40.38,32.45,13.19,5.35,26.65,6.42,40.41,2.67,4.43-1.21,8.8-2.64,13.2-3.97-4.82,3.83-9.23,8.41-14.54,11.36-18.46,10.24-37.26,8.69-56.03.44-3.4-1.5-7.01-2.52-10.52-3.76-.57-1.16-1.16-2.31-1.71-3.48-3.25-6.88-7.15-13.29-14.56-16.33-1.85-.76-4.27-.1-6.44-.1.47,2.08.54,4.36,1.47,6.21,2.22,4.39,5.38,8.35,7.21,12.87,5.78,14.3,7.35,29.22,5.18,44.48-1.69,11.89-3.91,23.73-10.75,33.91-3.73,5.54-8.36,10.47-12.58,15.68-2.17-1.42-4.33-2.83-6.5-4.25,1.65-9.11,4.04-18.16,4.79-27.35,1.21-14.77.25-29.47-2.46-44.19-5.78-31.39-15.58-60.84-36.54-85.69-2.7-3.2-5.34-4.68-9.27-3.15-1.75,5.66,1.7,9.52,4.14,13.81,3.65,6.4,6.98,12.98,10.45,19.49.27,3.34.27,6.73.85,10.02,4.15,23.75,4.89,47.56,1.03,71.4-4.67,28.81-13.05,56.26-30.53,80.19-8.97,12.29-20.09,22.07-34.24,28.11-.55.23-.88.96-1.32,1.47-5.68-13.93-11.26-27.91-17.08-41.79-14.25-33.98-34.67-63.84-61.45-89.07-9.97-9.39-20.96-17.95-32.44-25.42-14.42-9.38-29.6-17.68-44.9-25.6-8.34-4.32-12.13-1.27-12.1,7.93ZM666.91,1181.31c.65,5.25,1.46,12.83,2.6,20.36.41,2.69,1.92,5.81,5.14,4.58,1.69-.64,2.55-3.84,3.47-6.01.33-.77-.39-1.93-.42-2.92-.31-9.1-1.21-18.24-.73-27.3.86-16.16,4.94-31.72,9.82-47.15,6.82-21.56,16.1-42.02,28.18-60.97,10.7-16.78,22.8-32.71,34.83-48.6,26.9-35.53,54.43-70.58,81.1-106.28,10.47-14.02,20.1-28.8,28.71-44.03,12.11-21.42,19.82-44.67,23.37-69.08,1.43-9.83,1.61-19.85,1.94-29.8.05-1.52-1.89-3.95-3.38-4.39-1.13-.33-3.25,1.61-4.43,2.97-.73.85-.65,2.51-.71,3.82-1.28,30.01-9.11,58.39-22.03,85.32-10.92,22.75-26.03,42.93-41.13,62.98-24.9,33.06-50.33,65.72-75.43,98.63-8.97,11.76-18.2,23.39-26.27,35.76-14.13,21.67-25.19,44.91-33.02,69.65-6.19,19.57-10.64,39.45-11.63,62.43ZM988.01,733.23c.62,2.31.88,3.98,1.51,5.5,6.63,15.98,13.16,32.04,22.74,46.55,5.76,8.74,11.73,17.39,18.15,25.64,16.63,21.37,37.24,38.77,57.78,56.13,16.26,13.75,32.33,27.66,46.05,44.03,10.36,12.35,19.89,25.22,26.22,40.26,1.87,4.44,4.74,8.58,7.81,12.31.95,1.16,4.68,1.41,6.04.48,1.42-.97,2.05-3.87,2.06-5.93.01-2.04-1.12-4.11-1.84-6.13-8.95-25.01-24.23-45.91-43.32-63.86-17.33-16.3-35.52-31.71-53.7-47.09-22.47-19-42.82-39.85-58.1-65.15-5.97-9.88-10.96-20.36-16.36-30.58-2.33-4.41-4.35-9-6.99-13.22-.85-1.35-3.25-2.46-4.86-2.36-1.19.08-2.23,2.31-3.2,3.41ZM781.78,1174.81c.35,4.2.68,9.82,1.31,15.42.45,4.05,2.97,6.54,7.06,6.17,4.54-.4,5.03-4.17,5.16-7.81.33-9.13.15-18.31,1-27.4,1.87-19.95,6.47-39.3,14.83-57.59,11.11-24.31,27.47-45.01,45.25-64.68,16.52-18.26,33.21-36.4,45.01-58.29,6.56-12.17,12.5-24.62,14.93-38.38.48-2.74.82-5.97-3.06-6.86-3.85-.88-4.76,1.96-5.64,4.8-4.4,14.22-10.97,27.41-18.59,40.16-12.15,20.34-28.98,36.81-44.66,54.17-17.24,19.08-33.21,38.93-44.25,62.33-11.43,24.22-17.14,49.84-18.35,77.96ZM702.69,1171.76c.62,16.87,2.59,33.13,9.07,48.5,4.37,10.38,9,20.65,13.69,30.9,1.74,3.8,5.3,5.97,8.96,3.88,3.65-2.08,2.12-6.12.9-9.46-.06-.16-.14-.3-.2-.46-4.45-10.92-9.29-21.7-13.26-32.79-5.52-15.46-7.44-31.72-7.07-47.97.26-11.35,2.41-22.73,4.47-33.95,3.57-19.46,10.02-38.08,21.18-54.47,7.62-11.19,16.95-21.21,25.34-31.89,1.14-1.45,1.25-3.7,1.83-5.58-2.11.02-4.25-.13-6.32.15-.85.11-1.7,1.05-2.33,1.79-9.3,10.81-19.75,20.86-27.6,32.64-19.88,29.83-27.81,63.51-28.67,98.71ZM1105.14,1069.05c-1.49-13.42-3.37-30.72-9.64-47.59-6.81-18.32-15.25-35.64-25.39-52.21-2.84-4.64-6.21-9.07-9.98-12.99-2.14-2.23-5.47-4.35-8.85-1.3-3.35,3.02-.93,5.81.67,8.42,2.33,3.81,4.88,7.49,7.38,11.2,14.46,21.5,24.1,45.04,29.39,70.36,5.56,26.6,3.35,52.23-9.8,76.48-.92,1.7-1.79,3.86-1.54,5.64.3,2.19,1.42,5.56,2.89,5.99,2.42.71,6.08.33,8-1.16,2.63-2.04,4.7-5.3,5.99-8.46,6.58-16.08,11.21-32.64,10.88-54.36ZM744.62,340.63c-4.61-.23-6.52,2.51-5.2,6.48,2.25,6.76,5.15,13.3,7.65,19.98,9.73,25.98,19.19,52.06,29.19,77.93,9.64,24.95,19.63,49.83,33.88,72.6,4.97,7.94,11.33,15.05,17.48,22.18,1.98,2.29,5.35,2.97,7.93,0,2.44-2.81.43-4.99-1.35-6.97-12.43-13.78-21.24-29.94-28.38-46.74-14.75-34.71-28.37-69.9-42.5-104.87-4.67-11.56-9.38-23.1-14.34-34.54-1.09-2.52-3.27-4.57-4.37-6.05ZM1033.51,1005.15c-.81-6.51-1.95-18.72-3.89-30.81-3.24-20.19-9.56-39.57-16.58-58.71-2.62-7.16-5.59-14.21-8.87-21.09-.79-1.67-3.45-2.45-5.25-3.63-.78,2.16-2.23,4.33-2.18,6.48.06,2.74,1.2,5.5,2.09,8.17,8.7,26.15,16.42,52.54,20.29,79.92,1.96,13.84,2.66,27.74.22,41.51-1.79,10.09-4.64,20-7.32,29.9-.89,3.29-.31,6.08,2.51,7.17,2.01.78,5.27.42,7.04-.79,1.98-1.35,3.35-4.07,4.25-6.47,5.57-14.78,7.28-30.22,7.68-51.66ZM823.71,556.84c1.19-.91,4.53-2.2,5.4-4.44,1.42-3.65-1.66-5.39-5.06-6.43-17.45-5.35-32.59-14.92-45.69-27.28-19.79-18.67-34.81-40.95-46.36-65.57-1.37-2.93-3.6-5.61-6.8-4.14-1.31.6-1.28,4.47-1.52,6.88-.11,1.06.55,2.24,1,3.31,6.77,16.1,13.96,31.98,24.99,45.75,11.99,14.98,24.65,29.3,41.2,39.53,9.54,5.9,19.63,10.48,32.85,12.38ZM492.93,443.88c.47,4.61.73,8.92,1.37,13.17,2.06,13.7,5.64,26.91,13.49,38.58,3.07,4.56,8.61,7.06,11.25,5.28,2.96-1.99,2.44-6.07-.05-11.88-3.97-9.26-8.23-18.58-10.57-28.3-2.42-10.02-2.77-20.54-3.89-30.86-.36-3.3-1.73-5.39-5.17-5.5-3.6-.11-4.88,2.1-5.13,5.39-.36,4.79-.88,9.57-1.3,14.11ZM1148.95,1162.57c-.98-1.2-2.57-4.68-4.08-4.65-2.13.05-4.41,2.49-6.19,4.34-.9.94-.74,2.84-1.24,4.24-2.97,8.25-5.21,16.89-9.21,24.61-4.63,8.93-10.83,17.05-16.38,25.51-2.05,3.12-2.95,6.85.47,8.76,2.09,1.17,6.67.74,8.37-.85,4.29-4.01,8.12-8.76,11.16-13.8,8.67-14.35,14.44-29.85,17.1-48.16ZM278.32,503.27c2.09,8.29,4.12,17.47,6.81,26.44,1.02,3.4,4.31,6.39,8.02,4.87,3.61-1.47,2.41-5.29,1.28-8.37-.28-.78-.42-1.61-.68-2.39-4.03-12.24-4.16-24.77-2.73-37.4.71-6.25,1.5-12.49,2.25-18.74.36-3.01-.55-5.88-3.75-5.83-1.8.03-3.66,2.41-5.27,3.96-.63.61-.8,1.82-.94,2.79-1.63,11.13-3.21,22.27-4.99,34.66ZM970.75,893.28c-1.15-6.56-2.18-13.26-3.52-19.9-1.67-8.28-3.34-16.58-5.56-24.72-.82-3.02-2.74-6.88-6.83-5.96-4.36.98-3.47,4.86-2.94,8.23,2.28,14.53,4.43,29.08,6.78,43.6.42,2.56,1.18,5.26,2.54,7.42,2.33,3.7,6.39,3.33,8.05-.71.97-2.36.99-5.12,1.48-7.97ZM967.89,942.3c-.76-4.15-1.16-8.83-2.61-13.16-.65-1.94-3.29-4.29-5.23-4.47-3.46-.33-3.61,2.77-3.67,5.66-.1,5.3-.85,10.59-.79,15.87.03,2.87.72,5.93,1.95,8.5.66,1.39,3.09,2.69,4.7,2.66,1.3-.03,3.29-1.9,3.69-3.32,1.01-3.63,1.3-7.47,1.97-11.75ZM959.95,821.71c-.14-5.11-4.22-9.78-7.43-9.16-1.5.29-3.62,2.02-3.84,3.37-.6,3.69,3.59,8.52,6.95,8.16,1.7-.18,3.25-1.75,4.32-2.37Z"/>
  <path class="cls-4" d="M310.53,554.58c4.33-1.63,8.74-3.09,12.93-5.01,1-.46,1.85-2.46,1.83-3.74-.16-9.3-.54-18.6-.89-27.9-.19-5.02.33-9.62-2.11-14.94-2.48-5.41-.98-12.98-.21-19.49,2.53-21.56,9.68-41.82,20.06-60.68,10.24-18.61,21.08-37.01,33.14-54.47,11.96-17.31,25.54-33.53,38.87-49.85,4.69-5.74,10.7-10.4,16.19-15.46,1.07-.98,2.49-2.09,3.81-2.17,1.98-.13,4.73-.04,5.8,1.16.87.98.35,4.1-.6,5.62-4.57,7.33-9.71,14.32-14.26,21.67-11.91,19.27-22.32,39.27-29.8,60.76-7.62,21.9-12.98,44.28-14.82,67.37-.65,8.17.4,16.47.68,24.84h17.04c0-5.37-.08-10.43.01-15.49.41-22.44,5.13-44.16,11.24-65.62,1.14-3.99,2.32-8.06,4.28-11.66,1.06-1.95,4.16-4.49,5.72-4.13,3.42.79,4.36,4.23,3.54,7.7-2,8.39-4.37,16.7-6.06,25.15-3.89,19.41-6.15,38.99-5.55,58.84.14,4.72,1.11,8.01,6.96,7.89,3.47-.07,6.96,1.03,10.44,1.61.85.63,1.63,1.39,2.56,1.86,3.51,1.78,7.42,3.02,10.46,5.38,1.62,1.26,1.76,4.41,2.57,6.71-2.09.71-4.16,1.9-6.29,2-2.21.11-4.47-.82-6.71-1.29-4.93-1.24-9.86-2.47-15.03-3.77.79,4.6,1.43,8.29,2.07,11.98-4.28,4.28-7.4,4.01-13.07-1.14-1.25-3.39-2.42-6.81-3.79-10.16-.39-.96-1.3-2.38-2.03-2.42-4.65-.22-9.31-.11-14.9-.11,1.58,2.58,2.58,4.2,3.57,5.83-.59,2.26-.7,6.1-1.88,6.46-2.56.78-6.31.74-8.38-.69-3.1-2.14-5.16-5.77-8.09-9.27-4.49,1.87-9.8,3.75-14.79,6.27-3.4,1.72-6.31,2.48-8.7-1-2.52-3.66-.34-6.65,2.52-8.48,4.42-2.85,9.13-5.42,14.01-7.34,3.56-1.4,4.41-2.85,4.19-6.81-.64-11.54-1.49-23.24-.28-34.67,1.95-18.45,6.9-36.39,13.02-53.95.46-1.33.3-2.88.42-4.33-10.44,13.84-18.53,28.49-24.83,44.18-8.29,20.62-13.88,41.91-15.17,64.07-.91,15.65-.41,31.39-.6,47.08-.03,2.6.75,3.6,3.55,3.03,16-3.26,32.14-4.64,48.41-2.74,16.25,1.9,32.66,3.17,48.64,6.46,18.12,3.73,31.02,14.44,35.24,33.51.52,2.33.88,4.7,1.34,7.24,18.46-10.48,36.4-8.49,54.28.84.43-.95.96-1.66,1.08-2.43,3.34-21.3,16.76-32.88,36.6-38.73,25.54-7.54,51.68-6.7,77.69-5.15,18.62,1.11,37.3,3.15,55.19,9.43,15.11,5.3,26.94,13.91,32.49,30.46,8.22-.79,16.72-1.6,25.21-2.41,17.27-.45,34.55-.91,51.82-1.39.24,0,.46-.38.76-.64-9.06-4.37-18.27-8.42-27.1-13.17-13.33-7.17-24.2-17.44-33.72-29.07-1.32-1.62-.73-4.81-1.02-7.27,2.3.38,5.19,0,6.79,1.26,6.92,5.44,13.17,11.75,20.21,17.02,13.54,10.15,28.81,17.12,44.74,22.67,2.36.82,4.89,1.37,6.98,2.63,2.48,1.49,4.57,3.62,6.82,5.47-.28.5-.57.99-.85,1.49,6.23,0,12.51-.47,18.69.09,19.84,1.78,34.18,11.83,42.75,29.83,7.31,15.36,9.56,31.74,8.21,48.5-2.65,33.04-18.8,58.82-44.83,78.32-9.36,7.01-20.71,11.17-32.44,13.32-3.17.58-3.96,1.86-4.04,4.89-.45,17.67-3.44,34.99-7.97,52.03-6.9,25.9-16.32,50.94-30.05,73.93-11.64,19.48-25.04,37.9-37.74,56.74-6.13,9.1-12.46,18.07-18.71,27.08-.47.68-1.04,1.28-1.57,1.92-2.8,3.45-5.6,6.89-8.4,10.34-7.03,9.38-14.21,18.65-21.05,28.17-11.49,16.01-23.31,31.83-34.01,48.37-18.95,29.28-32.05,60.99-36.23,95.9-2.57,21.47,1.65,42.17,8.08,62.53,1.67,5.34,3.22,10.72,5.04,16.01,2.45,7.17.54,10.07-6.77,9.88-8.38-9.71-11.6-21.87-15.27-33.63-3.79-12.14-6.38-24.57-6.52-37.54-.19-17.55,2.65-34.49,7.25-51.32,7.29-26.65,19.5-50.97,34.64-73.87,10.04-15.18,20.7-29.96,31.05-44.94,1.69-2.44,3.19-5.01,4.77-7.51,4.18-5.03,8.36-10.06,12.54-15.08,1.36-2.03,2.71-4.06,4.07-6.09.29-.31.58-.63.86-.94.54-.91,1.08-1.83,1.62-2.74.41-.47.82-.94,1.23-1.42l.1-.09c.99-.72,2.23-1.24,2.93-2.18,7.37-9.83,14.75-19.66,21.93-29.63,8.43-11.71,17.23-23.22,24.86-35.44,15.54-24.87,28.3-51.12,37.17-79.2,5.53-17.5,9.7-35.25,11.45-53.49,1.25-13,1.73-26.07,2.58-39.11,1.51-23.33-.81-46.45-4.18-69.45-1.44-9.81-4.28-19.4-6.13-29.16-.41-2.17.36-4.75,1.27-6.86.21-.5,3.15.17,4.83.3.46.51.92,1.02,1.39,1.54,3.58,9.07,7.15,18.14,10.75,27.27.18-.17.9-.75,1.51-1.43,6.13-6.84,12.71-13.2,21.39-16.66,2.99-1.19,6.47-1.74,9.67-1.56,1.44.08,3.47,2.51,3.82,4.18.22,1.05-1.94,3.05-3.44,3.91-2.12,1.21-4.7,1.56-6.93,2.61-9.96,4.69-16.77,12.9-23.12,21.45-1.16,1.56-1.03,4.37-.86,6.56,1.05,13.6,2.57,27.17,3.36,40.79.53,9.17.1,18.4.1,29.04,8.07-3.66,16.26-6.02,22.9-10.62,21.35-14.78,35.82-34.41,40.5-60.69,3.01-16.9,1.83-32.95-5.67-48.52-6.33-13.14-19.35-21.61-32.56-20.14-13.12,1.46-23.78,7.72-31.97,18.08-2.43,3.07-4.66,6.25-9.35,4.44-.26-.28-.51-.57-.77-.85-4.69-8.09,1.7-13.36,5.98-19.94-17.81.82-34.58,1.59-51.34,2.36-8.4.41-16.8.81-25.22,1.22-.47,6.24-.98,12.3-1.38,18.37-1.21,18.64-5.27,36.58-13.29,53.51-7.84,16.56-21.31,26.01-38.66,30.8-19.77,5.46-40.01,6.17-60.14,4.62-14.08-1.09-28.16-4.1-41.87-7.67-23.52-6.13-38.29-21.91-44.15-45.31-3.2-12.77-4.58-26-7.14-38.94-.56-2.83-2.07-6.06-4.19-7.91-13.79-12.08-32.44-12.44-44.76-1.62-3.19,2.81-3.32,6.17-3.97,9.74-2.27,12.48-3.95,25.14-7.28,37.34-6.77,24.81-23.62,38.17-49.06,41.97-19.13,2.86-37.74.87-56.39-2.93-2.9-.59-5.87-.87-9.48-1.39,0,3.81-.14,7.51.02,11.19,1.52,34,8.98,66.51,27.33,95.49,20.61,32.54,47.87,58.44,82.46,75.96,19.48,9.87,40.3,13.94,62.21,14.62,31.6.98,61.61-5.82,90.75-16.73,14.17-5.3,27.41-13.05,41.11-19.63,3.26-1.57,6.68-4.79,10.17-.66,2.4,2.84.8,6.79-4.19,10.24-20.21,13.94-41.79,25.16-65.28,32.51-9.93,3.11-19.93,5.99-29.77,8.94,3.18,12.63,6.8,25.69,9.71,38.9,3.2,14.52,6.21,29.12,8.45,43.82,1.95,12.73,3.62,25.64,3.77,38.48.19,15.97-2.19,31.8-8.84,46.63-2.14,4.78-6.41,7.38-9.63,6.1-4.34-1.73-5.54-6.22-3.54-11.83,4.55-12.78,6.37-26.02,6.34-39.4-10.02,4.53-20.1,8.9-29.99,13.62-10.57,5.05-21.18,10.07-31.4,15.78-14.15,7.9-28.36,15.81-41.77,24.87-13.96,9.43-27.62,19.51-40.29,30.6-17.66,15.47-32.23,33.78-42.98,54.79-9.11,17.82-18.01,35.77-26.22,54.01-4.26,9.46-6.93,19.64-10.17,29.55-2.28,6.95-5.63,9.61-10.84,8.22-5.05-1.35-7.92-6.62-6.58-12.73,4.43-20.23,12.82-38.98,22.12-57.31,6.74-13.29,14.17-26.23,21.28-39.32,1.71-2.77,3.42-5.54,5.13-8.32,1.02-1.51,1.91-3.12,3.08-4.5,13.64-16.05,27.05-32.15,43.99-45.19,19.4-14.94,39.14-29.14,60.88-40.46,2.96-1.54,5.71-3.51,9-5.55-2.25-.79-3.72-1.16-5.05-1.8-19.99-9.67-34.54-25.14-45.51-44.01-9.64-16.59-16.47-34.38-20.42-53.23-3.72-17.74-6.43-35.57-5.32-53.79.21-3.41,1.03-6.82,4.98-6.84,3.92-.02,4.81,3.53,5.22,6.79,1.65,12.99,2.84,26.05,4.94,38.96,4.33,26.59,13.14,51.49,29.5,73.28,10.42,13.87,23.85,23.79,39.56,31.11,4.24,1.98,6.96,1.82,10.79-.25,8.89-4.82,18.01-9.24,27.14-13.62,9.21-4.42,18.55-8.6,27.99-12.96-1.33-9.29-2.4-18.51-4.02-27.63-1.77-9.96-3.77-19.89-6.18-29.72-3.47-14.17-7.33-28.24-11.23-42.3-.31-1.1-2.11-2.34-3.36-2.51-2.23-.32-4.59.02-6.87.26-19.26,2.08-38.32.29-56.8-4.91-23.23-6.54-43.73-18.63-62.55-33.74-16.65-13.37-31.29-28.47-44.29-45.46-18.6-24.3-29.65-51.65-35.67-81.36-3.39-16.73-3.93-33.65-3.89-50.62,0-2.86-1.05-4.24-3.48-5.76-5.44-3.42-10.44-7.52-15.69-11.24-1.37-.97-2.98-1.61-4.48-2.4-2.36-4.43-4.87-8.78-7.07-13.29-6.51-13.37-9.81-27.72-12.34-42.26-1.24-7.15-2.69-14.31-3.17-21.52-1.06-16.08.68-31.29,16.36-40.77ZM718.39,609.66c-.15-2.83-.27-4.98-.37-7.14-.7-14.81-6.89-25.76-21.59-30.74-3.13-1.06-6.21-2.31-9.38-3.23-23.92-6.92-48.55-7.97-73.13-7.41-12.94.29-25.97,2.76-38.66,5.58-11.17,2.49-21.28,8.17-24.27,20.37-2.15,8.76-3.48,18.01-3.22,26.98.31,10.94,2.53,21.84,4.19,32.71,2.58,16.97,11.48,29.22,27.22,36.59,11.47,5.37,23.68,7.21,36,8.97,21.18,3.02,42.13,2.65,62.97-2.67,12.29-3.14,21.38-9.66,27.33-21.11,9.75-18.76,12.27-38.93,12.91-58.91ZM355.95,676.37c5.56,1.33,12.2,3.32,18.99,4.47,15.14,2.57,30.41,3.94,45.6.61,9.71-2.13,19.7-4.67,25.12-14.15,3.82-6.67,7.35-13.73,9.54-21.06,4.42-14.82,5.86-30.22,5.28-45.63-.34-9.18-1.17-18.66-8.35-25.84-7.84-7.84-18.12-10.47-28.42-11.84-14.19-1.89-28.55-3.19-42.85-3.41-12.77-.2-25.58,1.42-39.41,2.3,3.79,19.96,8.22,38.36,10.58,57.02,2.37,18.82,2.68,37.91,3.93,57.54ZM311.72,597.31c2.06,10.55,3.6,20.36,5.95,29.98,3.01,12.28,6.45,24.53,14.96,34.44,2.03,2.36,4.68,4.19,7.12,6.33.83-1.18,1.15-1.42,1.17-1.69,1.75-22.62-1.69-44.7-6.95-66.58-.23-.97-1.64-2.34-2.54-2.37-6.28-.21-12.56-.11-19.71-.11ZM312.99,581.15h17.62c-.88-4.82-1.69-9.24-2.56-14.01-7.59,2.23-12.88,5.82-15.06,14.01Z"/>
  <path class="cls-1" d="M316.75,672.42c1.5.79,3.11,1.42,4.48,2.4,5.25,3.73,10.25,7.82,15.69,11.24,2.43,1.53,3.48,2.9,3.48,5.76-.04,16.97.5,33.89,3.89,50.62,6.02,29.71,17.06,57.05,35.67,81.36,13,16.98,27.65,32.09,44.29,45.46,18.82,15.11,39.32,27.2,62.55,33.74,18.48,5.2,37.54,6.99,56.8,4.91,2.28-.25,4.64-.58,6.87-.26,1.25.18,3.06,1.41,3.36,2.51,3.9,14.06,7.76,28.13,11.23,42.3,2.4,9.82,4.41,19.76,6.18,29.72,1.62,9.12,2.69,18.34,4.02,27.63-9.45,4.36-18.78,8.54-27.99,12.96-9.13,4.38-18.25,8.8-27.14,13.62-3.83,2.08-6.54,2.23-10.79.25-15.71-7.32-29.14-17.24-39.56-31.11-16.37-21.78-25.17-46.69-29.5-73.28-2.11-12.91-3.3-25.97-4.94-38.96-.41-3.26-1.3-6.81-5.22-6.79-3.95.02-4.77,3.44-4.98,6.84-1.11,18.22,1.6,36.05,5.32,53.79,3.96,18.85,10.78,36.64,20.42,53.23,10.97,18.88,25.52,34.34,45.51,44.01,1.33.64,2.8,1.01,5.05,1.8-3.29,2.04-6.04,4-9,5.55-21.74,11.33-41.48,25.52-60.88,40.46-16.94,13.05-30.35,29.14-43.99,45.19-1.17,1.38-2.06,2.99-3.08,4.5-1.64-.45-3.26-1.16-4.93-1.28-2.91-.21-5.85-.07-8.77-.07-9.71-3.41-17.35-9.66-23.89-17.42-10.86-12.87-20.54-26.54-26.56-42.37-2.09-5.5-2.72-11.55-3.94-17.37-.47-2.26-.73-4.57-1.09-6.85,2.57.41,5.14.82,7.45,1.18.88,5.65,1.61,10.9,2.53,16.12,3.92,22.26,14.66,40.46,33.06,53.67,5.09,3.65,10.35,8.39,17.5,7.06,2.26-.42,4.25-2.27,6.37-3.47-1.32-2.23-2.1-5.27-4.04-6.55-10.62-7-20.52-14.61-27.65-25.44-10.88-16.54-14.21-35.17-13-54.2,1.26-19.81,4.8-39.49,7.46-59.2,2.61-19.39,5.99-38.69,7.9-58.14,2.02-20.59.2-41.22-2.9-61.64-1.44-9.49-3.75-18.86-6.06-28.19-.4-1.61-2.79-2.72-4.27-4.06-1.08,2.02-3.23,4.12-3.07,6.04.88,10.91,2.61,21.76,3.48,32.68.98,12.2,2.12,24.46,1.84,36.66-.49,21.77-4.55,43.14-8.66,64.5-4.38,22.81-8.09,45.74-12.17,69.02-1.18-.29-3.07-.76-4.97-1.23.02-4.33-.2-8.68.1-12.98,1.71-24.19,4.07-48.34,5.14-72.56.62-14.05-.33-28.22-1.39-42.27-1.14-15.22-3.33-30.35-4.84-45.54-.97-9.8-1.52-19.64-2.36-30.84-1.24,2.85-1.94,4.48-2.65,6.09-5.15,11.72-10.3,23.44-15.46,35.15-7.7,17.49-15.41,34.97-23.1,52.46-2.02,4.6-3.95,9.23-5.93,13.85.23-2.96,0-6.03.75-8.86,6.18-23.61,12.36-47.22,18.89-70.73,6.33-22.8,13.36-45.41,19.5-68.27,3.18-11.85,5.62-23.96,7.41-36.09,2.25-15.26,3.5-30.67,5.18-46.01,1.44-13.14.58-26.15-2.14-39.06-.02-.42-.04-.84-.06-1.26,0,0,.11.18.11.18.49-.72.97-1.44,1.46-2.15ZM535.18,1018.01c2.54-1.71,5.57-2.66,6.04-4.33.59-2.08-.32-5.25-1.72-7.05-1.76-2.26-4.57-3.81-7.14-5.31-25.08-14.66-37.6-38.04-45-64.91-2.02-7.33-3.23-14.89-5.16-22.25-.73-2.77-1.85-6.01-5.82-5.69-3.71.3-4.19,3.34-4.62,6.16-.28,1.79-.57,3.73-.17,5.44,2.39,10.15,4.33,20.47,7.65,30.32,7.2,21.32,17.18,41.15,35.64,55.18,6.12,4.65,13.15,8.11,20.3,12.43ZM379.34,1015.2c.29,18.6,2.07,33.37,8.32,47.19,4.77,10.53,10.73,20.28,21.09,26.46,3.14,1.87,6.27,2.83,8.99-.25,2.88-3.27.94-6.14-1.43-8.76-2.45-2.71-5.11-5.26-7.32-8.16-13.03-17.13-17.69-36.8-17.16-57.94.15-5.95.83-11.88,1.27-17.82.3-3.98-1.84-6.58-5.42-7.19-3.64-.61-4.76,2.55-5.22,5.43-1.32,8.16-2.44,16.35-3.13,21.03ZM563.27,990.67c-1.47-1.6-3.46-4.68-6.25-6.65-12.24-8.67-22.52-19.23-30.18-32.03-5.62-9.39-9.99-19.51-15.36-29.06-1.21-2.16-4.26-3.28-6.46-4.88-.96,2.78-2,5.53-2.8,8.35-.19.66.45,1.56.71,2.34,6.61,19.94,16.12,38.27,31.39,52.98,5.91,5.7,12.78,10.5,19.59,15.15,4.54,3.1,9.17.6,9.36-6.2ZM540.81,928.96c.57,11.44,13.59,29.5,21.16,30.18-6.89-9.82-13.72-19.56-21.16-30.18Z"/>
  <path class="cls-4" d="M645.39,182.51c-5.92.99-11.99,1.47-17.72,3.12-6.39,1.85-8.82.68-9.54-6.18,1.26-5.61,6.32-6.63,10.54-7.95,14.17-4.45,28.81-6.84,43.62-6.74,9.74.06,19.53,1.28,29.18,2.76,12.11,1.86,24.2,4.06,36.11,6.94,31.35,7.58,60.56,20.45,87.61,37.88,17.28,11.14,34.26,22.84,50.62,35.28,23.16,17.6,42.02,39.42,59.19,62.87,16.77,22.91,30.47,47.48,41.53,73.52,5.9,13.89,10.77,28.22,16.09,42.36,4.32,11.48,8.64,22.97,12.93,34.46,6.31,16.92,12.56,33.87,18.89,50.79,13.94,37.24,31.68,72.41,57.68,102.82,10.88,12.73,22.66,24.69,34.07,36.97,15.9,17.1,32.61,33.6,44.17,54.16,9.59,17.05,15.38,35.54,19.08,54.72.37,1.92,1.63,4.06,3.13,5.3,31.31,25.89,53.89,57.74,66.95,96.35,5.55,16.42,10.54,33.05,11.2,50.32.96,25.15-4.04,49.57-13.54,72.87-4.94,12.11-10.88,23.81-16.53,35.63-.83,1.73-2.49,3.07-3.76,4.59-7.58.08-9.84-3.38-6.75-10.28.39-.88.65-1.83.97-2.75,4.41-10.87,8.99-21.68,13.18-32.63,9.8-25.59,14.87-51.86,10.34-79.32-2.93-17.75-8.32-34.78-15.59-51.21-7.09-16.01-16.67-30.54-27.53-44.14-5.8-7.26-12.78-13.59-19.69-20.82-.86,9.25-1.56,17.43-2.39,25.59-.43,4.17-1.13,8.29-5.32,10.62-1.15.06-2.29.19-3.43.18-5.21-.03-6.76-1.74-6.51-6.96.08-1.78-.03-3.58-.06-5.37,2.19-10.94,2.39-21.93,1.7-33.07-.32-5.19-2.65-8.1-6.36-10.9-9.64-7.29-19.24-14.63-28.73-22.11-13.5-10.65-27.67-20.61-40.11-32.39-15.69-14.87-30.91-30.39-43.35-48.28-14.37-18.67-25.29-39.16-32.57-61.57-.31-.95-.57-1.91-.81-2.88-1.8-7.46.66-10.58,8.32-10.55,2.22,4.98,4.5,9.93,6.65,14.94,10.55,24.55,24.14,47.19,42.31,66.9,8.89,9.64,17.63,19.49,27.27,28.34,10.62,9.73,22.13,18.51,33.4,27.53,9.17,7.34,18.54,14.43,28.78,22.38-.56-2.54-.63-3.88-1.15-5.03-5.3-11.77-9.52-24.21-16.27-35.09-12.73-20.5-30.73-36.8-46.78-54.64-8.62-9.58-18.26-18.34-26.02-28.55-10.81-14.22-20.43-29.37-30.32-44.27-12.67-19.09-20.11-40.67-28.84-61.62-3.62-8.7-7.21-17.41-10.82-26.11-6.48-18-12.72-36.09-19.49-53.97-7.52-19.86-14.85-39.84-23.53-59.19-8.21-18.31-17.77-36.07-30.14-52.05-9.34-12.07-18.87-24-28.61-35.75-18.1-21.84-40.66-38.51-64.23-53.81-14.32-9.29-29.03-18.04-43.99-26.28-8.56-4.72-17.96-7.92-26.98-11.81-5.3-2.04-10.47-4.6-15.93-6.03-12.95-3.4-26-6.51-39.1-9.29-17.35-3.68-34.95-4.84-52.64-3.52-3.5.26-6.9,1.93-10.35,2.95Z"/>
  <path class="cls-4" d="M316.12,1041.32c1.89.47,3.78.94,4.97,1.23,4.07-23.28,7.78-46.22,12.17-69.02,4.1-21.36,8.17-42.73,8.66-64.5.27-12.2-.86-24.46-1.84-36.66-.88-10.92-2.6-21.76-3.48-32.68-.16-1.92,1.99-4.02,3.07-6.04,1.47,1.34,3.87,2.45,4.27,4.06,2.31,9.33,4.62,18.7,6.06,28.19,3.09,20.42,4.92,41.05,2.9,61.64-1.91,19.45-5.28,38.76-7.9,58.14-2.66,19.72-6.2,39.39-7.46,59.2-1.21,19.03,2.12,37.66,13,54.2,7.12,10.83,17.03,18.43,27.65,25.44,1.94,1.28,2.73,4.32,4.04,6.55-2.11,1.2-4.11,3.05-6.37,3.47-7.15,1.33-12.41-3.41-17.5-7.06-18.41-13.21-29.15-31.41-33.06-53.67-.92-5.22-1.65-10.47-2.53-16.12-2.3-.37-4.88-.77-7.45-1.18-10.33-1.51-19.53-5.75-28.16-11.46-15.76-10.42-26.23-24.8-32.87-42.39-6.48-17.18-7.39-34.7-5.56-52.74,3.02-29.77,13.11-57.66,21.82-85.97,8.42-27.36,16.96-54.74,23.9-82.49,6.42-25.67,12.24-51.62,12.89-78.32.18-7.42.45-14.84.85-22.25.32-6.03,1.12-6.63,7.13-6.31,0,0-.11-.18-.11-.18.02.42.04.84.06,1.26,2.71,12.91,3.58,25.92,2.14,39.06-1.68,15.34-2.93,30.75-5.18,46.01-1.79,12.14-4.23,24.24-7.41,36.09-6.13,22.85-13.17,45.46-19.5,68.27-6.53,23.51-12.71,47.12-18.89,70.73-.74,2.83-.52,5.9-.75,8.86-.22.93-.45,1.86-.67,2.79-.18.99-.36,1.99-.54,2.98-1.43,12.07-1.66,24.05,1.03,36.07,5.21,23.31,18.16,40.56,39.46,51.34,3.44,1.74,7.45,2.34,11.2,3.47Z"/>
  <path class="cls-1" d="M762.11,601.71c16.76-.77,33.53-1.54,51.34-2.36-4.29,6.58-10.68,11.85-5.98,19.94-.24.21-.48.41-.72.62-1.68-.13-4.62-.8-4.83-.3-.9,2.11-1.68,4.69-1.27,6.86,1.85,9.76,4.69,19.35,6.13,29.16,3.37,23.01,5.69,46.13,4.18,69.45-.85,13.04-1.33,26.11-2.58,39.11-1.76,18.24-5.92,35.99-11.45,53.49-8.88,28.08-21.64,54.33-37.17,79.2-7.64,12.22-16.43,23.73-24.86,35.44-7.18,9.97-14.56,19.8-21.93,29.63-.7.93-1.94,1.46-2.93,2.18,3.45-6.71,6.71-13.53,10.38-20.12,10.98-19.73,20.5-40.11,27.74-61.52,5.07,5.81,9.59,5.4,11.95-1.87,3.74-11.49,7.97-23.08,9.6-34.95,3.97-28.94,6.88-58.03,9.57-87.12,1.36-14.72,1.48-29.56,1.76-44.35.04-2.1-2.22-4.25-3.41-6.37-1.7,1.94-4.31,3.64-4.91,5.87-1.12,4.11-1.1,8.54-1.48,12.85-.9,10.1-1.43,20.29-7.83,28.89.72-11.91,1.74-23.8,2.1-35.72.52-17.17,1.25-34.38.62-51.53-.79-21.53-2.87-43.02-4.37-64.53-.04-.64.23-1.3.35-1.94Z"/>
  <path class="cls-4" d="M518.57,198.44c.39,4.24-2.01,6.09-5.76,6.97-.93.22-1.72,1-2.57,1.53-12.47,2.82-25.31,4.55-37.32,8.72-15.92,5.53-31.68,11.99-46.59,19.81-17.56,9.21-34.79,19.37-50.95,30.84-19.01,13.5-36.89,28.62-54.9,43.48-9.04,7.46-17.31,15.88-25.87,23.91-16,15.01-30.21,31.56-42.78,49.56-13.58,19.44-24.71,40.08-31.19,62.98-5.97,21.09-3.43,41.7,3.91,62.05.84,2.33.52,5.58-.49,7.86-.52,1.19-3.74,1.69-5.68,1.59-1.4-.07-3.27-1.37-3.96-2.64-3.06-5.61-6.33-11.21-8.47-17.19-4.01-11.22-4.86-23.07-3.73-34.81,1.36-14.06,4.91-27.64,10.34-40.83,11.27-27.36,27.51-51.53,47.17-73.29,12.62-13.97,26.55-26.78,40.3-39.68,12.31-11.55,24.74-23.05,37.9-33.59,13.53-10.84,27.87-20.71,42.13-30.61,8.42-5.85,17.08-11.48,26.15-16.22,13.33-6.96,27.12-13.04,40.7-19.52,1.29-.62,2.72-1.22,3.69-2.22,13.68-14.12,31.05-22.01,49.31-27.52,13.74-4.15,28.05-6.89,42.3-8.78,14.74-1.96,29.7-1.59,44.37,1.84.96.22,1.86.71,2.77,1.1,2.83,1.21,5.93,2.5,4.82,6.38-1.11,3.88-4.22,3.22-7.38,2.77-16.93-2.42-33.77-.93-50.46,2.03-10.44,1.85-20.73,4.53-31.08,6.87-1.57.35-3.1.88-4.6,2.5,3.92.26,7.89.2,11.72.91,2.19.41,4.14,2.09,6.2,3.2Z"/>
  <path class="cls-4" d="M869.45,1289.74c-6.71-3.24-13.76-5.92-20.06-9.82-14.85-9.2-21.88-23.71-25.06-40.25-5.89-30.63,3.32-57.29,22.97-80.47,7.69-9.07,17.21-16.59,25.98-24.73,18.97-17.6,37.64-35.66,49.34-59.09,7.39-14.78,13.51-30.37,18.5-46.13,4.89-15.43,7.64-31.54,11.33-47.35.23-.97.28-2.11.84-2.85,1.39-1.84,3.04-3.5,4.58-5.24,1.45,2.17,4.29,4.46,4.12,6.5-.95,11.22-1.96,22.52-4.21,33.53-4.17,20.39-10.65,40.11-19.84,58.88-.59,1.2.1,3.03.2,4.56-1.6,1.73-3.68,3.2-4.72,5.22-11.35,21.81-27.88,39.31-45.86,55.65-2.2,2-4.21,4.21-6.3,6.33-.3.33-.59.67-.89,1,0,0-.07.07-.06.07-5.56,4.69-11.47,9.04-16.61,14.15-24.92,24.74-34.14,53.88-23.27,88.04,4.09,12.84,13.56,20.81,26.05,25.34.31.09.57.26.78.5.38.24.75.47,1.13.71,3.08.49,6.14,1.26,9.23,1.41,4.7.22,7.7,2.29,7.75,5.9.05,4-3.28,7.56-7.46,7.84-2.81.19-5.64.2-8.45.3Z"/>
  <path class="cls-4" d="M942.2,1079.52c-.03-9.21,3.76-12.25,12.1-7.93,15.29,7.92,30.48,16.22,44.9,25.6,11.48,7.47,22.47,16.03,32.44,25.42,26.78,25.23,47.21,55.09,61.45,89.07,5.82,13.88,11.39,27.86,17.08,41.79,2.53,10.28,5.07,20.55,7.6,30.83.12.48.21.98.27,1.47.76,6.04-1.45,10.46-5.65,11.29-5.04,1-9.09-1.91-10.53-8.17-4.6-19.88-10.54-39.36-18.76-58.01-6.93-15.72-13.87-31.59-22.6-46.33-10.87-18.35-22.81-36.37-39.29-50.31-13.12-11.1-27.06-21.32-41.24-31.04-10.5-7.19-22.01-12.89-32.99-19.39-1.8-1.07-3.19-2.85-4.77-4.3Z"/>
  <path class="cls-1" d="M702.16,975.41c-4.18,5.03-8.36,10.06-12.54,15.08-.03-.66.19-1.53-.14-1.95-9.06-11.26-7.01-24.42-5.67-37.07,2.48-23.42,10.76-45.1,21.78-65.8,13.35-25.06,26.63-50.15,39.81-75.3,1.1-2.09,1.25-4.68,1.84-7.04,6.28-8.03,12.56-16.07,18.84-24.1l.95-.04c-1.68,11.5-3.35,23-5.03,34.51-1.13,1.3-2.57,2.44-3.34,3.93-6.5,12.54-12.41,25.41-19.41,37.66-10.32,18.04-21,35.83-27.7,55.68-6.57,19.48-11.24,39.27-11.2,59.94,0,1.5,1.18,3,1.8,4.49Z"/>
  <path class="cls-4" d="M762.02,813.71c1.68-11.5,3.35-23,5.03-34.51l-.95.04c-6.28,8.03-12.56,16.07-18.84,24.1-3.66,2.83-7.11,6.03-11.09,8.3-1.64.93-4.42-.15-6.68-.32.25-2.07-.23-4.69.86-6.13,5.7-7.54,12.38-14.39,17.58-22.23,5.8-8.75,10.38-18.31,15.5-27.52,6.4-8.61,6.93-18.8,7.83-28.9.38-4.3.36-8.73,1.48-12.85.61-2.24,3.21-3.93,4.91-5.87,1.19,2.13,3.45,4.27,3.41,6.37-.28,14.79-.39,29.64-1.76,44.35-2.69,29.09-5.6,58.18-9.57,87.12-1.63,11.87-5.86,23.46-9.6,34.95-2.36,7.27-6.88,7.68-11.95,1.87,1.33-5.01,2.93-9.96,3.93-15.03,3.33-16.93,6.44-33.91,9.64-50.87.1-.43.19-.86.29-1.29,0-.53,0-1.06,0-1.59Z"/>
  <path class="cls-4" d="M1174.38,1062.29c-3.47-6.51-6.8-13.09-10.45-19.49-2.44-4.29-5.89-8.15-4.14-13.81,3.93-1.53,6.57-.05,9.27,3.15,20.96,24.85,30.76,54.3,36.54,85.69,2.71,14.72,3.67,29.42,2.46,44.19-.75,9.19-3.14,18.24-4.79,27.35-3.54,12.17-9.18,23.27-16.87,33.35-2.34,3.07-5.4,5.05-8.94,3.58-1.74-.73-3.34-3.74-3.48-5.82-.14-2.04,1.68-4.2,2.62-6.31,4.57-10.25,10.05-20.21,13.5-30.82,5.2-16,5.91-32.74,4.54-49.49-1.96-23.98-8.84-46.65-18.49-68.57-.46-1.05-1.16-2-1.75-3Z"/>
  <path class="cls-4" d="M237.88,508.71c.1-6.96.44-13.93.25-20.88-.41-14.33,4.36-27.47,8.31-40.92,5.41-18.43,17.25-33,27.74-48.32,4.11-6.01,10.45-10.58,16.11-15.42,2.76-2.36,6.7-3.19,9.42-.07,2.88,3.3.25,5.92-2.19,8.5-23.77,25.2-40.03,54.24-44.09,89.12-2.11,18.13.92,35.37,11.34,50.92,1.13,1.69.49,4.57.67,6.9-4.21,5.68-10.18,5.29-14.01-1.56-4.07-7.27-7.35-14.98-10.96-22.51-.91-1.9-1.73-3.83-2.59-5.75Z"/>
  <path class="cls-4" d="M577.25,1145.8c6.7-.56,12.65-.96,18.57-1.58,3.34-.35,5.92.18,6.99,3.86,1.09,3.75-1.42,5.65-4.11,6.24-7.86,1.72-15.8,3.66-23.79,4.06-14.29.71-27.69-2.95-38.7-12.49-15.22-13.2-20.25-30.33-16.99-49.83,2.12-12.68,6.75-24.6,13.78-35.45,1.71-2.63,3.66-5.15,5.78-7.46,2.25-2.45,5.72-3.52,7.93-1.16,1.25,1.34.81,5.25-.13,7.46-3.64,8.48-8.44,16.51-11.59,25.14-3.25,8.88-4.53,18.27-2.88,27.9,3.15,18.43,14.63,27.15,31.6,31.55,4.6,1.19,9.49,1.26,13.53,1.76Z"/>
  <path class="cls-4" d="M1323.03,1092.33c-4.4,1.33-8.77,2.76-13.2,3.97-13.76,3.76-27.22,2.68-40.41-2.67-16.72-6.78-30.51-17.15-40.38-32.45-2.25-3.48-3.09-7.08.41-9.77,3.51-2.69,6.46.01,9.12,2.43.89.81,1.93,1.45,2.89,2.17,8.04,9.19,17.53,16.41,28.33,22.2,17.85,9.57,35.21,6.93,52.34-1.44,5.9-2.88,11.36-6.72,16.85-10.38,3.08-2.06,6.19-2.26,8.67.08,2.54,2.38,2.06,5.92-.38,8.04-5.59,4.87-11.55,9.33-17.47,13.8-2.09,1.57-4.51,2.7-6.77,4.04Z"/>
  <path class="cls-4" d="M581.11,1298.56c2.14-4.88,6.75-5.14,11.1-6.34,7.79-2.14,15.78-4.08,23.06-7.47,9.19-4.29,16.18-11.6,21.21-20.49,8.61-15.24,10.34-31.7,8.33-48.79-.81-6.93-1.89-13.86-2.08-20.81-.06-2.29,2.26-4.65,3.49-6.98,1.94,1.71,5.24,3.17,5.6,5.16,2.93,16.12,6.25,32.24,5.69,48.78-3.19,22.65-13.44,41.14-33.14,53.28-9.89,6.09-21.02,9.71-32.88,9.73-4.4,0-9.06-.38-10.37-6.05Z"/>
  <path class="cls-4" d="M663.14,1381.5c.35-3.92,2.96-5.77,6.41-5.53,12.08.85,22.45-3.92,32.29-9.83,25.67-15.43,42.21-38.59,53.9-65.54,2.21-5.1,3.08-10.81,4.33-16.29.67-2.96,1.49-6.18,5.02-5.54,3.79.69,4.06,4.33,3.81,7.64-1.14,15.26-6.59,29.05-14.33,42.07-12.3,20.67-28.1,37.81-49.45,49.42-.69.38-1.21,1.07-1.81,1.62-6.89,2.16-13.71,4.66-20.72,6.34-3.95.95-8.23.77-12.36.67-3.28-.08-6.25-1.22-7.1-5.03Z"/>
  <path class="cls-4" d="M1209.76,1193.61c4.22-5.21,8.86-10.14,12.58-15.68,6.85-10.18,9.06-22.02,10.75-33.91,2.17-15.26.59-30.18-5.18-44.48-1.83-4.52-4.99-8.48-7.21-12.87-.93-1.85-1.01-4.13-1.47-6.21,2.16,0,4.59-.66,6.44.1,7.4,3.04,11.31,9.44,14.56,16.33.55,1.17,1.14,2.32,1.71,3.48,4.92,16.02,6.8,32.29,3.65,48.88-3.77,19.88-10.57,38.3-26.4,52.06-2.09,1.82-4.54,3.61-7.13,4.38-1.96.58-5.38.25-6.38-1.05-1.07-1.39-.57-4.55.16-6.61.62-1.72,2.57-2.96,3.93-4.41Z"/>
  <path class="cls-4" d="M639.09,1353.24c4.24-1.69,8.78-2.88,12.68-5.16,16.18-9.45,30.31-21.39,38.82-38.33,4.95-9.84,7.83-20.72,11.61-31.14.28-.76,0-1.85.44-2.41,1.38-1.69,2.92-4.35,4.52-4.44,1.63-.09,3.82,2.15,4.98,3.9.88,1.33.96,3.54.69,5.25-4.32,27.16-18,48.86-38.62,66.69-8.95,7.74-19.12,13.02-30.04,17.12-4.79.34-9.59.97-14.38.93-3.55-.04-7.53-1.02-7.39-5.58.13-4.11,3.72-4.13,7.05-4.46,3.26-.32,6.43-1.54,9.64-2.36Z"/>
  <path class="cls-1" d="M866.48,1273.1c-12.49-4.53-21.97-12.49-26.05-25.34-10.87-34.16-1.65-63.3,23.27-88.04,5.15-5.11,11.06-9.45,16.61-14.15-1.6,2.61-3,5.36-4.82,7.8-13.86,18.59-25.23,38.38-28.61,61.75-2.73,18.84.35,36.43,13.06,51.42,1.99,2.35,4.36,4.37,6.55,6.55Z"/>
  <path class="cls-4" d="M508.68,784.99c-6.96-1.32-15.27-2.61-23.41-4.6-3.06-.75-5.89-2.9-8.53-4.83-2.56-1.87-3.68-5.04-1.3-7.3,1.46-1.39,4.79-1.75,6.99-1.25,5.88,1.33,11.49,4.04,17.4,4.98,15.19,2.4,29.54-.81,43.03-8.05.88-.47,1.72-1.51,2.54-1.47,2.37.11,5.5-.18,6.9,1.18,2.5,2.41,1.8,6.08-1.25,7.63-7.91,4-15.93,7.95-24.26,10.89-5.19,1.83-11.04,1.8-18.11,2.82Z"/>
  <path class="cls-4" d="M795.3,1284.63c-.87-1.74-1.91-3.43-2.59-5.24-2.01-5.38-4.21-10.74-5.6-16.28-.37-1.46,1.91-3.58,2.98-5.39,1.54.95,3.65,1.54,4.51,2.91,2.81,4.48,4.82,9.48,7.77,13.85,5.04,7.48,11.89,12.44,21.28,13.09,1.14.08,2.29.41,3.38.78,6.04,1.99,6.83,4.49,3.16,9.85-11.98,1.93-22.21-1.52-30.84-9.99-1.28-1.26-2.7-2.38-4.05-3.57Z"/>
  <path class="cls-3" d="M370.79,1140.54c2.93,0,5.86-.14,8.77.07,1.67.12,3.29.83,4.93,1.28-1.71,2.78-3.42,5.55-5.13,8.32.94-3.7-1.3-5.25-4.19-6.61-1.59-.75-2.93-2.02-4.39-3.06Z"/>
  <path class="cls-1" d="M868.39,1274.3c-.38-.24-.75-.47-1.13-.71.38.24.75.47,1.13.71Z"/>
  <path class="cls-1" d="M880.37,1145.5c.3-.33.59-.67.89-1-.3.33-.59.67-.89,1Z"/>
  <path class="cls-3" d="M1368.03,1400.71c-.09-.24-.17-.48-.26-.72.23.1.46.19.69.28-.14.15-.29.29-.44.44Z"/>
  <path class="cls-2" d="M759.3,582.45c-8.5.81-16.99,1.62-25.21,2.41-5.55-16.56-17.38-25.16-32.49-30.46-17.88-6.28-36.57-8.32-55.19-9.43-26.01-1.55-52.15-2.39-77.69,5.15-19.83,5.85-33.26,17.43-36.6,38.73-.12.77-.65,1.48-1.08,2.43-17.88-9.34-35.82-11.32-54.28-.84-.47-2.54-.83-4.91-1.34-7.24-4.22-19.07-17.11-29.78-35.24-33.51-15.98-3.29-32.39-4.56-48.64-6.46-16.27-1.9-32.41-.51-48.41,2.74-2.8.57-3.58-.43-3.55-3.03.19-15.7-.32-31.43.6-47.08,1.29-22.16,6.89-43.45,15.17-64.07,6.3-15.69,14.39-30.34,24.83-44.18-.13,1.45.04,3-.42,4.33-6.12,17.56-11.06,35.5-13.02,53.95-1.21,11.43-.36,23.13.28,34.67.22,3.96-.63,5.41-4.19,6.81-4.89,1.92-9.59,4.49-14.01,7.34-2.85,1.84-5.04,4.83-2.52,8.48,2.4,3.48,5.3,2.72,8.7,1,4.99-2.52,10.3-4.4,14.79-6.27,2.93,3.5,5,7.13,8.09,9.27,2.07,1.43,5.83,1.47,8.38.69,1.17-.36,1.28-4.2,1.88-6.45.76-.17,1.69-.72,2.24-.46,5.01,2.36,9.95,4.86,14.91,7.32,5.68,5.15,8.79,5.42,13.07,1.14,5.6.84,9.96-.28,11.16-6.78.1-.57,1.18-.96,1.8-1.43,2.24.47,4.5,1.4,6.71,1.29,2.12-.11,4.19-1.29,6.29-2-.81-2.3-.95-5.46-2.57-6.71-3.04-2.36-6.95-3.6-10.46-5.38-.93-.47-1.71-1.23-2.56-1.86,1.42-13.16,2.45-26.38,4.36-39.47,2.95-20.27,8.8-39.83,16.05-58.97,2.8-7.39,5.72-14.74,8.88-21.97.8-1.82,2.76-3.13,4.19-4.67-1.09,5.82-2.36,11.62-3.23,17.47-1.75,11.88-4.08,23.75-4.72,35.7-.99,18.38.48,36.59,5.6,54.54,3.79,13.29,9.65,25.32,17.8,36.25,2.56,3.43,6.59,5.9,11.35,4.47,4.43-1.33,3.14-5.18,3.04-8.4,1.44.62,2.94,1.13,4.31,1.87,9.71,5.28,19.6,9.75,31.08,9.31,9.99-.38,14.6-6.92,10.92-16.15-15.85-39.85-18.74-80.88-11.3-122.86.4-2.28.82-4.56,1.23-6.84.06-.33.11-.67.17-1.01.19-1.58.38-3.17.57-4.74.65-.43,1.31-.87,2.39-1.6v4.82c-.03,1.66-.02,3.32-.09,4.98-1.54,37.41,3.51,73.65,20.4,107.48,4.25,8.52,10.17,16.26,15.83,23.99,2.98,4.07,8.32,4.96,10.42,2.33,2.9-3.64,1.04-6.95-1.53-10.12-1.85-2.28-3.31-4.88-4.95-7.34,4.03,1.99,8.05,3.99,12.08,5.98.22,3.85,1.57,8.49,5.5,7.91,6.06-.89,8.78,3.12,12.7,5.65,2.06,1.33,4.34,2.3,6.52,3.43l2.11.51c.54-.05,1.07-.1,1.61-.16,6.76,4.74,14.53,4.99,22.12,3.85,8.39-1.26,10.9-6.34,7.89-14.39-.97-2.61-.25-3.29,2.19-3.18,5.24.78,10.49,1.54,15.73,2.35,10.06,1.56,18.34,5.75,26,13.01,6.93,6.56,16.17,10.68,24.4,15.87,10.07,7.84,21,13.43,34.09,14.17,4.49.25,7.81,1.84,8.55,7.77,1.42,11.43,4.12,22.71,6.28,34.05Z"/>
  <path class="cls-2" d="M1174.09,820.39c4.19-2.33,4.9-6.45,5.32-10.62.83-8.16,1.54-16.34,2.39-25.59,6.91,7.24,13.89,13.56,19.69,20.82,10.87,13.6,20.45,28.14,27.53,44.14,7.28,16.43,12.66,33.46,15.59,51.21,4.54,27.46-.54,53.73-10.34,79.32-4.19,10.95-8.78,21.76-13.18,32.63-1.37-9.66-3.07-19.28-4.02-28.98-.82-8.37-.43-16.86-1.2-25.24-1.58-17.18-2.51-34.52-5.63-51.44-5.1-27.68-15.96-53.36-30.95-77.25-1.84-2.94-3.48-6-5.21-9Z"/>
  <path class="cls-2" d="M1000.38,491.26c3.61,8.7,7.2,17.41,10.82,26.11,8.73,20.95,16.17,42.53,28.84,61.62,9.9,14.9,19.51,30.05,30.32,44.27,7.76,10.21,17.4,18.98,26.02,28.55,16.05,17.84,34.05,34.14,46.78,54.64,6.75,10.87,10.97,23.32,16.27,35.09.52,1.15.59,2.49,1.15,5.03-10.25-7.95-19.62-15.04-28.78-22.38-11.26-9.02-22.77-17.79-33.4-27.53-9.65-8.84-18.39-18.69-27.27-28.34-18.16-19.71-31.76-42.35-42.31-66.9-2.15-5.01-4.43-9.96-6.65-14.94-1.84-8.57-3.46-17.2-5.55-25.71-5.49-22.4-11.2-44.75-16.75-67.14-.18-.71.33-1.58.51-2.38Z"/>
  <path class="cls-4" d="M612.05,508.95c-.54.05-1.07.1-1.61.16-.7-.17-1.41-.34-2.12-.51-2.18-1.13-4.47-2.1-6.52-3.43-3.92-2.53-6.64-6.54-12.7-5.65-3.94.58-5.29-4.06-5.5-7.91,1.65-1.05,3.3-2.09,5.35-3.39-1.92-4.41-3.89-8.91-5.85-13.41-4.74-10.88-8.01-22.15-8.76-34.05-.22-3.49.14-7.32,4.3-7.83,4.19-.51,5.43,3.15,6,6.59,2.39,14.46,8.27,27.62,14.91,40.52,1.31,2.54,2.35,3.22,5.64,2.74,9.33-1.37,18.82-1.71,28.24-2.46,8.97,1.4,17.93,2.81,25.62,4.01-9.65-16.01-19.97-32.14-29.23-48.86-5.67-10.24-9.69-21.38-14.45-32.12-.27-1.77-.39-3.58-.83-5.31-3.7-14.61-8.19-29.08-10.93-43.87-1.78-9.62-1.1-19.71-1.37-29.6-.09-3.42,1.91-5.31,5.33-5.09,3.21.21,4.38,2.42,4.63,5.45,1.52,18.17,3.77,36.18,10.12,53.48,3.35,9.11,5.41,18.71,8.86,27.77,7.24,19,17.49,36.53,28.46,53.54,4.48,6.95,10.82,12.71,16.33,19,5.42,6.2,10.43,12.84,16.4,18.46,6.71,6.32,14.12,11.95,21.57,17.42,3.01,2.22,5.72,4.72,3.99,7.97-1.09,2.06-4.95,2.65-7.56,3.91-8.22-5.19-17.47-9.31-24.4-15.87-7.66-7.26-15.95-11.45-26-13.01-5.24-.81-10.48-1.57-15.72-2.35-11.13-1.4-22.27-2.74-33.77-.42,7.83,9.78,7.91,10.77,1.56,14.14Z"/>
  <path class="cls-4" d="M666.91,1181.31c.99-22.98,5.44-42.85,11.63-62.43,7.83-24.74,18.89-47.99,33.02-69.65,8.07-12.37,17.3-24,26.27-35.76,25.1-32.91,50.53-65.57,75.43-98.63,15.1-20.05,30.21-40.23,41.13-62.98,12.92-26.93,20.75-55.31,22.03-85.32.06-1.31-.02-2.97.71-3.82,1.17-1.37,3.3-3.3,4.43-2.97,1.49.44,3.43,2.87,3.38,4.39-.33,9.95-.51,19.98-1.94,29.8-3.55,24.4-11.26,47.65-23.37,69.08-8.61,15.23-18.24,30.01-28.71,44.03-26.67,35.7-54.2,70.75-81.1,106.28-12.03,15.89-24.13,31.82-34.83,48.6-12.08,18.95-21.36,39.41-28.18,60.97-4.88,15.43-8.96,30.99-9.82,47.15-.48,9.06.41,18.2.73,27.3.03.99.75,2.15.42,2.92-.92,2.17-1.77,5.36-3.47,6.01-3.22,1.22-4.73-1.89-5.14-4.58-1.14-7.53-1.95-15.1-2.6-20.36Z"/>
  <path class="cls-4" d="M988.01,733.23c.96-1.1,2.01-3.33,3.2-3.41,1.61-.11,4.01,1.01,4.86,2.36,2.64,4.21,4.66,8.81,6.99,13.22,5.4,10.22,10.39,20.7,16.36,30.58,15.28,25.3,35.63,46.14,58.1,65.15,18.18,15.37,36.37,30.79,53.7,47.09,19.09,17.95,34.37,38.85,43.32,63.86.72,2.02,1.85,4.09,1.84,6.13-.01,2.06-.64,4.96-2.06,5.93-1.37.93-5.09.68-6.04-.48-3.07-3.74-5.95-7.88-7.81-12.31-6.33-15.04-15.87-27.91-26.22-40.26-13.72-16.37-29.78-30.28-46.05-44.03-20.54-17.37-41.14-34.76-57.78-56.13-6.43-8.26-12.39-16.9-18.15-25.64-9.57-14.52-16.11-30.57-22.74-46.55-.63-1.52-.89-3.19-1.51-5.5Z"/>
  <path class="cls-4" d="M781.78,1174.81c1.21-28.12,6.92-53.75,18.35-77.96,11.04-23.39,27.02-43.24,44.25-62.33,15.68-17.36,32.51-33.83,44.66-54.17,7.62-12.76,14.19-25.94,18.59-40.16.88-2.84,1.79-5.68,5.64-4.8,3.88.89,3.54,4.12,3.06,6.86-2.44,13.76-8.37,26.21-14.93,38.38-11.81,21.89-28.49,40.03-45.01,58.29-17.79,19.66-34.14,40.36-45.25,64.68-8.36,18.29-12.96,37.64-14.83,57.59-.85,9.08-.67,18.26-1,27.4-.13,3.64-.62,7.41-5.16,7.81-4.09.36-6.61-2.13-7.06-6.17-.63-5.6-.97-11.22-1.31-15.42Z"/>
  <path class="cls-4" d="M492.07,501.51c.1,3.22,1.39,7.07-3.04,8.4-4.76,1.43-8.79-1.04-11.35-4.47-8.15-10.93-14.01-22.96-17.8-36.25-5.12-17.95-6.59-36.16-5.6-54.54.64-11.95,2.97-23.82,4.72-35.7.86-5.85,2.14-11.65,3.23-17.47,10.19-26.32,19.02-53.32,37.97-75.2,1.06-1.23,2.41-2.78,3.81-3.01,2.23-.36,5.44-.53,6.69.75,1.11,1.13.89,4.74-.09,6.54-5.78,10.67-12.55,20.83-17.86,31.72-9.34,19.14-16,39.2-19.79,60.31-2.94,16.36-4.27,32.73-3.7,49.26.76,22.23,5.41,43.43,17.97,62.3,1.36,2.04,2.52,4.21,3.78,6.32.41.38.83.77,1.24,1.15l-.17-.1Z"/>
  <path class="cls-4" d="M571.52,485.62c1.64,2.46,3.09,5.06,4.95,7.34,2.57,3.16,4.43,6.48,1.53,10.12-2.1,2.64-7.45,1.74-10.42-2.33-5.66-7.73-11.58-15.47-15.83-23.99-16.88-33.83-21.94-70.07-20.4-107.48.07-1.66.06-3.32.08-4.97.75-6.2,1.49-12.4,2.24-18.6,3.53-13.97,6.51-28.11,10.79-41.84,2.85-9.14,7.53-17.7,11.48-26.49.53-1.18,1.36-2.66,2.41-3.07,2.26-.87,4.76-1.12,7.16-1.62.33,2.39,1.54,5.1.83,7.12-3.25,9.24-7.95,18.04-10.45,27.45-3.94,14.82-7.36,29.89-9.5,45.07-2.46,17.49-2.12,35.17-.53,52.84,1.55,17.19,4.82,33.98,10.92,50.02,3.99,10.49,9.75,20.31,14.73,30.43Z"/>
  <path class="cls-2" d="M1047.23,661.49c12.44,17.9,27.66,33.42,43.35,48.28,12.44,11.78,26.61,21.74,40.11,32.39,9.49,7.49,19.09,14.83,28.73,22.11,3.7,2.8,6.04,5.71,6.36,10.9.68,11.14.49,22.13-1.7,33.07-13.62-18.11-29.36-34.26-46.03-49.51-28.23-25.85-51.92-55.06-67.76-90.19-1.05-2.34-2.04-4.7-3.06-7.06Z"/>
  <path class="cls-4" d="M702.69,1171.76c.85-35.21,8.79-68.88,28.67-98.71,7.85-11.78,18.3-21.83,27.6-32.64.64-.74,1.49-1.68,2.33-1.79,2.08-.28,4.21-.13,6.32-.15-.59,1.88-.7,4.14-1.83,5.58-8.39,10.68-17.72,20.7-25.34,31.89-11.16,16.4-17.61,35.01-21.18,54.47-2.06,11.23-4.21,22.6-4.47,33.95-.37,16.25,1.55,32.51,7.07,47.97,3.96,11.09,8.81,21.87,13.26,32.79.06.15.14.3.2.46,1.22,3.34,2.75,7.38-.9,9.46-3.66,2.09-7.22-.08-8.96-3.88-4.68-10.24-9.31-20.52-13.69-30.9-6.48-15.37-8.44-31.63-9.07-48.5Z"/>
  <path class="cls-4" d="M1105.14,1069.05c.33,21.72-4.3,38.29-10.88,54.36-1.29,3.16-3.37,6.42-5.99,8.46-1.92,1.49-5.58,1.87-8,1.16-1.47-.43-2.59-3.8-2.89-5.99-.25-1.78.62-3.94,1.54-5.64,13.15-24.24,15.36-49.87,9.8-76.48-5.29-25.32-14.92-48.85-29.39-70.36-2.5-3.71-5.05-7.39-7.38-11.2-1.6-2.61-4.02-5.4-.67-8.42,3.38-3.05,6.71-.93,8.85,1.3,3.76,3.92,7.14,8.35,9.98,12.99,10.14,16.57,18.58,33.89,25.39,52.21,6.27,16.88,8.15,34.17,9.64,47.59Z"/>
  <path class="cls-4" d="M744.62,340.63c1.1,1.48,3.28,3.53,4.37,6.05,4.95,11.44,9.67,22.98,14.34,34.54,14.13,34.97,27.74,70.16,42.5,104.87,7.14,16.8,15.95,32.96,28.38,46.74,1.78,1.98,3.79,4.16,1.35,6.97-2.58,2.97-5.96,2.29-7.93,0-6.15-7.13-12.51-14.24-17.48-22.18-14.25-22.77-24.23-47.65-33.88-72.6-10-25.87-19.45-51.96-29.19-77.93-2.5-6.68-5.41-13.22-7.65-19.98-1.32-3.97.58-6.71,5.2-6.48Z"/>
  <path class="cls-2" d="M635.43,1213.41c-6.42-20.36-10.65-41.07-8.08-62.53,4.18-34.91,17.28-66.63,36.23-95.9,10.7-16.53,22.52-32.35,34.01-48.37,6.84-9.52,14.02-18.79,21.05-28.17.36.59.72,1.18,1.08,1.76-7.72,11.8-15.9,23.33-23.07,35.45-10.65,18.01-21.08,36.19-30.68,54.78-10.54,20.41-17.76,42.11-22.97,64.55-5.6,24.14-7,48.5-6.06,73.13.07,1.75-.97,3.54-1.5,5.3Z"/>
  <path class="cls-4" d="M1033.51,1005.15c-.4,21.44-2.11,36.88-7.68,51.66-.9,2.4-2.27,5.12-4.25,6.47-1.78,1.21-5.03,1.57-7.04.79-2.82-1.1-3.4-3.88-2.51-7.17,2.68-9.91,5.53-19.82,7.32-29.9,2.44-13.77,1.73-27.68-.22-41.51-3.87-27.38-11.59-53.77-20.29-79.92-.89-2.68-2.03-5.43-2.09-8.17-.05-2.14,1.4-4.32,2.18-6.48,1.8,1.19,4.46,1.97,5.25,3.63,3.28,6.88,6.25,13.93,8.87,21.09,7.02,19.14,13.34,38.52,16.58,58.71,1.94,12.09,3.09,24.3,3.89,30.81Z"/>
  <path class="cls-4" d="M823.71,556.84c-13.22-1.9-23.31-6.49-32.85-12.38-16.55-10.23-29.21-24.55-41.2-39.53-11.02-13.77-18.22-29.65-24.99-45.75-.45-1.07-1.1-2.25-1-3.31.24-2.41.21-6.28,1.52-6.88,3.2-1.48,5.43,1.21,6.8,4.14,11.55,24.62,26.57,46.9,46.36,65.57,13.1,12.36,28.24,21.93,45.69,27.28,3.4,1.04,6.48,2.78,5.06,6.43-.87,2.24-4.22,3.53-5.4,4.44Z"/>
  <path class="cls-2" d="M615.38,403.33c4.76,10.74,8.79,21.88,14.45,32.12,9.25,16.72,19.58,32.85,29.23,48.86-7.68-1.2-16.65-2.61-25.62-4.01-3.55-11.22-7.62-22.3-10.52-33.69-3.39-13.28-5.79-26.81-8.5-40.26-.18-.91.62-2.01.96-3.02Z"/>
  <path class="cls-4" d="M492.93,443.88c.43-4.54.95-9.32,1.3-14.11.24-3.29,1.53-5.5,5.13-5.39,3.44.11,4.81,2.2,5.17,5.5,1.11,10.32,1.46,20.84,3.89,30.86,2.35,9.72,6.6,19.04,10.57,28.3,2.49,5.81,3.01,9.89.05,11.88-2.64,1.77-8.18-.72-11.25-5.28-7.85-11.67-11.44-24.88-13.49-38.58-.64-4.26-.9-8.57-1.37-13.17Z"/>
  <path class="cls-4" d="M1148.95,1162.57c-2.66,18.31-8.43,33.81-17.1,48.16-3.05,5.04-6.88,9.79-11.16,13.8-1.7,1.59-6.29,2.02-8.37.85-3.42-1.91-2.51-5.64-.47-8.76,5.55-8.45,11.74-16.58,16.38-25.51,4.01-7.72,6.24-16.36,9.21-24.61.5-1.4.34-3.31,1.24-4.24,1.78-1.84,4.06-4.28,6.19-4.34,1.51-.04,3.1,3.45,4.08,4.65Z"/>
  <path class="cls-4" d="M278.32,503.27c1.78-12.4,3.36-23.54,4.99-34.66.14-.97.31-2.18.94-2.79,1.61-1.55,3.48-3.93,5.27-3.96,3.19-.05,4.11,2.81,3.75,5.83-.75,6.25-1.55,12.49-2.25,18.74-1.43,12.63-1.3,25.16,2.73,37.4.26.79.4,1.62.68,2.39,1.13,3.08,2.33,6.89-1.28,8.37-3.71,1.51-7-1.48-8.02-4.87-2.69-8.98-4.72-18.15-6.81-26.44Z"/>
  <path class="cls-4" d="M970.75,893.28c-.49,2.85-.51,5.6-1.48,7.97-1.66,4.04-5.72,4.41-8.05.71-1.36-2.16-2.12-4.86-2.54-7.42-2.36-14.52-4.51-29.07-6.78-43.6-.53-3.37-1.42-7.25,2.94-8.23,4.1-.92,6.01,2.94,6.83,5.96,2.22,8.14,3.89,16.44,5.56,24.72,1.34,6.64,2.37,13.34,3.52,19.9Z"/>
  <path class="cls-2" d="M645.39,182.51c3.45-1.02,6.85-2.69,10.35-2.95,17.69-1.31,35.29-.16,52.64,3.52,13.1,2.78,26.14,5.89,39.1,9.29,5.46,1.43,10.63,3.99,15.93,6.03-1.66.06-3.41.49-4.97.13-16.4-3.86-32.6-9.11-49.21-11.45-18.64-2.63-37.65-2.64-56.49-3.82-2.46-.15-4.9-.49-7.36-.74Z"/>
  <path class="cls-4" d="M967.89,942.3c-.66,4.28-.95,8.12-1.97,11.75-.39,1.42-2.39,3.29-3.69,3.32-1.6.03-4.03-1.27-4.7-2.66-1.23-2.58-1.92-5.64-1.95-8.5-.05-5.29.7-10.58.79-15.87.05-2.89.2-6,3.67-5.66,1.93.19,4.58,2.54,5.23,4.47,1.45,4.33,1.85,9.01,2.61,13.16Z"/>
  <path class="cls-4" d="M959.95,821.71c-1.06.62-2.62,2.19-4.32,2.37-3.36.36-7.55-4.47-6.95-8.16.22-1.34,2.34-3.08,3.84-3.37,3.21-.62,7.29,4.06,7.43,9.16Z"/>
  <path class="cls-3" d="M533.68,345.7c-.75,6.2-1.5,12.4-2.24,18.6,0-1.4,0-2.8,0-4.82-1.09.73-1.74,1.17-2.39,1.6,1.54-5.13,3.09-10.26,4.63-15.39Z"/>
  <path class="cls-3" d="M719.72,980.2c-.36-.59-.72-1.17-1.08-1.76,2.8-3.45,5.61-6.89,8.41-10.34-2.45,4.03-4.89,8.07-7.33,12.1Z"/>
  <path class="cls-3" d="M528.48,365.83c-.06.34-.11.68-.17,1.01.06-.34.11-.68.17-1.01Z"/>
  <path class="cls-2" d="M492.24,501.6c-.41-.38-.83-.77-1.24-1.15.41.38.83.77,1.24,1.15Z"/>
  <path class="cls-2" d="M718.39,609.66c-.64,19.97-3.16,40.15-12.91,58.91-5.95,11.44-15.04,17.97-27.33,21.11-20.85,5.32-41.8,5.69-62.97,2.67-12.33-1.76-24.54-3.6-36-8.97-15.74-7.37-24.64-19.63-27.22-36.59-1.65-10.88-3.87-21.78-4.19-32.71-.26-8.98,1.08-18.23,3.22-26.98,2.99-12.2,13.11-17.89,24.27-20.37,12.69-2.82,25.72-5.29,38.66-5.58,24.58-.56,49.21.49,73.13,7.41,3.17.92,6.25,2.17,9.38,3.23,14.7,4.99,20.89,15.94,21.59,30.74.1,2.15.22,4.31.37,7.14ZM665.49,605.8c1.94,2.8,3.77,5.69,5.85,8.38,1.75,2.27,3.29,5.6,7.07,3.85,3.97-1.84,4.44-5.67,2.63-8.83-3.26-5.7-6.28-12.28-11.24-16.14-16.28-12.66-35.14-16.21-55.17-11.34-10.86,2.64-19.75,8.67-24.06,19.55-.76,1.92.67,4.72,1.09,7.11,2.23-.84,5.35-1.02,6.56-2.62,6.78-9.07,16.29-11.52,27.49-12.62-8.31,10.6-11.43,21.92-9.59,34.46,1.24,8.47,3.03,16.83,11.26,21.62,10.59,6.16,22.51,3.06,31.33-8.42,7.92-10.3,9.05-22.01,6.79-34.99Z"/>
  <path class="cls-2" d="M355.95,676.37c-1.25-19.63-1.56-38.71-3.93-57.54-2.35-18.66-6.78-37.07-10.58-57.02,13.84-.88,26.64-2.5,39.41-2.3,14.31.22,28.66,1.52,42.85,3.41,10.3,1.38,20.58,4,28.42,11.84,7.18,7.18,8.01,16.66,8.35,25.84.57,15.41-.86,30.82-5.28,45.63-2.19,7.33-5.72,14.39-9.54,21.06-5.42,9.47-15.41,12.02-25.12,14.15-15.18,3.33-30.46,1.96-45.6-.61-6.78-1.15-13.42-3.13-18.99-4.47ZM408.54,593.34c-2.13,5.42-4.94,10.24-5.85,15.39-2.26,12.72-1.72,25.18,8.11,35.22,7.06,7.21,18.59,6.29,24.99-1.52,7.02-8.57,7.53-18.54,6.46-28.77-1.96-18.56-12-30.2-29.23-33.7-12.31-2.51-23.18,1.59-32.94,8.52-2.14-1.93-3.88-4.1-6.13-5.34-1.44-.79-3.63-.23-5.49-.27.29,1.79,0,4.05.98,5.27,1.81,2.23,4.38,3.83,6.87,5.9-.31,2.54-1.63,3.71-4.6,2.54-1.84-.72-3.75-1.67-5.65-1.73-1.55-.05-3.15,1.05-4.72,1.64.54,1.41.68,3.57,1.69,4.1,3,1.58,6.33,2.51,9.73,3.78-.14,1.07-.39,2.67-.55,4.27-.35,3.44,1.12,6.02,4.39,6.89,3.51.93,5.64-1.15,6.71-4.38.42-1.25.69-2.55,1.08-3.81,3.48-10.97,16.42-17.8,24.15-14Z"/>
  <path class="cls-2" d="M808.24,620.13c4.68,1.81,6.92-1.36,9.35-4.44,8.19-10.36,18.85-16.62,31.97-18.08,13.21-1.47,26.23,7,32.56,20.14,7.5,15.57,8.69,31.62,5.67,48.52-4.69,26.27-19.15,45.91-40.5,60.69-6.64,4.6-14.83,6.96-22.9,10.62,0-10.64.43-19.86-.1-29.04-.78-13.62-2.3-27.19-3.36-40.79-.17-2.19-.29-5,.86-6.56,6.35-8.55,13.16-16.77,23.12-21.45,2.23-1.05,4.81-1.4,6.93-2.61,1.5-.86,3.66-2.86,3.44-3.91-.35-1.66-2.39-4.1-3.82-4.18-3.2-.18-6.68.36-9.67,1.56-8.68,3.46-15.25,9.82-21.39,16.66-.61.68-1.33,1.26-1.51,1.43-3.6-9.13-7.18-18.2-10.75-27.27.03-.43.07-.87.1-1.31Z"/>
  <path class="cls-2" d="M762.02,813.71c0,.53,0,1.06,0,1.59-.1.43-.19.86-.29,1.29-3.2,16.96-6.31,33.93-9.64,50.87-1,5.07-2.6,10.02-3.93,15.03-7.25,21.41-16.76,41.79-27.74,61.52-3.67,6.59-6.93,13.41-10.38,20.12,0,0-.1.09-.1.09-.41.47-.82.95-1.23,1.42-.54.91-1.08,1.83-1.62,2.74-.29.31-.58.63-.87.95-1.36,2.03-2.71,4.06-4.07,6.09-.63-1.5-1.8-2.99-1.8-4.49-.04-20.67,4.63-40.47,11.2-59.94,6.7-19.85,17.38-37.63,27.7-55.68,7.01-12.25,12.91-25.12,19.41-37.66.77-1.49,2.21-2.63,3.34-3.93Z"/>
  <path class="cls-1" d="M311.72,597.31c7.15,0,13.43-.1,19.71.11.9.03,2.3,1.39,2.54,2.37,5.26,21.88,8.71,43.97,6.95,66.58-.02.27-.34.51-1.17,1.69-2.44-2.14-5.09-3.97-7.12-6.33-8.51-9.91-11.95-22.16-14.96-34.44-2.36-9.61-3.89-19.43-5.95-29.98Z"/>
  <path class="cls-1" d="M312.99,581.15c2.19-8.19,7.47-11.78,15.06-14.01.87,4.77,1.68,9.19,2.56,14.01h-17.62Z"/>
  <path class="cls-1" d="M405.31,508.3c-4.96-2.46-9.9-4.96-14.91-7.32-.55-.26-1.48.29-2.24.46-1-1.62-1.99-3.25-3.57-5.83,5.6,0,10.26-.11,14.9.11.73.03,1.64,1.46,2.03,2.42,1.37,3.34,2.54,6.77,3.79,10.16Z"/>
  <path class="cls-1" d="M431.34,501.22c-.62.47-1.7.86-1.8,1.43-1.2,6.5-5.56,7.62-11.16,6.78-.64-3.69-1.27-7.38-2.07-11.98,5.17,1.3,10.1,2.53,15.03,3.77Z"/>
  <path class="cls-1" d="M808.24,620.13c-.03.44-.07.87-.1,1.31-.46-.51-.92-1.03-1.39-1.54.24-.2.48-.41.72-.62.26.28.51.57.77.85Z"/>
  <path class="cls-1" d="M708.71,965.63c.41-.47.82-.95,1.23-1.42-.41.47-.82.95-1.23,1.42Z"/>
  <path class="cls-1" d="M706.23,969.32c.29-.32.58-.63.87-.95-.29.32-.58.63-.87.95Z"/>
  <path class="cls-2" d="M316.12,1041.32c-3.75-1.13-7.76-1.73-11.2-3.47-21.3-10.78-34.25-28.03-39.46-51.34-2.68-12.01-2.46-23.99-1.03-36.06.18-.99.36-1.99.54-2.98.22-.93.45-1.86.67-2.79,1.97-4.62,3.91-9.25,5.93-13.85,7.68-17.49,15.4-34.98,23.1-52.46,5.16-11.71,10.31-23.43,15.46-35.15.71-1.62,1.41-3.24,2.65-6.09.84,11.21,1.39,21.05,2.36,30.84,1.5,15.19,3.7,30.33,4.84,45.54,1.05,14.05,2,28.22,1.39,42.27-1.07,24.21-3.43,48.37-5.14,72.56-.3,4.31-.08,8.65-.1,12.98ZM298.94,1000.61c3.73-9.93,5.46-88.34,1.99-94.63-3.65,9.6-8.17,18.65-10.47,28.24-2.64,11-4.95,22.56-4.39,33.73.59,11.53,5.38,22.64,12.87,32.66Z"/>
  <path class="cls-4" d="M535.18,1018.01c-7.14-4.32-14.17-7.78-20.3-12.43-18.45-14.03-28.44-33.87-35.64-55.18-3.32-9.85-5.26-20.17-7.65-30.32-.4-1.71-.11-3.66.17-5.44.43-2.82.92-5.86,4.62-6.16,3.97-.32,5.09,2.92,5.82,5.69,1.93,7.36,3.14,14.92,5.16,22.25,7.4,26.86,19.92,50.24,45,64.91,2.57,1.5,5.37,3.06,7.14,5.31,1.41,1.8,2.31,4.97,1.72,7.05-.47,1.67-3.5,2.63-6.04,4.33Z"/>
  <path class="cls-4" d="M379.34,1015.2c.69-4.68,1.81-12.87,3.13-21.03.47-2.88,1.59-6.05,5.22-5.43,3.58.6,5.71,3.2,5.42,7.19-.44,5.94-1.12,11.87-1.27,17.82-.53,21.14,4.12,40.82,17.16,57.94,2.21,2.9,4.87,5.45,7.32,8.16,2.37,2.62,4.32,5.49,1.43,8.76-2.72,3.08-5.85,2.12-8.99.25-10.36-6.19-16.32-15.93-21.09-26.46-6.26-13.82-8.03-28.59-8.32-47.19Z"/>
  <path class="cls-4" d="M563.27,990.67c-.18,6.8-4.81,9.3-9.36,6.2-6.81-4.65-13.68-9.45-19.59-15.15-15.26-14.71-24.78-33.03-31.39-52.98-.26-.79-.9-1.68-.71-2.34.8-2.82,1.85-5.57,2.8-8.35,2.2,1.6,5.25,2.73,6.46,4.88,5.37,9.55,9.74,19.67,15.36,29.06,7.66,12.8,17.94,23.36,30.18,32.03,2.78,1.97,4.78,5.06,6.25,6.65Z"/>
  <path class="cls-4" d="M540.81,928.96c7.44,10.61,14.27,20.35,21.16,30.18-7.57-.68-20.59-18.73-21.16-30.18Z"/>
  <path class="cls-2" d="M315.23,675.66c-.02-.42-.04-.84-.06-1.26.02.42.04.84.06,1.26Z"/>
  <path class="cls-1" d="M264.97,947.46c-.18,1-.36,1.99-.54,2.98.18-1,.36-1.99.54-2.98Z"/>
  <path class="cls-1" d="M761.74,816.59c.1-.43.19-.86.29-1.29-.1.43-.19.86-.29,1.29Z"/>
  <path class="cls-1" d="M612.05,508.95c6.35-3.36,6.26-4.36-1.56-14.14,11.5-2.32,22.63-.97,33.77.42-2.44-.11-3.17.57-2.19,3.18,3,8.05.5,13.13-7.89,14.39-7.59,1.14-15.35.88-22.12-3.85Z"/>
  <path class="cls-1" d="M608.32,508.59c.71.17,1.41.34,2.12.51-.71-.17-1.41-.34-2.12-.51Z"/>
  <path class="cls-4" d="M665.49,605.8c2.26,12.99,1.13,24.69-6.79,34.99-8.83,11.48-20.74,14.58-31.33,8.42-8.23-4.78-10.02-13.15-11.26-21.62-1.83-12.53,1.28-23.85,9.59-34.46-11.2,1.1-20.71,3.55-27.49,12.62-1.2,1.61-4.32,1.79-6.56,2.62-.42-2.39-1.85-5.19-1.09-7.11,4.31-10.88,13.2-16.91,24.06-19.55,20.03-4.87,38.89-1.32,55.17,11.34,4.96,3.85,7.99,10.43,11.24,16.14,1.81,3.17,1.34,6.99-2.63,8.83-3.77,1.75-5.31-1.58-7.07-3.85-2.08-2.69-3.91-5.58-5.85-8.38Z"/>
  <path class="cls-4" d="M408.54,593.34c-7.73-3.81-20.67,3.02-24.15,14-.4,1.26-.67,2.56-1.08,3.81-1.07,3.23-3.2,5.31-6.71,4.38-3.28-.86-4.74-3.45-4.39-6.89.16-1.6.41-3.2.55-4.27-3.41-1.26-6.74-2.2-9.73-3.78-1-.53-1.15-2.69-1.69-4.1,1.58-.59,3.17-1.69,4.72-1.64,1.9.07,3.81,1.01,5.65,1.73,2.97,1.17,4.29,0,4.6-2.54-2.5-2.07-5.06-3.68-6.87-5.9-.99-1.22-.7-3.48-.98-5.27,1.85.04,4.05-.53,5.49.27,2.25,1.24,4,3.41,6.13,5.34,9.75-6.92,20.63-11.02,32.94-8.52,17.23,3.51,27.28,15.15,29.23,33.7,1.08,10.22.57,20.19-6.46,28.77-6.4,7.81-17.93,8.72-24.99,1.52-9.84-10.04-10.37-22.51-8.11-35.22.92-5.15,3.73-9.96,5.85-15.39Z"/>
  <path class="cls-3" d="M298.94,1000.61c-7.49-10.02-12.28-21.14-12.87-32.66-.57-11.16,1.75-22.72,4.39-33.73,2.3-9.59,6.81-18.64,10.47-28.24,3.48,6.29,1.74,84.7-1.99,94.63Z"/>
</svg>