<?xml version="1.0" encoding="UTF-8"?>
<svg id="_圖層_1" data-name="圖層 1" xmlns="http://www.w3.org/2000/svg" viewBox="0 0 2382.77 2382.77">
  <defs>
    <style>
      .cls-1 {
        fill: #997260;
      }

      .cls-2 {
        fill: #fbfbfa;
      }

      .cls-3 {
        fill: #85b7a6;
      }

      .cls-4 {
        fill: #0f0c0b;
      }
    </style>
  </defs>
  <path class="cls-1" d="M1409.22,1588.54c-1.77-.96-3.54-1.93-5.31-2.89-.12-2.01-1.03-4.39-.26-5.96,12.02-24.53,20.48-50.31,25.94-76.97,2.95-14.4,4.26-29.16,5.5-43.83.22-2.66-3.49-5.65-5.39-8.49-2.02,2.27-4.16,4.43-5.98,6.84-.73.97-.8,2.46-1.1,3.73-4.83,20.66-8.42,41.72-14.81,61.89-6.53,20.6-14.53,40.97-24.19,60.29-15.29,30.61-39.69,54.22-64.49,77.23-11.46,10.64-23.91,20.47-33.96,32.33-25.69,30.3-37.73,65.15-30.03,105.18,4.16,21.63,13.35,40.59,32.76,52.62,8.23,5.1,17.45,8.6,26.22,12.83.51,9.75-.73,11.9-9.88,15.65-8.59,3.52-17.44,3.36-26.21.8-5.16-1.51-10.15-3.59-15.22-5.41,4.8-7,3.77-10.27-4.13-12.87-1.43-.47-2.93-.91-4.42-1.01-12.28-.85-21.22-7.34-27.82-17.11-3.86-5.72-6.48-12.25-10.15-18.11-1.13-1.8-3.89-2.56-5.9-3.8-1.39,2.37-4.37,5.15-3.89,7.05,1.82,7.25,4.69,14.25,7.33,21.28.89,2.37,2.24,4.57,3.38,6.85-2.21,22.75-8.26,44.27-20.3,63.92-12.94,21.11-31.06,36.58-52.48,48.48-12.89,7.16-26.73,11.31-41.4,12.55-1.98.17-4.04-.58-6.06-.9.78-.71,1.46-1.62,2.37-2.11,27.9-15.18,48.56-37.58,64.64-64.59,10.13-17.02,17.25-35.04,18.74-54.99.32-4.34-.03-9.09-4.98-9.99-4.61-.84-5.68,3.37-6.56,7.24-1.63,7.17-2.77,14.63-5.67,21.3-15.28,35.22-36.9,65.5-70.45,85.66-12.87,7.74-26.42,13.96-42.21,12.85-4.51-.32-7.93,2.1-8.39,7.23-4.45-.77-8.92-1.49-13.36-2.31-12.63-2.32-15.28-6.89-11.43-19.63,14.28-5.37,27.57-12.26,39.27-22.38,26.95-23.3,44.83-51.67,50.48-87.17.36-2.23.26-5.12-.9-6.86-1.51-2.28-4.37-5.21-6.51-5.09-2.09.11-4.11,3.59-5.91,5.8-.59.72-.22,2.15-.58,3.15-4.94,13.63-8.71,27.85-15.18,40.71-11.13,22.14-29.6,37.76-50.74,50.11-5.1,2.98-11.03,4.54-16.58,6.75,1.42-1.41,2.59-3.31,4.29-4.14,29.12-14.37,44.42-38.59,49.3-69.87.69-4.41-.99-9.87-3.2-13.95-9.33-17.19-19.11-34.12-24.17-53.25-.44-1.65-1.42-3.14-2.16-4.71.72-21.62-3.61-42.69-7.44-63.77-.47-2.61-4.79-4.51-7.32-6.74-1.61,3.05-4.65,6.13-4.56,9.13.26,9.09,1.66,18.15,2.73,27.21,2.63,22.34.37,43.86-10.89,63.78-6.57,11.62-15.7,21.18-27.72,26.78-9.5,4.43-19.95,6.97-30.14,9.77-5.68,1.56-11.71,1.91-14.51,8.29-2.04-3.45-5.65-6.93-5.56-10.32.06-2.31,5-5.51,8.3-6.51,8.05-2.44,16.77-2.89,24.6-5.82,20.31-7.59,31.63-23.59,38-43.61,1.18-3.72,2.28-7.47,3.42-11.2,9.55.24,12.05-3.55,8.84-12.92-2.37-6.92-4.4-13.95-6.58-20.93.69-2.31,2.05-4.65,1.96-6.93-1.22-32.19.6-64.03,7.92-95.59,6.81-29.33,16.25-57.7,30.03-84.38,12.55-24.29,26.19-48.05,40.11-71.6,9.37-15.85,20.06-30.92,30.15-46.34,3.19-5.27,6.39-10.54,9.58-15.82.69-.83,1.44-1.62,2.05-2.51,8.17-11.79,16.43-23.51,24.45-35.4,16.61-24.62,34.13-48.7,49.34-74.16,17.95-30.05,30.27-62.78,39.28-96.64,5.93-22.27,9.83-44.91,10.42-68.01.1-3.96,1.14-5.64,5.28-6.4,15.32-2.8,30.16-8.24,42.4-17.41,34.03-25.49,55.14-59.19,58.6-102.38,1.76-21.92-1.18-43.32-10.74-63.4-11.2-23.53-29.95-36.66-55.88-38.99-8.08-.73-16.29-.11-24.43-.11.37-.65.74-1.3,1.11-1.95-2.95-2.42-5.68-5.2-8.92-7.15-2.74-1.65-6.05-2.37-9.13-3.44-20.83-7.25-40.78-16.36-58.48-29.64-9.19-6.89-17.37-15.14-26.41-22.25-2.1-1.65-5.87-1.16-8.88-1.65.38,3.22-.4,7.39,1.33,9.51,12.44,15.2,26.64,28.63,44.07,38,11.54,6.21,23.57,11.49,35.42,17.21-.38.34-.68.83-.99.84-22.58.63-45.16,1.22-67.73,1.82-2.83-14.82-6.35-29.56-8.21-44.5-.96-7.75-5.31-9.82-11.18-10.16-17.11-.97-31.4-8.27-44.56-18.52,3.42-1.64,8.45-2.41,9.88-5.11,2.25-4.25-1.28-7.52-5.22-10.42-9.73-7.15-19.42-14.51-28.19-22.77-7.8-7.35-14.34-16.03-21.43-24.13-7.19-8.23-15.48-15.75-21.34-24.84-14.34-22.24-27.74-45.15-37.2-69.99-4.52-11.85-7.21-24.39-11.58-36.3-8.3-22.61-11.23-46.15-13.22-69.9-.33-3.95-1.86-6.84-6.06-7.12-4.48-.3-7.1,2.17-6.97,6.65.36,12.92-.53,26.11,1.79,38.69,3.58,19.33,9.45,38.24,14.28,57.34.57,2.26.73,4.62,1.08,6.93-.45,1.32-1.5,2.77-1.26,3.95,3.55,17.58,6.69,35.27,11.11,52.63,3.8,14.88,9.11,29.37,13.76,44.03-12.32.98-24.72,1.42-36.92,3.22-4.3.63-5.66-.26-7.37-3.58-8.69-16.86-16.36-34.06-19.49-52.96-.75-4.5-2.36-9.29-7.84-8.61-5.44.67-5.91,5.67-5.62,10.24.98,15.56,5.26,30.28,11.45,44.51,2.56,5.88,5.13,11.76,7.64,17.52-2.68,1.7-4.84,3.06-7,4.43-5.26-2.6-10.52-5.21-15.79-7.81-6.5-13.23-14.04-26.06-19.25-39.78-7.97-20.97-12.25-42.92-14.27-65.39-2.08-23.11-2.53-46.22.69-69.07,2.8-19.84,7.26-39.53,12.41-58.91,3.27-12.3,9.4-23.81,13.66-35.88.93-2.65-.65-6.18-1.08-9.31-3.14.66-6.4.99-9.36,2.12-1.38.53-2.46,2.47-3.16,4.01-5.16,11.48-11.29,22.68-15.01,34.62-5.6,17.95-9.49,36.43-14.1,54.69-2.02,6.7-4.04,13.4-6.06,20.11-.25,2.07-.49,4.14-.74,6.21-.07.44-.15.88-.22,1.31-.54,2.98-1.08,5.96-1.61,8.95-9.73,54.88-5.95,108.51,14.77,160.6,4.8,12.07-1.22,20.61-14.28,21.11-15,.57-27.93-5.27-40.62-12.18-1.79-.98-3.75-1.64-5.64-2.45l.23.13c-.54-.5-1.08-1-1.62-1.5-1.64-2.76-3.16-5.59-4.94-8.26-16.42-24.68-22.49-52.38-23.49-81.44-.74-21.61,1-43,4.84-64.39,4.95-27.59,13.67-53.81,25.87-78.83,6.94-14.23,15.79-27.51,23.35-41.46,1.27-2.34,1.56-7.07.11-8.54-1.63-1.66-5.83-1.44-8.74-.97-1.83.29-3.59,2.33-4.98,3.93-24.77,28.61-36.31,63.9-49.63,98.3-1.86,2.02-4.43,3.73-5.47,6.11-4.14,9.46-7.95,19.06-11.61,28.72-9.48,25.01-17.13,50.58-20.99,77.08-2.49,17.11-3.84,34.39-5.7,51.59-4.55-.75-9.12-2.2-13.65-2.11-7.64.16-8.91-4.14-9.09-10.31-.78-25.95,2.18-51.55,7.26-76.91,2.21-11.05,5.31-21.91,7.92-32.88,1.08-4.53-.16-9.03-4.62-10.07-2.04-.48-6.09,2.85-7.48,5.4-2.56,4.71-4.11,10.04-5.59,15.25-7.99,28.05-14.16,56.44-14.7,85.78-.12,6.61-.02,13.23-.02,20.25h-22.27c-.36-10.94-1.74-21.8-.89-32.47,2.41-30.18,9.41-59.44,19.37-88.06,9.78-28.09,23.38-54.23,38.96-79.42,5.94-9.61,12.66-18.74,18.64-28.32,1.24-1.99,1.92-6.07.79-7.34-1.4-1.57-4.99-1.68-7.58-1.52-1.73.11-3.58,1.56-4.98,2.84-7.18,6.62-15.04,12.71-21.16,20.21-17.43,21.34-35.18,42.53-50.81,65.16-15.76,22.83-29.93,46.88-43.32,71.2-13.57,24.65-22.92,51.14-26.22,79.32-1,8.5-2.96,18.39.28,25.47,3.19,6.96,2.51,12.97,2.76,19.53.46,12.16.95,24.31,1.16,36.47.03,1.67-1.08,4.29-2.39,4.89-5.48,2.51-11.24,4.42-16.9,6.56-2.35-4.37-4.48-6.81-10.28-3.37-7.51,4.45-15.81,2.34-22.99-1.76-7.68-4.39-14.81-9.73-22.24-14.58-.99-.65-2.28-.85-3.42-1.25-.24-3.04.61-6.81-.88-9.02-13.62-20.33-17.58-42.86-14.83-66.56,5.3-45.59,26.56-83.55,57.63-116.49,3.19-3.38,6.62-6.8,2.86-11.12-3.56-4.09-8.7-3-12.31.09-7.4,6.32-15.68,12.29-21.06,20.15-13.7,20.04-29.18,39.08-36.26,63.17-5.17,17.59-11.4,34.76-10.86,53.49.26,9.09-.19,18.2-.32,27.3-1.68-1.79-3.83-3.32-4.98-5.41-10.67-19.34-11.93-39.81-8.27-61.32,5.08-29.88,18.36-55.83,35.14-80.56,21.47-31.66,48.14-58.5,77.26-82.79,37.71-31.45,75.69-62.69,114.95-92.16,31.25-23.45,64.66-44.05,101.21-58.75,12.47-5.01,25.17-9.47,37.81-14.08.79-.29,1.92.38,2.89.6,1.12-.69,2.15-1.72,3.36-2,4.9-1.15,8.04-3.57,7.53-9.11.54,1.37,1.07,2.73,1.86,4.73,28.29-7.82,56.73-16.44,85.03-7.47,2.71-2.88,4.28-5.91,6.68-6.88,11.02-4.44,22.3-8.27,33.43-12.45,1.22-.46,2.1-1.81,3.14-2.75.94,8.98,4.12,10.5,12.47,8.08,7.49-2.17,15.43-2.78,23.16-4.08,3.2.33,6.4.77,9.62.97,24.63,1.54,49.48,1.56,73.84,4.99,21.71,3.06,42.88,9.93,64.32,14.97,2.04.48,4.33-.08,6.5-.16,11.79,5.08,24.07,9.27,35.26,15.44,19.54,10.77,38.77,22.2,57.49,34.35,30.81,19.99,60.29,41.78,83.96,70.33,12.73,15.36,25.19,30.96,37.4,46.73,16.17,20.89,28.66,44.11,39.4,68.04,11.35,25.3,20.92,51.42,30.75,77.38,8.86,23.38,17.01,47.02,25.48,70.55-.24,1.04-.9,2.19-.67,3.11,7.26,29.26,14.72,58.47,21.9,87.76,2.73,11.12,4.85,22.4,7.25,33.6-10-.04-13.22,4.04-10.87,13.79.31,1.27.65,2.53,1.06,3.77,9.52,29.3,23.8,56.08,42.57,80.48,1.33,3.08,2.62,6.17,4,9.22,20.71,45.92,51.67,84.11,88.58,117.89,21.78,19.94,42.36,41.05,60.17,64.72.03,2.34.19,4.68.08,7.02-.32,6.82,1.7,9.05,8.51,9.1,1.5,0,2.99-.16,4.49-.24,2.27,3.93,4.41,7.93,6.82,11.76,19.59,31.22,33.79,64.79,40.45,100.97,4.08,22.12,5.3,44.78,7.36,67.24,1,10.96.5,22.05,1.57,33,1.24,12.68,3.46,25.26,5.26,37.88-.42,1.2-.75,2.44-1.27,3.59-4.03,9.02-1.08,13.54,8.82,13.44,1.18,12.53,7.57,22.66,14.76,32.47,1.71,2.33,2.87,5.07,4.29,7.62-1.27-.94-2.62-1.78-3.78-2.84-3.47-3.16-7.33-6.69-11.92-3.17-4.58,3.51-3.47,8.21-.54,12.77,12.91,20.01,30.94,33.56,52.79,42.42,17.24,6.99,34.83,8.4,52.82,3.49,5.79-1.58,11.5-3.45,17.25-5.19-6.3,5.01-12.06,10.99-19.01,14.84-24.12,13.39-48.71,11.36-73.24.57-4.45-1.96-9.16-3.29-13.75-4.92-.75-1.51-1.51-3.02-2.23-4.54-4.25-9-9.35-17.37-19.03-21.34-2.41-.99-5.59-.13-8.41-.12.61,2.72.71,5.7,1.93,8.12,2.9,5.73,7.03,10.91,9.42,16.82,7.55,18.69,9.61,38.19,6.78,58.14-2.21,15.55-5.11,31.02-14.05,44.33-4.87,7.24-10.93,13.69-16.45,20.49-2.83-1.85-5.66-3.7-8.5-5.55,2.16-11.91,5.29-23.74,6.27-35.75,1.58-19.31.32-38.52-3.22-57.76-7.55-41.02-20.36-79.52-47.76-112.01-3.53-4.18-6.99-6.12-12.12-4.12-2.29,7.4,2.22,12.44,5.41,18.05,4.76,8.37,9.13,16.97,13.66,25.48.35,4.37.36,8.8,1.11,13.09,5.42,31.05,6.39,62.16,1.35,93.33-6.1,37.66-17.06,73.54-39.91,104.82-11.73,16.06-26.26,28.85-44.76,36.75-.72.31-1.16,1.26-1.72,1.92-7.43-18.21-14.71-36.49-22.32-54.63-18.62-44.42-45.32-83.45-80.33-116.43-13.03-12.27-27.4-23.46-42.4-33.22-18.85-12.26-38.7-23.12-58.69-33.47-10.9-5.64-15.86-1.66-15.82,10.37ZM1049.38,1721.6c.85,6.86,1.91,16.77,3.4,26.61.53,3.52,2.51,7.59,6.72,5.99,2.21-.84,3.33-5.01,4.53-7.85.43-1.01-.51-2.52-.55-3.82-.41-11.9-1.58-23.84-.95-35.68,1.13-21.12,6.46-41.46,12.84-61.63,8.91-28.18,21.05-54.93,36.84-79.69,13.99-21.94,29.8-42.75,45.53-63.52,35.16-46.44,71.15-92.25,106.01-138.92,13.69-18.32,26.28-37.65,37.53-57.55,15.83-28,25.9-58.39,30.55-90.29,1.87-12.84,2.1-25.95,2.54-38.96.07-1.98-2.47-5.16-4.42-5.74-1.47-.43-4.25,2.1-5.79,3.88-.96,1.11-.86,3.28-.93,4.99-1.67,39.22-11.9,76.33-28.79,111.53-14.27,29.74-34.03,56.11-53.76,82.33-32.54,43.22-65.79,85.9-98.59,128.93-11.72,15.38-23.79,30.58-34.33,46.75-18.47,28.32-32.93,58.71-43.16,91.04-8.09,25.59-13.91,51.56-15.2,81.6ZM1469.1,1135.89c.81,3.02,1.15,5.2,1.98,7.19,8.67,20.89,17.21,41.88,29.72,60.85,7.53,11.42,15.33,22.73,23.73,33.52,21.74,27.94,48.67,50.67,75.52,73.37,21.26,17.98,42.25,36.16,60.19,57.55,13.54,16.14,26,32.97,34.27,52.63,2.44,5.8,6.2,11.21,10.21,16.1,1.25,1.52,6.12,1.84,7.9.63,1.86-1.27,2.68-5.06,2.69-7.75.02-2.67-1.46-5.37-2.41-8.02-11.69-32.69-31.67-60.01-56.62-83.48-22.66-21.31-46.43-41.45-70.19-61.55-29.37-24.84-55.97-52.09-75.94-85.16-7.8-12.92-14.33-26.61-21.39-39.97-3.05-5.76-5.69-11.77-9.14-17.28-1.11-1.77-4.25-3.22-6.35-3.08-1.55.1-2.92,3.02-4.18,4.46ZM1199.53,1713.1c.45,5.49.89,12.84,1.71,20.16.59,5.29,3.88,8.54,9.23,8.07,5.93-.53,6.57-5.45,6.74-10.21.43-11.94.2-23.94,1.31-35.81,2.44-26.08,8.45-51.38,19.38-75.28,14.52-31.78,35.9-58.84,59.15-84.54,21.6-23.87,43.4-47.58,58.84-76.2,8.58-15.91,16.33-32.18,19.52-50.17.63-3.58,1.07-7.81-4-8.97-5.04-1.15-6.23,2.56-7.37,6.27-5.75,18.59-14.33,35.82-24.3,52.5-15.89,26.59-37.88,48.11-58.38,70.81-22.53,24.95-43.41,50.89-57.84,81.47-14.94,31.66-22.41,65.15-23.99,101.91ZM1096.14,1709.11c.82,22.06,3.38,43.3,11.85,63.4,5.72,13.57,11.77,27,17.89,40.39,2.27,4.97,6.93,7.81,11.72,5.08,4.77-2.72,2.78-8,1.18-12.36-.07-.2-.18-.4-.26-.6-5.82-14.27-12.15-28.36-17.33-42.86-7.21-20.2-9.72-41.46-9.24-62.7.34-14.84,3.15-29.71,5.84-44.38,4.67-25.44,13.1-49.77,27.69-71.2,9.96-14.63,22.16-27.72,33.13-41.68,1.49-1.89,1.63-4.84,2.4-7.3-2.76.03-5.55-.17-8.27.19-1.11.15-2.22,1.37-3.05,2.34-12.15,14.13-25.81,27.26-36.07,42.66-25.99,38.99-36.36,83.01-37.47,129.03ZM1622.21,1574.86c-1.95-17.54-4.41-40.15-12.6-62.21-8.9-23.95-19.93-46.59-33.19-68.25-3.71-6.07-8.12-11.86-13.04-16.99-2.8-2.91-7.14-5.68-11.57-1.7-4.38,3.94-1.21,7.59.87,11,3.04,4.98,6.38,9.79,9.64,14.64,18.91,28.11,31.5,58.87,38.41,91.97,7.27,34.77,4.38,68.28-12.81,99.96-1.2,2.22-2.34,5.04-2.02,7.37.4,2.86,1.85,7.26,3.78,7.83,3.16.93,7.95.43,10.46-1.52,3.43-2.66,6.14-6.93,7.83-11.06,8.61-21.01,14.65-42.66,14.23-71.06ZM1150.95,622.71c-6.03-.3-8.52,3.28-6.79,8.47,2.93,8.84,6.73,17.38,10,26.11,12.72,33.95,25.08,68.05,38.15,101.87,12.61,32.61,25.65,65.13,44.28,94.89,6.49,10.38,14.82,19.67,22.85,28.99,2.58,3,6.99,3.89,10.37,0,3.19-3.67.56-6.53-1.77-9.11-16.25-18.01-27.76-39.14-37.1-61.09-19.29-45.37-37.08-91.37-55.55-137.08-6.1-15.11-12.27-30.19-18.74-45.14-1.43-3.3-4.28-5.97-5.71-7.91ZM1528.57,1491.33c-1.05-8.51-2.55-24.47-5.09-40.27-4.24-26.39-12.5-51.72-21.68-76.74-3.43-9.36-7.31-18.58-11.6-27.57-1.04-2.18-4.51-3.2-6.86-4.75-1.02,2.82-2.91,5.67-2.85,8.46.08,3.58,1.57,7.18,2.74,10.68,11.38,34.18,21.47,68.68,26.53,104.47,2.56,18.09,3.48,36.27.29,54.27-2.34,13.18-6.06,26.14-9.56,39.09-1.16,4.3-.41,7.94,3.28,9.38,2.63,1.02,6.88.55,9.21-1.03,2.59-1.76,4.37-5.32,5.56-8.46,7.28-19.32,9.51-39.5,10.04-67.52ZM1254.34,905.33c1.55-1.19,5.92-2.87,7.06-5.8,1.85-4.78-2.17-7.05-6.62-8.41-22.81-6.99-42.6-19.5-59.72-35.65-25.86-24.41-45.51-53.53-60.6-85.71-1.79-3.82-4.7-7.34-8.89-5.41-1.71.79-1.67,5.84-1.99,9-.14,1.39.72,2.93,1.3,4.33,8.85,21.05,18.25,41.81,32.66,59.8,15.68,19.58,32.22,38.3,53.85,51.67,12.47,7.71,25.66,13.7,42.94,16.19ZM821.96,757.67c.61,6.02.96,11.66,1.79,17.22,2.69,17.91,7.37,35.17,17.64,50.43,4.01,5.96,11.25,9.22,14.7,6.91,3.86-2.6,3.19-7.93-.07-15.53-5.19-12.1-10.75-24.28-13.82-36.99-3.16-13.09-3.62-26.85-5.08-40.34-.47-4.31-2.26-7.05-6.76-7.19-4.7-.15-6.38,2.75-6.7,7.05-.47,6.27-1.15,12.52-1.7,18.45ZM1679.47,1697.1c-1.28-1.57-3.36-6.12-5.33-6.08-2.78.07-5.77,3.26-8.09,5.67-1.18,1.23-.97,3.72-1.63,5.55-3.88,10.79-6.81,22.08-12.04,32.17-6.06,11.67-14.15,22.29-21.41,33.34-2.67,4.07-3.86,8.95.61,11.45,2.73,1.52,8.72.97,10.94-1.12,5.6-5.24,10.61-11.45,14.59-18.04,11.34-18.76,18.88-39.02,22.35-62.95ZM541.43,835.3c2.73,10.83,5.38,22.83,8.9,34.57,1.33,4.44,5.63,8.35,10.48,6.37,4.72-1.93,3.15-6.91,1.67-10.94-.37-1.02-.55-2.1-.89-3.13-5.27-16-5.43-32.37-3.57-48.89.92-8.17,1.96-16.33,2.94-24.5.47-3.94-.72-7.68-4.9-7.62-2.35.04-4.78,3.15-6.89,5.17-.82.79-1.04,2.38-1.23,3.64-2.13,14.55-4.2,29.1-6.52,45.31ZM1446.54,1345.09c-1.5-8.57-2.84-17.33-4.6-26.01-2.19-10.82-4.37-21.67-7.27-32.31-1.08-3.95-3.58-9-8.93-7.79-5.7,1.29-4.53,6.36-3.84,10.76,2.98,18.99,5.78,38.01,8.87,56.99.54,3.34,1.54,6.88,3.32,9.7,3.04,4.83,8.35,4.35,10.52-.93,1.27-3.09,1.3-6.69,1.94-10.41ZM1442.8,1409.18c-.99-5.42-1.52-11.54-3.42-17.2-.85-2.53-4.31-5.6-6.83-5.85-4.53-.44-4.73,3.62-4.79,7.4-.13,6.92-1.11,13.84-1.04,20.75.04,3.75.95,7.75,2.55,11.11.87,1.82,4.04,3.52,6.14,3.48,1.7-.03,4.3-2.49,4.82-4.34,1.32-4.75,1.7-9.76,2.57-15.36ZM1432.43,1251.54c-.19-6.67-5.52-12.78-9.72-11.98-1.96.37-4.73,2.65-5.01,4.4-.79,4.83,4.69,11.13,9.09,10.67,2.22-.24,4.25-2.28,5.64-3.09Z"/>
  <path class="cls-4" d="M583.53,902.37c5.66-2.13,11.42-4.04,16.9-6.56,1.31-.6,2.41-3.22,2.39-4.89-.21-12.16-.71-24.32-1.16-36.47-.25-6.56.43-12.57-2.76-19.53-3.24-7.08-1.28-16.97-.28-25.47,3.31-28.18,12.66-54.66,26.22-79.32,13.39-24.33,27.56-48.37,43.32-71.2,15.63-22.63,33.39-43.83,50.81-65.16,6.12-7.5,13.99-13.59,21.16-20.21,1.4-1.29,3.25-2.73,4.98-2.84,2.59-.17,6.18-.05,7.58,1.52,1.13,1.27.45,5.36-.79,7.34-5.98,9.59-12.7,18.71-18.64,28.32-15.57,25.19-29.18,51.33-38.96,79.42-9.96,28.62-16.97,57.88-19.37,88.06-.85,10.67.52,21.52.89,32.47h22.27c0-7.02-.1-13.63.02-20.25.53-29.34,6.7-57.72,14.7-85.78,1.48-5.21,3.03-10.54,5.59-15.25,1.39-2.55,5.43-5.88,7.48-5.4,4.46,1.04,5.7,5.53,4.62,10.07-2.61,10.97-5.71,21.83-7.92,32.88-5.08,25.37-8.04,50.96-7.26,76.91.19,6.17,1.46,10.47,9.09,10.31,4.53-.09,9.1,1.35,13.65,2.11,1.11.82,2.13,1.82,3.34,2.43,4.59,2.33,9.7,3.94,13.68,7.03,2.11,1.64,2.3,5.77,3.35,8.78-2.74.93-5.44,2.48-8.22,2.62-2.89.15-5.84-1.07-8.77-1.69-6.44-1.62-12.88-3.23-19.65-4.93,1.04,6.01,1.87,10.83,2.7,15.66-5.6,5.6-9.67,5.24-17.09-1.49-1.63-4.43-3.17-8.91-4.95-13.28-.51-1.25-1.71-3.11-2.66-3.16-6.07-.29-12.16-.15-19.48-.15,2.07,3.37,3.37,5.49,4.67,7.62-.77,2.95-.92,7.97-2.45,8.44-3.34,1.02-8.25.97-10.96-.9-4.05-2.8-6.75-7.54-10.58-12.12-5.87,2.44-12.81,4.9-19.33,8.19-4.45,2.25-8.24,3.24-11.38-1.31-3.29-4.78-.44-8.69,3.29-11.09,5.78-3.72,11.93-7.08,18.32-9.59,4.66-1.83,5.77-3.72,5.48-8.9-.84-15.09-1.95-30.38-.37-45.32,2.55-24.12,9.02-47.57,17.01-70.52.61-1.74.39-3.77.55-5.66-13.64,18.09-24.22,37.24-32.46,57.75-10.83,26.96-18.15,54.78-19.84,83.75-1.19,20.46-.53,41.03-.78,61.54-.04,3.4.98,4.71,4.64,3.96,20.91-4.26,42.01-6.07,63.27-3.58,21.24,2.48,42.69,4.14,63.58,8.44,23.69,4.87,40.55,18.87,46.06,43.8.67,3.05,1.14,6.14,1.75,9.46,24.12-13.7,47.57-11.1,70.95,1.1.57-1.24,1.25-2.17,1.41-3.18,4.36-27.84,21.91-42.97,47.84-50.62,33.39-9.85,67.55-8.76,101.56-6.73,24.34,1.45,48.76,4.12,72.14,12.32,19.75,6.93,35.22,18.18,42.47,39.82,10.75-1.03,21.85-2.09,32.96-3.15,22.58-.59,45.16-1.19,67.73-1.82.31,0,.61-.5.99-.84-11.85-5.72-23.88-11-35.42-17.21-17.43-9.37-31.63-22.8-44.07-38-1.73-2.12-.95-6.29-1.33-9.51,3,.49,6.78,0,8.88,1.65,9.05,7.11,17.22,15.36,26.41,22.25,17.7,13.27,37.66,22.38,58.48,29.64,3.08,1.07,6.39,1.79,9.13,3.44,3.24,1.95,5.97,4.73,8.92,7.15-.37.65-.74,1.3-1.11,1.95,8.15,0,16.35-.61,24.43.11,25.93,2.33,44.68,15.46,55.88,38.99,9.56,20.08,12.5,41.48,10.74,63.4-3.46,43.19-24.57,76.89-58.6,102.38-12.24,9.17-27.08,14.61-42.4,17.41-4.14.76-5.18,2.44-5.28,6.4-.59,23.09-4.49,45.73-10.42,68.01-9.01,33.86-21.33,66.59-39.28,96.64-15.21,25.46-32.73,49.54-49.34,74.16-8.02,11.89-16.28,23.61-24.45,35.4-.61.88-1.36,1.67-2.05,2.51-3.66,4.5-7.32,9.01-10.99,13.51-9.19,12.27-18.58,24.38-27.51,36.83-15.03,20.93-30.47,41.61-44.46,63.22-24.77,38.27-41.9,79.72-47.36,125.36-3.36,28.06,2.16,55.12,10.56,81.74,2.18,6.98,4.22,14.01,6.58,20.93,3.21,9.37.71,13.16-8.84,12.92-10.95-12.69-15.16-28.59-19.96-43.96-4.95-15.87-8.34-32.12-8.52-49.07-.25-22.94,3.46-45.08,9.48-67.08,9.53-34.83,25.48-66.63,45.28-96.56,13.13-19.85,27.06-39.16,40.59-58.74,2.2-3.19,4.17-6.54,6.24-9.82,5.46-6.57,10.92-13.14,16.39-19.72,1.77-2.65,3.54-5.31,5.32-7.96.38-.41.75-.82,1.13-1.23.7-1.2,1.41-2.39,2.11-3.59.54-.62,1.07-1.24,1.61-1.85l.13-.12c1.29-.94,2.91-1.63,3.82-2.84,9.63-12.85,19.28-25.7,28.66-38.73,11.02-15.31,22.52-30.35,32.5-46.33,20.31-32.51,36.99-66.82,48.59-103.53,7.23-22.87,12.67-46.08,14.97-69.92,1.63-16.99,2.27-34.08,3.37-51.12,1.98-30.49-1.06-60.71-5.46-90.79-1.88-12.82-5.59-25.36-8.01-38.11-.54-2.84.48-6.21,1.66-8.97.28-.65,4.11.22,6.31.4.61.67,1.21,1.34,1.81,2.01,4.68,11.86,9.35,23.71,14.06,35.64.24-.22,1.18-.98,1.98-1.87,8.01-8.94,16.61-17.26,27.95-21.78,3.91-1.56,8.46-2.27,12.64-2.03,1.88.11,4.53,3.28,4.99,5.46.29,1.37-2.54,3.99-4.5,5.1-2.77,1.58-6.14,2.04-9.06,3.41-13.02,6.13-21.92,16.87-30.22,28.04-1.51,2.04-1.35,5.72-1.13,8.57,1.37,17.78,3.36,35.52,4.39,53.32.69,11.99.13,24.05.13,37.95,10.55-4.78,21.25-7.87,29.93-13.88,27.91-19.32,46.82-44.98,52.94-79.33,3.94-22.09,2.39-43.07-7.42-63.42-8.27-17.17-25.29-28.25-42.56-26.33-17.15,1.91-31.09,10.1-41.79,23.64-3.18,4.02-6.1,8.17-12.22,5.8-.34-.37-.67-.74-1.01-1.11-6.14-10.58,2.22-17.46,7.82-26.06-23.29,1.07-45.2,2.08-67.11,3.09-10.98.53-21.95,1.06-32.97,1.59-.61,8.15-1.28,16.08-1.8,24.01-1.59,24.36-6.89,47.81-17.38,69.94-10.25,21.65-27.86,34-50.53,40.27-25.84,7.14-52.29,8.07-78.61,6.04-18.41-1.42-36.81-5.36-54.73-10.03-30.74-8.01-50.05-28.64-57.71-59.23-4.18-16.7-5.98-33.98-9.34-50.9-.73-3.71-2.71-7.92-5.48-10.34-18.03-15.79-42.4-16.26-58.5-2.12-4.18,3.67-4.34,8.06-5.19,12.74-2.96,16.32-5.17,32.86-9.52,48.81-8.85,32.42-30.88,49.89-64.13,54.86-25.01,3.74-49.33,1.14-73.71-3.83-3.8-.77-7.68-1.14-12.39-1.81,0,4.98-.19,9.81.03,14.63,1.99,44.44,11.73,86.94,35.73,124.82,26.94,42.54,62.57,76.38,107.79,99.28,25.47,12.9,52.68,18.22,81.32,19.11,41.3,1.29,80.53-7.6,118.62-21.87,18.52-6.93,35.83-17.06,53.73-25.66,4.27-2.05,8.73-6.26,13.29-.86,3.14,3.71,1.05,8.88-5.47,13.38-26.41,18.22-54.63,32.89-85.33,42.49-12.98,4.06-26.05,7.83-38.91,11.68,4.16,16.51,8.89,33.58,12.7,50.85,4.18,18.99,8.11,38.07,11.05,57.28,2.54,16.64,4.73,33.51,4.93,50.3.25,20.88-2.86,41.57-11.55,60.96-2.8,6.25-8.38,9.65-12.59,7.97-5.67-2.27-7.24-8.14-4.63-15.47,5.95-16.7,8.32-34.01,8.28-51.5-13.1,5.93-26.27,11.63-39.21,17.81-13.82,6.6-27.69,13.16-41.05,20.62-18.49,10.33-37.07,20.67-54.6,32.51-18.25,12.33-36.11,25.51-52.66,40-23.09,20.22-42.13,44.16-56.18,71.62-11.91,23.29-23.54,46.76-34.28,70.6-5.57,12.36-9.05,25.68-13.3,38.62-2.98,9.08-7.36,12.57-14.17,10.75-6.61-1.76-10.35-8.65-8.6-16.63,5.79-26.44,16.75-50.95,28.91-74.91,8.81-17.37,18.52-34.28,27.82-51.4,2.23-3.62,4.47-7.25,6.7-10.87,1.33-1.97,2.5-4.08,4.03-5.88,17.82-20.98,35.35-42.02,57.49-59.08,25.36-19.53,51.16-38.09,79.57-52.89,3.88-2.02,7.47-4.58,11.77-7.25-2.94-1.04-4.86-1.51-6.6-2.36-26.13-12.65-45.15-32.86-59.49-57.53-12.6-21.68-21.52-44.94-26.69-69.58-4.87-23.19-8.41-46.5-6.95-70.31.27-4.45,1.35-8.92,6.51-8.95,5.12-.03,6.29,4.61,6.83,8.88,2.16,16.98,3.71,34.05,6.46,50.93,5.67,34.75,17.17,67.31,38.57,95.78,13.62,18.12,31.17,31.1,51.71,40.66,5.54,2.58,9.1,2.38,14.1-.33,11.63-6.3,23.55-12.08,35.48-17.8,12.04-5.78,24.24-11.24,36.59-16.95-1.74-12.14-3.14-24.19-5.26-36.12-2.31-13.02-4.93-26-8.08-38.84-4.53-18.52-9.59-36.92-14.68-55.29-.4-1.44-2.76-3.05-4.39-3.29-2.92-.42-5.99.02-8.98.34-25.17,2.72-50.09.38-74.24-6.41-30.37-8.55-57.16-24.35-81.77-44.1-21.76-17.47-40.91-37.22-57.9-59.42-24.32-31.77-38.75-67.51-46.62-106.35-4.43-21.87-5.14-43.99-5.09-66.17,0-3.74-1.37-5.54-4.55-7.54-7.1-4.47-13.65-9.82-20.51-14.7-1.79-1.27-3.9-2.1-5.86-3.13-3.09-5.79-6.37-11.48-9.24-17.38-8.51-17.48-12.82-36.23-16.13-55.24-1.63-9.34-3.52-18.7-4.14-28.13-1.39-21.02.89-40.9,21.38-53.29ZM1116.66,974.36c-.19-3.69-.35-6.51-.49-9.33-.92-19.36-9.01-33.67-28.22-40.19-4.09-1.39-8.11-3.03-12.26-4.23-31.26-9.05-63.46-10.41-95.59-9.69-16.91.38-33.94,3.6-50.53,7.3-14.6,3.25-27.81,10.68-31.73,26.63-2.81,11.45-4.55,23.54-4.21,35.27.41,14.3,3.31,28.54,5.47,42.76,3.37,22.18,15.01,38.2,35.58,47.83,14.99,7.02,30.95,9.43,47.06,11.72,27.68,3.94,55.06,3.46,82.31-3.49,16.07-4.1,27.95-12.63,35.73-27.59,12.74-24.52,16.04-50.89,16.88-77ZM642.91,1061.56c7.27,1.74,15.95,4.33,24.82,5.84,19.79,3.36,39.75,5.15,59.6.8,12.7-2.78,25.75-6.11,32.84-18.49,4.99-8.72,9.61-17.95,12.47-27.53,5.78-19.37,7.65-39.5,6.9-59.65-.45-12-1.53-24.39-10.92-33.78-10.25-10.25-23.68-13.68-37.15-15.48-18.55-2.48-37.31-4.18-56.01-4.46-16.7-.26-33.43,1.86-51.52,3.01,4.96,26.09,10.75,50.14,13.83,74.54,3.1,24.6,3.5,49.55,5.14,75.21ZM585.09,958.23c2.69,13.79,4.7,26.62,7.78,39.18,3.93,16.05,8.43,32.06,19.55,45.02,2.65,3.09,6.11,5.47,9.3,8.27,1.09-1.54,1.5-1.86,1.53-2.21,2.29-29.56-2.21-58.43-9.09-87.03-.31-1.27-2.14-3.06-3.32-3.09-8.2-.27-16.42-.14-25.76-.14ZM586.76,937.1h23.03c-1.15-6.3-2.21-12.08-3.34-18.31-9.92,2.92-16.83,7.61-19.69,18.31Z"/>
  <path class="cls-1" d="M591.66,1056.41c1.96,1.03,4.07,1.86,5.86,3.13,6.86,4.87,13.4,10.23,20.51,14.7,3.17,2,4.55,3.79,4.55,7.54-.05,22.18.65,44.3,5.09,66.17,7.87,38.84,22.31,74.58,46.62,106.35,16.99,22.2,36.14,41.94,57.9,59.42,24.6,19.75,51.39,35.55,81.77,44.1,24.15,6.8,49.07,9.14,74.24,6.41,2.98-.32,6.06-.76,8.98-.34,1.63.23,3.99,1.84,4.39,3.29,5.1,18.38,10.15,36.77,14.68,55.29,3.14,12.84,5.76,25.83,8.08,38.84,2.12,11.92,3.52,23.97,5.26,36.12-12.35,5.7-24.55,11.17-36.59,16.95-11.93,5.73-23.85,11.5-35.48,17.8-5,2.71-8.55,2.91-14.1.33-20.54-9.56-38.09-22.54-51.71-40.66-21.4-28.47-32.9-61.03-38.57-95.78-2.75-16.88-4.31-33.95-6.46-50.93-.54-4.26-1.7-8.9-6.83-8.88-5.16.03-6.24,4.49-6.51,8.95-1.45,23.81,2.09,47.12,6.95,70.31,5.17,24.63,14.09,47.89,26.69,69.58,14.34,24.68,33.36,44.89,59.49,57.53,1.74.84,3.66,1.32,6.6,2.36-4.3,2.67-7.89,5.23-11.77,7.25-28.42,14.8-54.22,33.36-79.57,52.89-22.14,17.05-39.67,38.09-57.49,59.08-1.53,1.8-2.7,3.91-4.03,5.88-2.15-.58-4.27-1.51-6.45-1.67-3.8-.28-7.64-.09-11.47-.09-12.69-4.46-22.67-12.63-31.23-22.77-14.19-16.83-26.85-34.69-34.72-55.39-2.73-7.19-3.56-15.1-5.15-22.71-.62-2.96-.96-5.97-1.43-8.96,3.36.53,6.72,1.07,9.74,1.55,1.15,7.39,2.11,14.25,3.31,21.07,5.12,29.09,19.16,52.89,43.22,70.15,6.65,4.77,13.53,10.97,22.88,9.23,2.95-.55,5.56-2.97,8.32-4.54-1.72-2.91-2.74-6.89-5.29-8.57-13.88-9.16-26.83-19.1-36.14-33.25-14.22-21.62-18.57-45.97-16.99-70.85,1.65-25.9,6.28-51.61,9.75-77.39,3.42-25.34,7.83-50.57,10.33-76,2.65-26.92.25-53.88-3.79-80.57-1.88-12.41-4.9-24.66-7.92-36.85-.52-2.1-3.65-3.55-5.58-5.3-1.42,2.64-4.22,5.39-4.02,7.89,1.15,14.27,3.41,28.45,4.55,42.71,1.28,15.94,2.77,31.97,2.41,47.92-.64,28.46-5.95,56.4-11.32,84.32-5.73,29.81-10.58,59.79-15.9,90.22-1.54-.38-4.02-1-6.49-1.61.03-5.66-.26-11.34.13-16.97,2.23-31.62,5.32-63.19,6.72-94.84.81-18.36-.44-36.88-1.81-55.26-1.49-19.89-4.36-39.67-6.32-59.53-1.27-12.81-1.99-25.67-3.09-40.32-1.62,3.73-2.53,5.85-3.46,7.97-6.73,15.32-13.47,30.63-20.21,45.95-10.06,22.86-20.15,45.71-30.19,68.58-2.64,6.01-5.17,12.07-7.75,18.1.3-3.87.01-7.89.98-11.58,8.08-30.86,16.16-61.72,24.69-92.45,8.27-29.81,17.47-59.36,25.48-89.24,4.15-15.48,7.34-31.31,9.69-47.17,2.94-19.95,4.58-40.09,6.77-60.14,1.88-17.17.75-34.18-2.8-51.06-.02-.55-.05-1.1-.07-1.64l.15.23c.64-.94,1.27-1.88,1.91-2.82ZM877.19,1508.13c3.32-2.23,7.28-3.48,7.9-5.67.76-2.72-.41-6.86-2.25-9.21-2.3-2.95-5.97-4.98-9.33-6.94-32.78-19.17-49.15-49.73-58.82-84.84-2.64-9.59-4.22-19.46-6.74-29.09-.95-3.62-2.42-7.86-7.61-7.44-4.84.39-5.48,4.37-6.04,8.05-.36,2.34-.74,4.88-.22,7.12,3.13,13.27,5.66,26.76,10,39.64,9.41,27.86,22.46,53.79,46.58,72.13,8,6.08,17.19,10.6,26.53,16.25ZM673.48,1504.46c.38,24.32,2.7,43.62,10.88,61.69,6.23,13.77,14.02,26.5,27.57,34.59,4.1,2.45,8.2,3.71,11.76-.32,3.77-4.27,1.22-8.02-1.87-11.45-3.2-3.54-6.69-6.87-9.57-10.66-17.04-22.39-23.12-48.11-22.43-75.74.2-7.77,1.09-15.53,1.66-23.29.39-5.21-2.4-8.61-7.08-9.4-4.75-.8-6.22,3.33-6.83,7.1-1.72,10.66-3.19,21.37-4.09,27.48ZM913.91,1472.4c-1.92-2.09-4.53-6.12-8.16-8.7-16-11.33-29.44-25.13-39.45-41.87-7.34-12.27-13.06-25.5-20.07-37.98-1.58-2.82-5.56-4.29-8.44-6.38-1.25,3.63-2.62,7.23-3.66,10.92-.24.86.59,2.03.93,3.06,8.64,26.07,21.08,50.02,41.03,69.25,7.73,7.45,16.7,13.73,25.61,19.81,5.94,4.05,11.99.78,12.23-8.11ZM884.55,1391.74c.74,14.96,17.76,38.55,27.66,39.44-9-12.84-17.93-25.57-27.66-39.44Z"/>
  <path class="cls-4" d="M1021.24,416.02c-7.74,1.3-15.68,1.92-23.16,4.08-8.35,2.42-11.53.9-12.47-8.08,1.64-7.33,8.26-8.66,13.77-10.39,18.52-5.82,37.65-8.94,57.02-8.82,12.73.08,25.53,1.67,38.14,3.61,15.83,2.43,31.64,5.31,47.2,9.07,40.98,9.9,79.17,26.73,114.52,49.52,22.59,14.56,44.78,29.86,66.17,46.12,30.27,23.01,54.93,51.52,77.36,82.17,21.93,29.95,39.82,62.06,54.28,96.1,7.71,18.16,14.08,36.89,21.03,55.37,5.65,15.01,11.29,30.02,16.9,45.05,8.25,22.12,16.42,44.27,24.69,66.39,18.22,48.68,41.41,94.65,75.4,134.41,14.22,16.64,29.62,32.28,44.54,48.32,20.78,22.35,42.63,43.92,57.74,70.8,12.53,22.28,20.1,46.45,24.94,71.53.48,2.51,2.13,5.31,4.09,6.93,40.92,33.84,70.44,75.47,87.51,125.94,7.26,21.46,13.78,43.19,14.64,65.77,1.26,32.87-5.28,64.79-17.7,95.25-6.46,15.83-14.23,31.13-21.6,46.57-1.08,2.26-3.25,4.01-4.92,5.99-9.9.1-12.86-4.42-8.83-13.44.52-1.16.85-2.39,1.27-3.59,5.76-14.21,11.75-28.33,17.23-42.65,12.81-33.45,19.44-67.79,13.51-103.68-3.83-23.2-10.87-45.46-20.38-66.94-9.27-20.92-21.79-39.92-35.99-57.7-7.58-9.49-16.7-17.76-25.74-27.22-1.12,12.09-2.04,22.78-3.13,33.45-.56,5.45-1.47,10.84-6.96,13.88-1.5.08-2.99.25-4.49.24-6.81-.04-8.83-2.28-8.51-9.1.11-2.33-.04-4.68-.08-7.02,2.86-14.3,3.12-28.67,2.22-43.23-.42-6.79-3.47-10.59-8.31-14.25-12.6-9.52-25.15-19.12-37.56-28.91-17.64-13.92-36.17-26.94-52.43-42.34-20.51-19.43-40.41-39.72-56.67-63.11-18.78-24.4-33.06-51.18-42.57-80.48-.4-1.24-.75-2.5-1.06-3.77-2.36-9.75.87-13.83,10.87-13.79,2.9,6.51,5.88,12.98,8.69,19.53,13.78,32.09,31.56,61.69,55.3,87.45,11.61,12.6,23.04,25.48,35.65,37.04,13.88,12.72,28.93,24.19,43.65,35.98,11.98,9.6,24.23,18.86,37.62,29.25-.73-3.32-.82-5.08-1.5-6.58-6.93-15.38-12.45-31.65-21.27-45.86-16.63-26.79-40.17-48.1-61.14-71.42-11.26-12.52-23.86-23.98-34.01-37.32-14.13-18.59-26.7-38.39-39.64-57.87-16.57-24.95-26.29-53.16-37.7-80.54-4.74-11.37-9.43-22.75-14.14-34.13-8.47-23.53-16.62-47.17-25.48-70.55-9.83-25.96-19.41-52.07-30.75-77.38-10.73-23.93-23.23-47.15-39.4-68.04-12.21-15.77-24.67-31.37-37.4-46.73-23.67-28.55-53.15-50.34-83.96-70.33-18.72-12.14-37.95-23.58-57.49-34.35-11.19-6.17-23.47-10.36-35.26-15.44-6.93-2.67-13.69-6.01-20.83-7.88-16.93-4.44-33.98-8.51-51.11-12.14-22.68-4.82-45.69-6.32-68.81-4.61-4.58.34-9.02,2.53-13.53,3.86Z"/>
  <path class="cls-4" d="M590.85,1538.61c2.47.61,4.95,1.23,6.49,1.61,5.32-30.43,10.18-60.41,15.9-90.22,5.36-27.92,10.68-55.86,11.32-84.32.36-15.95-1.13-31.98-2.41-47.92-1.15-14.27-3.4-28.45-4.55-42.71-.2-2.51,2.6-5.25,4.02-7.89,1.93,1.75,5.06,3.2,5.58,5.3,3.02,12.19,6.04,24.45,7.92,36.85,4.04,26.7,6.43,53.65,3.79,80.57-2.5,25.43-6.91,50.66-10.33,76-3.48,25.78-8.11,51.49-9.75,77.39-1.58,24.88,2.77,49.23,16.99,70.85,9.31,14.16,22.26,24.1,36.14,33.25,2.54,1.68,3.56,5.65,5.29,8.57-2.76,1.57-5.37,3.99-8.32,4.54-9.35,1.74-16.22-4.46-22.88-9.23-24.06-17.26-38.1-41.06-43.22-70.15-1.2-6.82-2.16-13.68-3.31-21.07-3.01-.48-6.37-1.01-9.74-1.55-13.5-1.98-25.53-7.52-36.82-14.99-20.59-13.63-34.29-32.41-42.97-55.41-8.47-22.45-9.65-45.36-7.26-68.93,3.95-38.91,17.13-75.37,28.52-112.38,11.01-35.77,22.17-71.55,31.24-107.83,8.39-33.55,16-67.47,16.84-102.38.23-9.7.59-19.4,1.1-29.09.42-7.88,1.47-8.67,9.32-8.25,0,0-.15-.23-.15-.23.02.55.05,1.1.08,1.64,3.55,16.88,4.68,33.88,2.8,51.06-2.2,20.06-3.83,40.2-6.77,60.14-2.34,15.86-5.53,31.69-9.69,47.17-8.02,29.87-17.21,59.43-25.48,89.24-8.53,30.74-16.61,61.6-24.69,92.45-.97,3.69-.68,7.71-.98,11.58-.29,1.21-.58,2.43-.88,3.64-.23,1.3-.47,2.6-.7,3.9-1.87,15.78-2.17,31.44,1.34,47.14,6.81,30.47,23.74,53.02,51.58,67.11,4.49,2.27,9.74,3.06,14.64,4.54Z"/>
  <path class="cls-1" d="M1173.82,963.97c21.91-1.01,43.83-2.02,67.11-3.09-5.6,8.6-13.96,15.48-7.82,26.06-.31.27-.63.54-.94.81-2.2-.17-6.03-1.05-6.31-.4-1.18,2.75-2.19,6.13-1.66,8.97,2.42,12.75,6.14,25.29,8.01,38.11,4.4,30.07,7.44,60.3,5.46,90.79-1.11,17.04-1.74,34.13-3.37,51.12-2.29,23.84-7.74,47.05-14.97,69.92-11.6,36.71-28.28,71.01-48.59,103.53-9.98,15.98-21.48,31.01-32.5,46.33-9.38,13.03-19.03,25.88-28.66,38.73-.91,1.22-2.53,1.91-3.82,2.84,4.51-8.77,8.77-17.68,13.57-26.3,14.36-25.79,26.79-52.43,36.27-80.41,6.63,7.59,12.54,7.06,15.63-2.44,4.89-15.02,10.42-30.17,12.55-45.69,5.19-37.82,8.99-75.85,12.51-113.88,1.78-19.24,1.93-38.64,2.29-57.98.05-2.75-2.9-5.55-4.46-8.33-2.23,2.54-5.63,4.75-6.42,7.68-1.46,5.38-1.43,11.17-1.93,16.79-1.17,13.2-1.87,26.52-10.24,37.77.94-15.56,2.27-31.11,2.74-46.69.67-22.45,1.63-44.95.8-67.36-1.04-28.15-3.75-56.23-5.71-84.35-.06-.83.3-1.69.46-2.54Z"/>
  <path class="cls-4" d="M855.47,436.84c.51,5.54-2.63,7.97-7.53,9.11-1.21.28-2.24,1.31-3.36,2-16.3,3.68-33.09,5.95-48.78,11.4-20.81,7.22-41.41,15.67-60.9,25.9-22.95,12.04-45.48,25.32-66.6,40.31-24.85,17.64-48.22,37.41-71.76,56.83-11.82,9.76-22.62,20.75-33.82,31.26-20.92,19.62-39.49,41.25-55.93,64.78-17.75,25.41-32.3,52.39-40.77,82.33-7.8,27.57-4.49,54.51,5.11,81.1,1.1,3.04.67,7.29-.64,10.28-.68,1.55-4.88,2.21-7.43,2.08-1.82-.1-4.27-1.79-5.18-3.45-3.99-7.33-8.28-14.65-11.07-22.47-5.24-14.67-6.35-30.16-4.87-45.51,1.78-18.37,6.42-36.13,13.52-53.37,14.73-35.76,35.95-67.35,61.65-95.8,16.49-18.26,34.71-35,52.68-51.86,16.09-15.1,32.34-30.12,49.54-43.91,17.69-14.18,36.43-27.07,55.07-40.01,11.01-7.64,22.33-15.01,34.19-21.2,17.42-9.1,35.45-17.04,53.2-25.51,1.69-.81,3.56-1.6,4.82-2.9,17.89-18.45,40.58-28.77,64.46-35.97,17.96-5.42,36.66-9,55.29-11.48,19.27-2.56,38.82-2.07,57.99,2.41,1.25.29,2.43.93,3.62,1.44,3.7,1.58,7.75,3.27,6.3,8.34-1.45,5.07-5.52,4.21-9.65,3.62-22.13-3.16-44.14-1.22-65.96,2.65-13.64,2.42-27.1,5.92-40.63,8.98-2.05.46-4.05,1.15-6.01,3.27,5.12.34,10.32.26,15.33,1.19,2.86.54,5.41,2.74,8.1,4.19Z"/>
  <path class="cls-4" d="M1314.13,1863.33c-8.77-4.23-17.99-7.73-26.22-12.83-19.41-12.03-28.6-30.99-32.76-52.62-7.7-40.03,4.34-74.88,30.03-105.18,10.05-11.85,22.5-21.69,33.96-32.33,24.8-23.01,49.2-46.62,64.49-77.23,9.65-19.32,17.65-39.69,24.19-60.29,6.39-20.17,9.98-41.22,14.81-61.89.3-1.27.37-2.76,1.1-3.73,1.82-2.41,3.97-4.58,5.98-6.84,1.9,2.84,5.61,5.83,5.39,8.49-1.24,14.67-2.56,29.44-5.5,43.83-5.45,26.66-13.92,52.43-25.94,76.97-.77,1.57.13,3.95.26,5.96-2.09,2.26-4.81,4.19-6.18,6.82-14.84,28.51-36.45,51.39-59.94,72.75-2.88,2.61-5.5,5.51-8.24,8.27-.39.44-.78.87-1.16,1.31,0,0-.08.09-.08.09-7.26,6.14-14.99,11.81-21.72,18.49-32.57,32.34-44.62,70.43-30.41,115.08,5.34,16.79,17.72,27.2,34.06,33.12.4.12.74.34,1.02.65.49.31.98.62,1.47.93,4.02.64,8.03,1.65,12.07,1.84,6.14.29,10.07,3,10.13,7.71.06,5.23-4.29,9.88-9.76,10.25-3.68.25-7.37.27-11.05.39Z"/>
  <path class="cls-4" d="M1409.22,1588.54c-.04-12.03,4.92-16.01,15.82-10.37,19.99,10.35,39.84,21.2,58.69,33.47,15.01,9.76,29.37,20.95,42.4,33.22,35.01,32.98,61.7,72.01,80.33,116.43,7.61,18.14,14.89,36.41,22.32,54.63,3.31,13.43,6.62,26.86,9.93,40.3.16.63.27,1.28.35,1.93.99,7.9-1.9,13.67-7.38,14.76-6.59,1.31-11.88-2.5-13.77-10.68-6.01-25.98-13.78-51.45-24.52-75.83-9.06-20.55-18.13-41.29-29.55-60.56-14.21-23.98-29.81-47.54-51.36-65.76-17.15-14.5-35.36-27.87-53.91-40.58-13.72-9.4-28.77-16.85-43.12-25.34-2.36-1.4-4.17-3.72-6.23-5.62Z"/>
  <path class="cls-1" d="M1095.46,1452.45c-5.46,6.57-10.93,13.15-16.39,19.72-.04-.86.25-2-.19-2.55-11.85-14.72-9.17-31.92-7.42-48.46,3.25-30.61,14.06-58.95,28.48-86.02,17.45-32.76,34.81-65.56,52.04-98.42,1.43-2.73,1.63-6.12,2.41-9.2,8.21-10.5,16.42-21,24.63-31.5l1.25-.05c-2.19,15.04-4.38,30.07-6.57,45.11-1.48,1.7-3.36,3.19-4.37,5.14-8.5,16.39-16.22,33.22-25.37,49.23-13.49,23.58-27.45,46.83-36.21,72.78-8.59,25.46-14.7,51.33-14.64,78.35,0,1.96,1.54,3.92,2.36,5.87Z"/>
  <path class="cls-4" d="M1173.7,1241.09c2.19-15.04,4.38-30.07,6.57-45.11l-1.25.05c-8.21,10.5-16.42,21-24.63,31.5-4.79,3.7-9.29,7.89-14.5,10.85-2.14,1.22-5.78-.2-8.74-.42.32-2.71-.3-6.13,1.12-8.01,7.44-9.86,16.18-18.81,22.98-29.06,7.59-11.44,13.57-23.94,20.26-35.98,8.36-11.25,9.06-24.57,10.24-37.77.5-5.63.47-11.42,1.93-16.79.79-2.92,4.2-5.14,6.42-7.68,1.56,2.78,4.51,5.58,4.46,8.33-.36,19.34-.51,38.74-2.29,57.98-3.52,38.02-7.32,76.06-12.51,113.88-2.13,15.52-7.66,30.67-12.55,45.69-3.09,9.5-9,10.04-15.63,2.44,1.74-6.55,3.84-13.02,5.14-19.65,4.35-22.13,8.42-44.32,12.6-66.49.12-.56.25-1.13.37-1.69,0-.69,0-1.39-.01-2.08Z"/>
  <path class="cls-4" d="M1712.71,1566.01c-4.53-8.5-8.89-17.1-13.66-25.48-3.19-5.61-7.7-10.65-5.41-18.05,5.13-2,8.59-.06,12.12,4.12,27.4,32.49,40.21,70.98,47.76,112.01,3.54,19.24,4.79,38.46,3.22,57.76-.98,12.01-4.11,23.84-6.27,35.75-4.62,15.91-11.99,30.42-22.05,43.6-3.06,4.01-7.06,6.61-11.69,4.67-2.28-.95-4.37-4.89-4.55-7.6-.18-2.66,2.19-5.49,3.42-8.25,5.98-13.4,13.13-26.41,17.64-40.29,6.8-20.91,7.73-42.8,5.93-64.69-2.57-31.34-11.56-60.98-24.17-89.63-.61-1.38-1.52-2.62-2.29-3.92Z"/>
  <path class="cls-4" d="M488.57,842.41c.13-9.1.58-18.21.32-27.3-.53-18.73,5.7-35.9,10.86-53.49,7.07-24.09,22.55-43.13,36.26-63.17,5.37-7.86,13.66-13.83,21.06-20.15,3.61-3.09,8.75-4.18,12.31-.09,3.76,4.32.33,7.74-2.86,11.12-31.07,32.94-52.33,70.9-57.63,116.49-2.76,23.7,1.2,46.24,14.83,66.56,1.48,2.21.64,5.98.88,9.02-5.5,7.43-13.3,6.91-18.32-2.05-5.32-9.51-9.61-19.59-14.32-29.43-1.19-2.48-2.26-5.01-3.39-7.52Z"/>
  <path class="cls-4" d="M932.18,1675.17c8.76-.73,16.53-1.26,24.28-2.06,4.37-.46,7.74.23,9.14,5.05,1.42,4.9-1.85,7.38-5.37,8.15-10.27,2.25-20.66,4.79-31.09,5.31-18.67.93-36.19-3.85-50.58-16.33-19.9-17.26-26.48-39.64-22.21-65.14,2.77-16.58,8.82-32.15,18.02-46.33,2.23-3.44,4.79-6.73,7.56-9.75,2.94-3.2,7.47-4.6,10.36-1.51,1.63,1.75,1.07,6.86-.17,9.75-4.76,11.08-11.03,21.57-15.15,32.86-4.25,11.61-5.92,23.89-3.77,36.47,4.12,24.09,19.13,35.48,41.31,41.24,6.01,1.56,12.41,1.65,17.69,2.3Z"/>
  <path class="cls-4" d="M1907.01,1605.29c-5.75,1.74-11.46,3.61-17.25,5.19-17.99,4.91-35.58,3.51-52.82-3.49-21.85-8.86-39.88-22.41-52.79-42.42-2.94-4.55-4.04-9.26.54-12.77,4.59-3.52,8.45.01,11.92,3.17,1.16,1.06,2.52,1.9,3.78,2.84,10.51,12.02,22.92,21.45,37.04,29.01,23.34,12.51,46.02,9.06,68.42-1.89,7.71-3.77,14.85-8.78,22.03-13.57,4.03-2.69,8.09-2.95,11.33.1,3.32,3.12,2.69,7.74-.49,10.51-7.31,6.36-15.1,12.19-22.84,18.03-2.73,2.06-5.89,3.53-8.86,5.28Z"/>
  <path class="cls-4" d="M937.22,1874.86c2.8-6.37,8.83-6.72,14.51-8.29,10.19-2.8,20.63-5.34,30.14-9.77,12.02-5.6,21.15-15.16,27.72-26.78,11.26-19.92,13.52-41.44,10.89-63.78-1.06-9.06-2.47-18.12-2.73-27.21-.08-3,2.95-6.08,4.56-9.13,2.53,2.23,6.85,4.14,7.32,6.74,3.83,21.08,8.16,42.15,7.44,63.77-4.17,29.6-17.57,53.77-43.32,69.64-12.92,7.96-27.47,12.7-42.98,12.72-5.76,0-11.84-.5-13.55-7.91Z"/>
  <path class="cls-4" d="M1044.45,1983.27c.45-5.13,3.87-7.55,8.39-7.23,15.79,1.11,29.34-5.12,42.21-12.85,33.55-20.17,55.18-50.44,70.45-85.66,2.89-6.67,4.03-14.13,5.67-21.3.88-3.86,1.95-8.08,6.56-7.24,4.95.91,5.31,5.65,4.98,9.99-1.49,19.95-8.61,37.97-18.74,54.99-16.08,27.02-36.73,49.42-64.64,64.59-.91.49-1.59,1.4-2.37,2.11-9.01,2.82-17.92,6.1-27.08,8.29-5.17,1.24-10.76,1.01-16.15.88-4.29-.11-8.17-1.59-9.28-6.58Z"/>
  <path class="cls-4" d="M1758.96,1737.67c5.52-6.8,11.58-13.25,16.45-20.49,8.95-13.3,11.85-28.78,14.05-44.33,2.83-19.95.78-39.45-6.78-58.14-2.39-5.91-6.52-11.09-9.42-16.82-1.22-2.41-1.32-5.4-1.93-8.12,2.82,0,6-.87,8.41.12,9.68,3.97,14.78,12.34,19.03,21.34.72,1.53,1.49,3.03,2.23,4.54,6.43,20.94,8.89,42.2,4.77,63.89-4.93,25.98-13.82,50.06-34.51,68.05-2.74,2.38-5.93,4.72-9.31,5.72-2.56.76-7.03.33-8.34-1.37-1.4-1.81-.75-5.95.21-8.64.8-2.25,3.35-3.87,5.13-5.76Z"/>
  <path class="cls-4" d="M1013.02,1946.33c5.55-2.21,11.48-3.77,16.58-6.75,21.15-12.35,39.61-27.96,50.74-50.11,6.47-12.86,10.24-27.08,15.18-40.71.36-1-.01-2.42.58-3.15,1.8-2.21,3.82-5.69,5.91-5.8,2.13-.11,4.99,2.81,6.51,5.09,1.16,1.74,1.25,4.63.9,6.86-5.65,35.51-23.53,63.87-50.48,87.17-11.7,10.12-24.99,17.02-39.27,22.38-6.26.45-12.53,1.27-18.79,1.21-4.63-.05-9.84-1.33-9.66-7.29.17-5.38,4.86-5.4,9.21-5.83,4.26-.42,8.41-2.01,12.6-3.09Z"/>
  <path class="cls-1" d="M1310.24,1841.57c-16.33-5.92-28.71-16.33-34.06-33.12-14.21-44.65-2.16-82.74,30.41-115.08,6.73-6.68,14.45-12.35,21.72-18.49-2.09,3.41-3.93,7.01-6.3,10.2-18.12,24.3-32.98,50.16-37.4,80.71-3.56,24.63.46,47.61,17.07,67.21,2.6,3.07,5.69,5.72,8.56,8.56Z"/>
  <path class="cls-4" d="M842.55,1203.54c-9.1-1.73-19.96-3.41-30.6-6.01-4-.98-7.7-3.8-11.15-6.31-3.35-2.44-4.81-6.58-1.7-9.54,1.91-1.82,6.26-2.28,9.13-1.64,7.68,1.73,15.02,5.29,22.75,6.51,19.85,3.14,38.61-1.06,56.25-10.52,1.14-.61,2.25-1.98,3.32-1.93,3.1.14,7.19-.23,9.03,1.54,3.26,3.15,2.36,7.95-1.64,9.97-10.34,5.23-20.82,10.39-31.71,14.23-6.79,2.39-14.43,2.35-23.67,3.68Z"/>
  <path class="cls-4" d="M1217.21,1856.64c-1.14-2.28-2.49-4.48-3.38-6.85-2.63-7.03-5.5-14.03-7.33-21.28-.48-1.9,2.5-4.68,3.89-7.05,2.01,1.24,4.78,2.01,5.9,3.8,3.67,5.86,6.29,12.39,10.15,18.11,6.59,9.77,15.54,16.26,27.82,17.11,1.49.1,2.99.54,4.42,1.01,7.89,2.6,8.93,5.87,4.13,12.87-15.66,2.52-29.03-1.99-40.31-13.05-1.68-1.65-3.53-3.11-5.3-4.67Z"/>
  <path class="cls-1" d="M1312.74,1843.14c-.49-.31-.98-.62-1.47-.93.49.31.98.62,1.47.93Z"/>
  <path class="cls-1" d="M1328.4,1674.79c.39-.44.78-.87,1.16-1.31-.39.44-.78.87-1.16,1.31Z"/>
  <path class="cls-4" d="M977.67,842.72c-.7.07-1.4.14-2.1.2-.92-.22-1.84-.45-2.77-.67-2.85-1.48-5.84-2.75-8.53-4.49-5.12-3.31-8.68-8.55-16.6-7.39-5.15.75-6.91-5.31-7.19-10.34,2.16-1.37,4.32-2.73,7-4.43-2.52-5.77-5.08-11.64-7.64-17.52-6.19-14.23-10.47-28.95-11.45-44.51-.29-4.57.18-9.57,5.62-10.24,5.48-.67,7.09,4.11,7.84,8.61,3.13,18.9,10.81,36.1,19.49,52.96,1.71,3.32,3.07,4.21,7.37,3.58,12.2-1.79,24.6-2.24,36.92-3.22,11.72,1.84,23.44,3.67,33.48,5.24-12.62-20.93-26.11-42.01-38.2-63.87-7.41-13.38-12.67-27.95-18.89-41.99-.35-2.31-.51-4.68-1.08-6.93-4.83-19.1-10.71-38.01-14.28-57.34-2.33-12.58-1.44-25.77-1.79-38.69-.12-4.47,2.5-6.94,6.97-6.65,4.2.28,5.73,3.17,6.06,7.12,1.99,23.75,4.92,47.29,13.22,69.9,4.37,11.91,7.07,24.45,11.58,36.3,9.47,24.84,22.86,47.75,37.2,69.99,5.86,9.09,14.15,16.61,21.34,24.84,7.09,8.1,13.63,16.78,21.43,24.13,8.77,8.27,18.46,15.62,28.19,22.77,3.94,2.9,7.48,6.17,5.22,10.42-1.43,2.69-6.46,3.47-9.88,5.11-10.75-6.79-22.84-12.17-31.89-20.75-10.01-9.49-20.85-14.97-33.99-17.01-6.85-1.06-13.7-2.05-20.55-3.07-14.55-1.83-29.11-3.59-44.14-.55,10.23,12.78,10.34,14.08,2.04,18.48Z"/>
  <path class="cls-4" d="M1049.38,1721.6c1.29-30.04,7.11-56.02,15.2-81.6,10.23-32.34,24.69-62.72,43.16-91.04,10.55-16.17,22.61-31.37,34.33-46.75,32.8-43.02,66.05-85.71,98.59-128.93,19.74-26.21,39.49-52.59,53.76-82.33,16.89-35.2,27.12-72.3,28.79-111.53.07-1.71-.03-3.88.93-4.99,1.53-1.78,4.32-4.32,5.79-3.88,1.94.57,4.48,3.76,4.42,5.74-.44,13.01-.67,26.11-2.54,38.96-4.64,31.9-14.72,62.29-30.55,90.29-11.25,19.91-23.84,39.23-37.53,57.55-34.86,46.66-70.85,92.48-106.01,138.92-15.73,20.77-31.54,41.59-45.53,63.52-15.79,24.77-27.92,51.51-36.84,79.69-6.38,20.17-11.71,40.51-12.84,61.63-.63,11.84.54,23.79.95,35.68.04,1.29.98,2.81.55,3.82-1.2,2.84-2.32,7.01-4.53,7.85-4.21,1.6-6.19-2.47-6.72-5.99-1.49-9.84-2.55-19.74-3.4-26.61Z"/>
  <path class="cls-4" d="M1469.1,1135.89c1.26-1.44,2.63-4.36,4.18-4.46,2.1-.14,5.24,1.32,6.35,3.08,3.45,5.51,6.09,11.51,9.14,17.28,7.06,13.36,13.58,27.06,21.39,39.97,19.98,33.07,46.58,60.32,75.94,85.16,23.76,20.09,47.54,40.24,70.19,61.55,24.95,23.47,44.93,50.79,56.62,83.48.95,2.64,2.42,5.35,2.41,8.02-.02,2.69-.83,6.48-2.69,7.75-1.79,1.22-6.66.89-7.9-.63-4.02-4.88-7.77-10.29-10.21-16.1-8.27-19.66-20.74-36.48-34.27-52.63-17.94-21.39-38.93-39.58-60.19-57.55-26.85-22.7-53.78-45.43-75.52-73.37-8.4-10.79-16.19-22.1-23.73-33.52-12.51-18.97-21.05-39.96-29.72-60.85-.82-1.98-1.16-4.17-1.98-7.19Z"/>
  <path class="cls-4" d="M1199.53,1713.1c1.58-36.76,9.05-70.25,23.99-101.91,14.43-30.58,35.31-56.52,57.84-81.47,20.5-22.7,42.49-44.22,58.38-70.81,9.96-16.68,18.55-33.91,24.3-52.5,1.15-3.71,2.33-7.42,7.37-6.27,5.07,1.16,4.63,5.39,4,8.97-3.18,17.99-10.94,34.26-19.52,50.17-15.43,28.62-37.24,52.32-58.84,76.2-23.25,25.7-44.63,52.76-59.15,84.54-10.92,23.91-16.94,49.2-19.38,75.28-1.11,11.87-.88,23.87-1.31,35.81-.17,4.76-.81,9.68-6.74,10.21-5.35.47-8.64-2.78-9.23-8.07-.82-7.31-1.26-14.67-1.71-20.16Z"/>
  <path class="cls-4" d="M820.84,833c.14,4.21,1.82,9.24-3.97,10.98-6.23,1.88-11.49-1.36-14.84-5.84-10.66-14.29-18.32-30.01-23.27-47.38-6.69-23.46-8.61-47.27-7.32-71.3.84-15.62,3.88-31.14,6.18-46.67,1.13-7.65,2.8-15.23,4.22-22.84,13.32-34.4,24.86-69.7,49.63-98.3,1.39-1.6,3.15-3.64,4.98-3.93,2.91-.46,7.11-.69,8.74.97,1.45,1.47,1.16,6.2-.11,8.54-7.56,13.94-16.41,27.23-23.35,41.46-12.2,25.02-20.92,51.25-25.87,78.83-3.84,21.39-5.58,42.78-4.84,64.39,1,29.06,7.07,56.76,23.49,81.44,1.77,2.67,3.3,5.5,4.94,8.26.54.5,1.08,1,1.62,1.5l-.23-.13Z"/>
  <path class="cls-4" d="M924.69,812.23c2.14,3.21,4.04,6.61,6.47,9.6,3.36,4.13,5.79,8.47,2,13.22-2.74,3.44-9.73,2.28-13.62-3.04-7.39-10.11-15.13-20.23-20.69-31.36-22.07-44.22-28.68-91.59-26.66-140.49.09-2.17.08-4.34.11-6.5.98-8.1,1.95-16.21,2.93-24.32,4.62-18.26,8.5-36.74,14.1-54.69,3.72-11.94,9.85-23.14,15.01-34.62.69-1.54,1.78-3.48,3.16-4.01,2.96-1.13,6.22-1.46,9.36-2.12.43,3.13,2.01,6.66,1.08,9.31-4.25,12.07-10.39,23.58-13.66,35.88-5.15,19.38-9.62,39.07-12.41,58.91-3.22,22.86-2.77,45.97-.69,69.07,2.02,22.47,6.3,44.42,14.27,65.39,5.21,13.72,12.75,26.55,19.25,39.78Z"/>
  <path class="cls-4" d="M1096.14,1709.11c1.11-46.02,11.48-90.04,37.47-129.03,10.26-15.4,23.92-28.53,36.07-42.66.83-.97,1.94-2.19,3.05-2.34,2.72-.36,5.51-.17,8.27-.19-.77,2.46-.91,5.41-2.4,7.3-10.97,13.96-23.17,27.05-33.13,41.68-14.59,21.43-23.02,45.77-27.69,71.2-2.7,14.67-5.51,29.55-5.84,44.38-.48,21.24,2.03,42.5,9.24,62.7,5.18,14.5,11.51,28.59,17.33,42.86.08.2.19.39.26.6,1.6,4.37,3.59,9.64-1.18,12.36-4.78,2.73-9.44-.1-11.72-5.08-6.12-13.39-12.17-26.82-17.89-40.39-8.47-20.09-11.04-41.34-11.85-63.4Z"/>
  <path class="cls-4" d="M1622.21,1574.86c.43,28.4-5.62,50.04-14.23,71.06-1.69,4.12-4.4,8.39-7.83,11.06-2.51,1.95-7.3,2.45-10.46,1.52-1.93-.57-3.38-4.97-3.78-7.83-.32-2.33.81-5.15,2.02-7.37,17.19-31.69,20.07-65.19,12.81-99.96-6.92-33.1-19.51-63.86-38.41-91.97-3.26-4.85-6.6-9.66-9.64-14.64-2.09-3.41-5.25-7.06-.87-11,4.42-3.99,8.77-1.22,11.57,1.7,4.92,5.12,9.33,10.92,13.04,16.99,13.25,21.66,24.29,44.3,33.19,68.25,8.2,22.06,10.65,44.67,12.6,62.21Z"/>
  <path class="cls-4" d="M1150.95,622.71c1.43,1.93,4.29,4.61,5.71,7.91,6.47,14.95,12.63,30.04,18.74,45.14,18.47,45.71,36.27,91.71,55.55,137.08,9.33,21.96,20.85,43.08,37.1,61.09,2.33,2.58,4.95,5.44,1.77,9.11-3.38,3.88-7.78,2.99-10.37,0-8.03-9.32-16.36-18.61-22.85-28.99-18.63-29.76-31.67-62.28-44.28-94.89-13.07-33.82-25.43-67.92-38.15-101.87-3.27-8.73-7.07-17.27-10-26.11-1.72-5.19.76-8.77,6.79-8.47Z"/>
  <path class="cls-4" d="M1528.57,1491.33c-.52,28.02-2.76,48.2-10.04,67.52-1.18,3.14-2.96,6.7-5.56,8.46-2.32,1.58-6.58,2.05-9.21,1.03-3.69-1.43-4.44-5.08-3.28-9.38,3.5-12.95,7.23-25.9,9.56-39.09,3.19-18,2.26-36.18-.29-54.27-5.06-35.79-15.15-70.29-26.53-104.47-1.16-3.5-2.65-7.1-2.74-10.68-.06-2.8,1.83-5.64,2.85-8.46,2.35,1.55,5.82,2.57,6.86,4.75,4.29,8.99,8.16,18.21,11.6,27.57,9.18,25.02,17.44,50.36,21.68,76.74,2.54,15.8,4.04,31.76,5.09,40.27Z"/>
  <path class="cls-4" d="M1254.34,905.33c-17.28-2.49-30.47-8.48-42.94-16.19-21.63-13.37-38.18-32.09-53.85-51.67-14.41-17.99-23.81-38.76-32.66-59.8-.59-1.4-1.44-2.94-1.3-4.33.32-3.16.27-8.21,1.99-9,4.19-1.93,7.1,1.58,8.89,5.41,15.09,32.18,34.73,61.31,60.6,85.71,17.12,16.15,36.92,28.66,59.72,35.65,4.45,1.36,8.47,3.63,6.62,8.41-1.14,2.93-5.51,4.61-7.06,5.8Z"/>
  <path class="cls-4" d="M821.96,757.67c.56-5.93,1.24-12.18,1.7-18.45.32-4.3,2-7.19,6.7-7.05,4.5.14,6.29,2.87,6.76,7.19,1.46,13.49,1.91,27.25,5.08,40.34,3.07,12.71,8.63,24.89,13.82,36.99,3.26,7.6,3.93,12.93.07,15.53-3.45,2.32-10.69-.95-14.7-6.91-10.26-15.26-14.95-32.52-17.64-50.43-.83-5.56-1.18-11.2-1.79-17.22Z"/>
  <path class="cls-4" d="M1679.47,1697.1c-3.47,23.94-11.02,44.2-22.35,62.95-3.98,6.59-8.99,12.79-14.59,18.04-2.23,2.08-8.22,2.64-10.94,1.12-4.47-2.5-3.28-7.38-.61-11.45,7.25-11.05,15.35-21.67,21.41-33.34,5.24-10.09,8.16-21.39,12.04-32.17.66-1.83.44-4.32,1.63-5.55,2.32-2.41,5.31-5.6,8.09-5.67,1.97-.05,4.05,4.5,5.33,6.08Z"/>
  <path class="cls-4" d="M541.43,835.3c2.32-16.21,4.39-30.76,6.52-45.31.19-1.27.4-2.85,1.23-3.64,2.11-2.02,4.54-5.13,6.89-5.17,4.17-.07,5.37,3.68,4.9,7.62-.98,8.17-2.02,16.33-2.94,24.5-1.86,16.51-1.7,32.89,3.57,48.89.34,1.03.52,2.11.89,3.13,1.48,4.03,3.05,9.01-1.67,10.94-4.85,1.98-9.15-1.93-10.48-6.37-3.52-11.74-6.17-23.73-8.9-34.57Z"/>
  <path class="cls-4" d="M1446.54,1345.09c-.65,3.72-.67,7.32-1.94,10.41-2.17,5.28-7.48,5.77-10.52.93-1.78-2.82-2.78-6.36-3.32-9.7-3.08-18.98-5.89-38-8.87-56.99-.69-4.4-1.86-9.48,3.84-10.76,5.35-1.21,7.86,3.84,8.93,7.79,2.91,10.64,5.09,21.49,7.27,32.31,1.75,8.67,3.1,17.43,4.6,26.01Z"/>
  <path class="cls-4" d="M1442.8,1409.18c-.87,5.6-1.25,10.61-2.57,15.36-.51,1.85-3.12,4.3-4.82,4.34-2.1.04-5.27-1.66-6.14-3.48-1.6-3.37-2.51-7.37-2.55-11.11-.07-6.91.91-13.83,1.04-20.75.07-3.78.27-7.84,4.79-7.4,2.52.24,5.98,3.31,6.83,5.85,1.9,5.66,2.42,11.78,3.42,17.2Z"/>
  <path class="cls-4" d="M1432.43,1251.54c-1.39.81-3.42,2.86-5.64,3.09-4.39.47-9.87-5.84-9.09-10.67.29-1.76,3.06-4.03,5.01-4.4,4.2-.8,9.53,5.3,9.72,11.98Z"/>
  <path class="cls-3" d="M868.43,655.65c-.07.44-.15.89-.22,1.32.07-.45.15-.89.22-1.32Z"/>
  <path class="cls-2" d="M821.06,833.12c-.54-.5-1.08-1-1.62-1.5.54.5,1.08,1,1.62,1.5Z"/>
  <path class="cls-1" d="M585.09,958.23c9.35,0,17.56-.13,25.76.14,1.17.04,3.01,1.82,3.32,3.09,6.87,28.6,11.38,57.47,9.09,87.03-.03.35-.44.67-1.53,2.21-3.19-2.8-6.65-5.19-9.3-8.27-11.12-12.95-15.61-28.97-19.55-45.02-3.08-12.57-5.09-25.39-7.78-39.18Z"/>
  <path class="cls-1" d="M586.76,937.1c2.86-10.7,9.77-15.4,19.69-18.31,1.14,6.24,2.19,12.01,3.34,18.31h-23.03Z"/>
  <path class="cls-1" d="M707.43,841.87c-6.49-3.21-12.95-6.48-19.49-9.56-.72-.34-1.94.37-2.93.6-1.3-2.12-2.6-4.25-4.67-7.62,7.32,0,13.41-.14,19.48.15.95.05,2.15,1.9,2.66,3.16,1.79,4.37,3.32,8.84,4.95,13.28Z"/>
  <path class="cls-1" d="M741.46,832.62c-.82.62-2.22,1.13-2.36,1.87-1.57,8.5-7.27,9.96-14.59,8.86-.83-4.83-1.67-9.65-2.7-15.66,6.76,1.7,13.2,3.31,19.65,4.93Z"/>
  <path class="cls-1" d="M1234.12,988.06c-.04.57-.09,1.14-.13,1.71-.6-.67-1.21-1.34-1.81-2.01.31-.27.62-.54.94-.81.34.37.67.74,1.01,1.11Z"/>
  <path class="cls-1" d="M1104.02,1439.67c.54-.62,1.07-1.24,1.61-1.85-.54.62-1.07,1.24-1.61,1.85Z"/>
  <path class="cls-1" d="M1100.78,1444.5c.38-.41.75-.82,1.13-1.24-.38.41-.75.82-1.13,1.24Z"/>
  <path class="cls-4" d="M877.19,1508.13c-9.33-5.65-18.53-10.17-26.53-16.25-24.12-18.34-37.18-44.27-46.58-72.13-4.35-12.87-6.87-26.37-10-39.64-.53-2.24-.14-4.78.22-7.12.57-3.68,1.2-7.66,6.04-8.05,5.18-.42,6.66,3.82,7.61,7.44,2.52,9.62,4.1,19.5,6.74,29.09,9.67,35.11,26.04,65.67,58.82,84.84,3.35,1.96,7.02,3.99,9.33,6.94,1.84,2.35,3.02,6.49,2.25,9.21-.62,2.19-4.58,3.43-7.9,5.67Z"/>
  <path class="cls-4" d="M673.48,1504.46c.9-6.12,2.37-16.82,4.09-27.48.61-3.77,2.08-7.9,6.83-7.1,4.68.79,7.47,4.19,7.08,9.4-.58,7.76-1.47,15.52-1.66,23.29-.7,27.63,5.39,53.35,22.43,75.74,2.88,3.79,6.36,7.12,9.57,10.66,3.09,3.42,5.64,7.18,1.87,11.45-3.55,4.03-7.65,2.77-11.76.32-13.55-8.09-21.34-20.82-27.57-34.59-8.18-18.06-10.5-37.37-10.88-61.69Z"/>
  <path class="cls-4" d="M913.91,1472.4c-.24,8.89-6.29,12.16-12.23,8.11-8.9-6.08-17.88-12.36-25.61-19.81-19.95-19.23-32.39-43.18-41.03-69.25-.34-1.03-1.18-2.2-.93-3.06,1.05-3.69,2.41-7.29,3.66-10.92,2.88,2.09,6.86,3.56,8.44,6.38,7.02,12.48,12.73,25.71,20.07,37.98,10.02,16.73,23.45,30.54,39.45,41.87,3.64,2.58,6.25,6.61,8.16,8.7Z"/>
  <path class="cls-4" d="M884.55,1391.74c9.73,13.87,18.66,26.6,27.66,39.44-9.9-.89-26.92-24.49-27.66-39.44Z"/>
  <path class="cls-2" d="M589.68,1060.63c-.03-.55-.05-1.09-.08-1.64.03.55.05,1.1.08,1.64Z"/>
  <path class="cls-1" d="M523.99,1415.92c-.23,1.3-.47,2.6-.7,3.9.23-1.3.47-2.6.7-3.9Z"/>
  <path class="cls-1" d="M1173.33,1244.86c.12-.56.25-1.13.37-1.69-.12.56-.25,1.13-.37,1.69Z"/>
  <path class="cls-1" d="M977.67,842.72c8.3-4.4,8.19-5.7-2.04-18.48,15.03-3.03,29.58-1.27,44.14.55-3.19-.15-4.14.74-2.87,4.16,3.92,10.52.65,17.16-10.32,18.81-9.92,1.49-20.07,1.15-28.91-5.04Z"/>
  <path class="cls-1" d="M972.8,842.26c.92.22,1.85.45,2.77.67-.92-.22-1.85-.45-2.77-.67Z"/>
  <path class="cls-4" d="M1047.52,969.32c2.95,16.97,1.48,32.27-8.88,45.74-11.54,15-27.11,19.05-40.95,11-10.76-6.25-13.1-17.19-14.72-28.26-2.4-16.38,1.67-31.18,12.54-45.04-14.64,1.44-27.07,4.65-35.93,16.5-1.57,2.1-5.65,2.34-8.57,3.43-.55-3.13-2.42-6.78-1.43-9.29,5.63-14.22,17.25-22.1,31.45-25.55,26.18-6.37,50.83-1.73,72.12,14.82,6.48,5.04,10.44,13.64,14.69,21.09,2.36,4.14,1.75,9.14-3.43,11.54-4.93,2.29-6.95-2.07-9.24-5.03-2.72-3.52-5.11-7.29-7.64-10.95Z"/>
  <path class="cls-4" d="M711.66,953.04c-10.1-4.98-27.02,3.95-31.56,18.3-.52,1.64-.87,3.34-1.42,4.98-1.4,4.22-4.18,6.94-8.77,5.73-4.28-1.13-6.2-4.51-5.74-9,.21-2.09.54-4.18.72-5.58-4.45-1.65-8.81-2.88-12.72-4.94-1.31-.69-1.5-3.51-2.21-5.36,2.06-.77,4.14-2.21,6.17-2.14,2.49.09,4.98,1.32,7.39,2.27,3.88,1.53,5.61,0,6.01-3.32-3.26-2.7-6.62-4.81-8.98-7.72-1.29-1.59-.91-4.55-1.28-6.89,2.42.06,5.29-.69,7.17.35,2.95,1.63,5.23,4.46,8.02,6.98,12.75-9.05,26.96-14.41,43.05-11.13,22.52,4.58,35.65,19.8,38.21,44.06,1.41,13.36.74,26.4-8.44,37.6-8.36,10.21-23.43,11.4-32.66,1.98-12.86-13.12-13.56-29.42-10.6-46.04,1.2-6.73,4.87-13.03,7.65-20.12Z"/>
</svg>